<svg width="524" height="524" viewBox="0 0 524 524" fill="none" xmlns="http://www.w3.org/2000/svg">
<mask id="path-1-outside-1_5_6191" maskUnits="userSpaceOnUse" x="0.294281" y="0.59082" width="524" height="523" fill="black">
<rect fill="white" x="0.294281" y="0.59082" width="524" height="523"/>
<path d="M335.66 69.6251C338.815 69.8247 344.238 76.3128 344.875 79.6893C344.193 79.3878 337.6 72.1427 335.555 70.2278L335.66 69.6251Z"/>
<path d="M340.269 81.2254C349.746 85.7161 354.195 91.9869 358.944 100.94C359.379 101.761 360.232 103.052 360.363 103.949C359.604 103.238 357.708 100.851 356.88 100.599L356.313 100.804L346.159 90.2677C341.923 86.1489 341.741 86.7194 338.469 81.8247L338.35 81.6499L340.269 81.2254Z"/>
<path d="M324.302 378.441L324.566 378.498C326.521 378.94 327.552 380.043 329.694 379.051L352.607 380.147C369.41 381.24 381.394 384.749 397.672 389.144L427.245 397.436C426.269 399.499 424.788 401.317 423.751 403.375C415.34 420.065 414.871 419.397 396.259 419.393L360.206 418.176C358.28 418.055 356.405 417.656 354.465 417.6L308.326 417.605C306.212 417.645 304.122 418.065 302 418.138L289.115 418.408L223.75 422.582L203.499 422.774C201.102 422.818 198.786 423.376 196.377 423.429L155.781 424.416C144.218 424.726 129.573 423.922 118.195 425.624C113.081 426.39 111.72 426.421 112.211 431.376C112.369 432.968 113.637 440.602 113.01 441.799C111.459 444.762 97.8188 448.057 93.3631 450.379L67.6768 437.334L66.7672 433.5C65.7083 429.075 64.8495 416.673 68.5497 413.087L72.733 409.315C92.63 391.953 129.11 389.593 154.235 385.378C158.209 384.383 162.597 384.195 166.68 383.835L192.875 381.971C197.695 381.563 202.694 380.223 207.507 380.202C209.598 381.574 211.124 383.794 212.651 385.735L217.86 391.874C222.403 396.776 227.552 401.487 232.822 405.589C247.519 413.65 270.653 419.606 286.802 412.396C297.413 407.658 306.175 397.754 313.992 389.369L324.302 378.441Z"/>
<path d="M154.235 385.378C158.209 384.383 162.597 384.195 166.68 383.835L192.875 381.971C197.695 381.563 202.694 380.223 207.507 380.202C209.598 381.574 211.124 383.794 212.651 385.735L217.86 391.874C222.403 396.776 227.552 401.487 232.822 405.589C231.208 406.335 228.071 406.052 226.299 405.816L207.157 403.866C192.462 402.664 182.935 403.134 168.325 404.6L159.25 405.396C157.064 405.485 154.675 405.974 153.34 403.829C148.625 396.255 152.687 392.75 154.189 385.64L154.235 385.378Z"/>
<path d="M482.517 427.283C490.455 399.983 449.725 383.418 429.687 377.644L401.053 370.679C395.23 369.433 383.019 369.231 380.746 362.375L380.609 361.982C378.898 356.677 381.846 351.139 387.214 349.602C390.205 348.746 393.932 349.735 396.961 350.205L418.759 354.421C445.702 360.127 481.869 373.957 497.139 398.617L497.849 399.904C503.539 410.783 505.033 421.883 501.442 433.745C488.254 477.317 429.142 488.494 390.25 495.003L325.875 502.927C323.576 503.115 321.331 503.473 319.014 503.565L267.084 503.551L223.569 500.303L160.875 491.733C120.522 484.113 87.7288 475.005 53.1127 451.632C22.3274 430.846 4.76888 405.897 39.0104 379.827C47.7908 373.142 57.811 367.739 68.0318 363.592L87.0992 356.883C93.1564 354.86 99.4375 352.556 105.625 351L107 350.745C120.359 348.872 121.95 365.568 112.508 369.281C103.745 372.727 92.3974 373.936 82.6211 377.631C73.1692 381.205 34.6236 399.625 39.9402 412.5L40.0956 412.882C43.4809 420.959 58.524 433.641 67.3717 437.215L67.6768 437.334L93.3631 450.379L110.75 456.814C138.033 465.581 166.569 470.911 194.767 475.752L257.668 484.341L281.069 486.335L318.457 486.348L336.466 485.261C376.619 482.288 469.341 468.552 482.517 427.283Z"/>
<path d="M355.346 269.785C357.041 267.357 358.934 264.288 361.783 263.131L362.125 262.998C367.64 260.809 376.097 265.761 375.679 272.089C375.518 274.53 374.126 277.109 373.003 279.25L354.031 311.272L309.248 376.875C297.315 392.71 282.005 407.781 260.529 406.718C236.317 405.519 220.502 384.428 207.237 366.659C188.222 341.188 172.188 313.445 157.591 285.244C133.684 239.057 111.766 190.086 121.309 136.811C133.42 69.1984 190.102 24.0355 257.941 20.7825C302.776 18.6327 341.494 34.5954 371.256 67.426C383.167 83.6674 389.039 93.9265 396.392 113.492C397.058 115.265 398.452 119.388 398.636 119.422L402.916 133.385C407.482 150.917 408.516 168.091 406.69 186.088C406.158 191.327 405.83 197.611 403.375 202.377L402.377 203.911C400.887 206.003 398.925 207.26 396.5 207.999L396.252 208.079C395.048 208.442 393.167 208.369 391.957 208.076L391.664 208.012C379.335 205.142 382.926 190.576 383.67 182.011C387.721 135.374 370.706 81.6993 330.625 54.7496C289.691 27.2264 232.085 32.4995 191.374 57.4C167.262 72.1481 148.084 98.7286 141.563 126.265C136.962 145.691 134.906 172.896 143.208 191.518C144.943 197.227 147.543 202.727 149.784 208.255L172.487 258.267L203.893 314.922L222.486 344.856C228.687 354.502 244.171 381.4 256.084 383.871L256.104 383.914C273.176 389.745 286.461 367.735 294.743 356.419L334.396 301.976C336.916 298.193 339.577 294.44 341.854 290.508L341.452 290.384C340.333 287.18 345.037 281.793 347.38 279.409L354.714 269.07L355.346 269.785Z"/>
<path d="M354.714 269.07L355.346 269.785L348.106 280.626L348.377 279.25C348.647 278.791 348.914 278.529 349.127 278L347.38 279.409L354.714 269.07Z"/>
<path d="M347.38 279.409L349.127 278C348.914 278.529 348.647 278.791 348.377 279.25L348.106 280.626L341.854 290.508L341.452 290.384C340.333 287.18 345.037 281.793 347.38 279.409Z"/>
<path d="M427.245 397.436L439.97 399.927C451.408 402.601 476.055 409.681 479.714 422.875C480.15 424.446 480.223 425.739 481.125 427.169L482.517 427.283C469.341 468.552 376.619 482.288 336.466 485.261L318.457 486.348L281.069 486.335L257.668 484.341L194.767 475.752C166.569 470.911 138.033 465.581 110.75 456.814L93.3631 450.379C97.8188 448.057 111.459 444.762 113.01 441.799C113.637 440.602 112.369 432.968 112.211 431.376C111.72 426.421 113.081 426.39 118.195 425.624C129.573 423.922 144.218 424.726 155.781 424.416L196.377 423.429C198.786 423.376 201.102 422.818 203.499 422.774L223.75 422.582L289.115 418.408L302 418.138C304.122 418.065 306.212 417.645 308.326 417.605L354.465 417.6C356.405 417.656 358.28 418.055 360.206 418.176L396.259 419.393C414.871 419.397 415.34 420.065 423.751 403.375C424.788 401.317 426.269 399.499 427.245 397.436ZM331.427 457.248C324.548 457.602 319.759 458.545 313.325 459.426C319.532 459.545 326.424 459.996 332.568 458.921C333.814 459.171 336.179 458.497 337.5 458.344L361.421 455.264C364.484 454.911 367.615 454.953 370.692 454.744L412.566 450.529C425.943 448.523 439.157 446.013 452.259 442.635L463.744 439.429C471.151 437.122 473.953 435.938 476.312 427.909C470.929 428.792 466.057 431.507 460.944 433.333C452.896 436.205 444.702 438.623 436.358 440.473L384.407 448.433C378.784 449.149 373.104 449.276 367.5 450.223C366.034 450.47 360.239 453.124 358.125 453.977C354.845 455.302 350.19 454.931 346.644 455.296L331.427 457.248Z"/>
<path d="M356.294 428.816L357.75 428.64C361.866 428.393 367.333 435.414 367.235 439.125C366.919 451.099 354.35 450.991 346.058 452.091L308.848 456.114C288.335 458.253 267.784 461.784 247.117 462.046C234.283 461.541 230.502 445.023 243.625 441.55C246.999 440.657 250.954 440.676 254.421 440.432L324.788 433.356C335.317 432.055 345.895 430.95 356.294 428.816Z"/>
<path d="M143.208 191.518C143.332 185.003 142.92 178.366 143.333 171.869C146.205 126.712 174.687 83.2875 217.009 65.8171C252.808 51.0394 305.42 52.5674 335.982 79.2998L338.35 81.6499L338.469 81.8247C341.741 86.7194 341.923 86.1489 346.159 90.2677L356.313 100.804C374.018 122.73 384.428 158.739 374.232 185.735C372.642 189.947 370.551 193.988 369.103 198.242C378.12 207.597 377.867 211.461 371.504 222.579C369.004 226.948 369.658 224.833 371.393 228.504L376.344 235.751C374.925 237.397 373.407 239.094 371.559 240.275C367.903 242.611 367.825 240.696 366.279 245.461L363.977 252.192C361.834 257.824 358.663 264.507 354.714 269.07L347.38 279.409C345.037 281.793 340.333 287.18 341.452 290.384L341.854 290.508C339.577 294.44 336.916 298.193 334.396 301.976L294.743 356.419C286.461 367.735 273.176 389.745 256.104 383.914L256.084 383.871C244.171 381.4 228.687 354.502 222.486 344.856L203.893 314.922L172.487 258.267L149.784 208.255C147.543 202.727 144.943 197.227 143.208 191.518Z"/>
<path d="M256.084 383.871L256.418 383.558C254.613 383.241 249.229 380.862 248.553 378.928L254.774 373.406C259.934 369.662 270.809 355.351 274.541 350.228L307.247 306.483L357.059 238.375C360.095 234.06 362.986 228.83 366.875 225.266L367.256 225.375C368.128 225.552 368.687 225.676 369.289 226.418L371.393 228.504L376.344 235.751C374.925 237.397 373.407 239.094 371.559 240.275C367.903 242.611 367.825 240.696 366.279 245.461L363.977 252.192C361.834 257.824 358.663 264.507 354.714 269.07L347.38 279.409C345.037 281.793 340.333 287.18 341.452 290.384L341.854 290.508C339.577 294.44 336.916 298.193 334.396 301.976L294.743 356.419C286.461 367.735 273.176 389.745 256.104 383.914L256.084 383.871Z"/>
<path d="M253.595 85.1028C292.652 83.8523 323.638 101.63 336.84 140.028C349.324 176.338 334.561 216.126 300.403 233.397C291.765 237.765 282.667 240.076 273.061 240.96C243.064 243.973 208.988 226.933 196.694 198.659C193.935 192.315 192.335 185.478 190.378 178.854C191.353 177.661 192.557 176.665 193.702 175.64C186.567 171.427 187.468 166.346 187.496 158.651C187.641 118.431 212.436 87.8951 253.595 85.1028Z"/>
<path d="M254.433 100.613C288.757 98.557 316.202 115.976 320.546 151.54C322.535 167.825 315.577 187.326 305.474 200.031C295.702 212.32 282.865 217.374 267.827 219.105C238.9 222.14 206.985 205.515 203.038 174.5C204.637 172.434 203.779 169.193 203.482 166.804L202.642 158.576C200.892 126.161 222.316 102.068 254.433 100.613Z"/>
<path d="M257.405 140.588L257.417 140.584C262.548 140.167 267.055 140.491 271.498 143.319C290.724 155.56 280.78 178.848 261.483 182.932L260.926 183.017C231.08 187.748 227.482 144.834 257.405 140.588Z"/>
</mask>
<path d="M335.66 69.6251C338.815 69.8247 344.238 76.3128 344.875 79.6893C344.193 79.3878 337.6 72.1427 335.555 70.2278L335.66 69.6251Z" fill="#A8DDE5"/>
<path d="M340.269 81.2254C349.746 85.7161 354.195 91.9869 358.944 100.94C359.379 101.761 360.232 103.052 360.363 103.949C359.604 103.238 357.708 100.851 356.88 100.599L356.313 100.804L346.159 90.2677C341.923 86.1489 341.741 86.7194 338.469 81.8247L338.35 81.6499L340.269 81.2254Z" fill="#BCBCFE"/>
<path d="M324.302 378.441L324.566 378.498C326.521 378.94 327.552 380.043 329.694 379.051L352.607 380.147C369.41 381.24 381.394 384.749 397.672 389.144L427.245 397.436C426.269 399.499 424.788 401.317 423.751 403.375C415.34 420.065 414.871 419.397 396.259 419.393L360.206 418.176C358.28 418.055 356.405 417.656 354.465 417.6L308.326 417.605C306.212 417.645 304.122 418.065 302 418.138L289.115 418.408L223.75 422.582L203.499 422.774C201.102 422.818 198.786 423.376 196.377 423.429L155.781 424.416C144.218 424.726 129.573 423.922 118.195 425.624C113.081 426.39 111.72 426.421 112.211 431.376C112.369 432.968 113.637 440.602 113.01 441.799C111.459 444.762 97.8188 448.057 93.3631 450.379L67.6768 437.334L66.7672 433.5C65.7083 429.075 64.8495 416.673 68.5497 413.087L72.733 409.315C92.63 391.953 129.11 389.593 154.235 385.378C158.209 384.383 162.597 384.195 166.68 383.835L192.875 381.971C197.695 381.563 202.694 380.223 207.507 380.202C209.598 381.574 211.124 383.794 212.651 385.735L217.86 391.874C222.403 396.776 227.552 401.487 232.822 405.589C247.519 413.65 270.653 419.606 286.802 412.396C297.413 407.658 306.175 397.754 313.992 389.369L324.302 378.441Z" fill="#FFF681"/>
<path d="M154.235 385.378C158.209 384.383 162.597 384.195 166.68 383.835L192.875 381.971C197.695 381.563 202.694 380.223 207.507 380.202C209.598 381.574 211.124 383.794 212.651 385.735L217.86 391.874C222.403 396.776 227.552 401.487 232.822 405.589C231.208 406.335 228.071 406.052 226.299 405.816L207.157 403.866C192.462 402.664 182.935 403.134 168.325 404.6L159.25 405.396C157.064 405.485 154.675 405.974 153.34 403.829C148.625 396.255 152.687 392.75 154.189 385.64L154.235 385.378Z" fill="#FFFCA3"/>
<path d="M482.517 427.283C490.455 399.983 449.725 383.418 429.687 377.644L401.053 370.679C395.23 369.433 383.019 369.231 380.746 362.375L380.609 361.982C378.898 356.677 381.846 351.139 387.214 349.602C390.205 348.746 393.932 349.735 396.961 350.205L418.759 354.421C445.702 360.127 481.869 373.957 497.139 398.617L497.849 399.904C503.539 410.783 505.033 421.883 501.442 433.745C488.254 477.317 429.142 488.494 390.25 495.003L325.875 502.927C323.576 503.115 321.331 503.473 319.014 503.565L267.084 503.551L223.569 500.303L160.875 491.733C120.522 484.113 87.7288 475.005 53.1127 451.632C22.3274 430.846 4.76888 405.897 39.0104 379.827C47.7908 373.142 57.811 367.739 68.0318 363.592L87.0992 356.883C93.1564 354.86 99.4375 352.556 105.625 351L107 350.745C120.359 348.872 121.95 365.568 112.508 369.281C103.745 372.727 92.3974 373.936 82.6211 377.631C73.1692 381.205 34.6236 399.625 39.9402 412.5L40.0956 412.882C43.4809 420.959 58.524 433.641 67.3717 437.215L67.6768 437.334L93.3631 450.379L110.75 456.814C138.033 465.581 166.569 470.911 194.767 475.752L257.668 484.341L281.069 486.335L318.457 486.348L336.466 485.261C376.619 482.288 469.341 468.552 482.517 427.283Z" fill="#00112B"/>
<path d="M355.346 269.785C357.041 267.357 358.934 264.288 361.783 263.131L362.125 262.998C367.64 260.809 376.097 265.761 375.679 272.089C375.518 274.53 374.126 277.109 373.003 279.25L354.031 311.272L309.248 376.875C297.315 392.71 282.005 407.781 260.529 406.718C236.317 405.519 220.502 384.428 207.237 366.659C188.222 341.188 172.188 313.445 157.591 285.244C133.684 239.057 111.766 190.086 121.309 136.811C133.42 69.1984 190.102 24.0355 257.941 20.7825C302.776 18.6327 341.494 34.5954 371.256 67.426C383.167 83.6674 389.039 93.9265 396.392 113.492C397.058 115.265 398.452 119.388 398.636 119.422L402.916 133.385C407.482 150.917 408.516 168.091 406.69 186.088C406.158 191.327 405.83 197.611 403.375 202.377L402.377 203.911C400.887 206.003 398.925 207.26 396.5 207.999L396.252 208.079C395.048 208.442 393.167 208.369 391.957 208.076L391.664 208.012C379.335 205.142 382.926 190.576 383.67 182.011C387.721 135.374 370.706 81.6993 330.625 54.7496C289.691 27.2264 232.085 32.4995 191.374 57.4C167.262 72.1481 148.084 98.7286 141.563 126.265C136.962 145.691 134.906 172.896 143.208 191.518C144.943 197.227 147.543 202.727 149.784 208.255L172.487 258.267L203.893 314.922L222.486 344.856C228.687 354.502 244.171 381.4 256.084 383.871L256.104 383.914C273.176 389.745 286.461 367.735 294.743 356.419L334.396 301.976C336.916 298.193 339.577 294.44 341.854 290.508L341.452 290.384C340.333 287.18 345.037 281.793 347.38 279.409L354.714 269.07L355.346 269.785Z" fill="#00112B"/>
<path d="M354.714 269.07L355.346 269.785L348.106 280.626L348.377 279.25C348.647 278.791 348.914 278.529 349.127 278L347.38 279.409L354.714 269.07Z" fill="#FC69FF"/>
<path d="M347.38 279.409L349.127 278C348.914 278.529 348.647 278.791 348.377 279.25L348.106 280.626L341.854 290.508L341.452 290.384C340.333 287.18 345.037 281.793 347.38 279.409Z" fill="#CF2DFC"/>
<path d="M427.245 397.436L439.97 399.927C451.408 402.601 476.055 409.681 479.714 422.875C480.15 424.446 480.223 425.739 481.125 427.169L482.517 427.283C469.341 468.552 376.619 482.288 336.466 485.261L318.457 486.348L281.069 486.335L257.668 484.341L194.767 475.752C166.569 470.911 138.033 465.581 110.75 456.814L93.3631 450.379C97.8188 448.057 111.459 444.762 113.01 441.799C113.637 440.602 112.369 432.968 112.211 431.376C111.72 426.421 113.081 426.39 118.195 425.624C129.573 423.922 144.218 424.726 155.781 424.416L196.377 423.429C198.786 423.376 201.102 422.818 203.499 422.774L223.75 422.582L289.115 418.408L302 418.138C304.122 418.065 306.212 417.645 308.326 417.605L354.465 417.6C356.405 417.656 358.28 418.055 360.206 418.176L396.259 419.393C414.871 419.397 415.34 420.065 423.751 403.375C424.788 401.317 426.269 399.499 427.245 397.436ZM331.427 457.248C324.548 457.602 319.759 458.545 313.325 459.426C319.532 459.545 326.424 459.996 332.568 458.921C333.814 459.171 336.179 458.497 337.5 458.344L361.421 455.264C364.484 454.911 367.615 454.953 370.692 454.744L412.566 450.529C425.943 448.523 439.157 446.013 452.259 442.635L463.744 439.429C471.151 437.122 473.953 435.938 476.312 427.909C470.929 428.792 466.057 431.507 460.944 433.333C452.896 436.205 444.702 438.623 436.358 440.473L384.407 448.433C378.784 449.149 373.104 449.276 367.5 450.223C366.034 450.47 360.239 453.124 358.125 453.977C354.845 455.302 350.19 454.931 346.644 455.296L331.427 457.248Z" fill="#FCD004"/>
<path d="M356.294 428.816L357.75 428.64C361.866 428.393 367.333 435.414 367.235 439.125C366.919 451.099 354.35 450.991 346.058 452.091L308.848 456.114C288.335 458.253 267.784 461.784 247.117 462.046C234.283 461.541 230.502 445.023 243.625 441.55C246.999 440.657 250.954 440.676 254.421 440.432L324.788 433.356C335.317 432.055 345.895 430.95 356.294 428.816Z" fill="#00112B"/>
<path d="M143.208 191.518C143.332 185.003 142.92 178.366 143.333 171.869C146.205 126.712 174.687 83.2875 217.009 65.8171C252.808 51.0394 305.42 52.5674 335.982 79.2998L338.35 81.6499L338.469 81.8247C341.741 86.7194 341.923 86.1489 346.159 90.2677L356.313 100.804C374.018 122.73 384.428 158.739 374.232 185.735C372.642 189.947 370.551 193.988 369.103 198.242C378.12 207.597 377.867 211.461 371.504 222.579C369.004 226.948 369.658 224.833 371.393 228.504L376.344 235.751C374.925 237.397 373.407 239.094 371.559 240.275C367.903 242.611 367.825 240.696 366.279 245.461L363.977 252.192C361.834 257.824 358.663 264.507 354.714 269.07L347.38 279.409C345.037 281.793 340.333 287.18 341.452 290.384L341.854 290.508C339.577 294.44 336.916 298.193 334.396 301.976L294.743 356.419C286.461 367.735 273.176 389.745 256.104 383.914L256.084 383.871C244.171 381.4 228.687 354.502 222.486 344.856L203.893 314.922L172.487 258.267L149.784 208.255C147.543 202.727 144.943 197.227 143.208 191.518Z" fill="#6B16FD"/>
<path d="M256.084 383.871L256.418 383.558C254.613 383.241 249.229 380.862 248.553 378.928L254.774 373.406C259.934 369.662 270.809 355.351 274.541 350.228L307.247 306.483L357.059 238.375C360.095 234.06 362.986 228.83 366.875 225.266L367.256 225.375C368.128 225.552 368.687 225.676 369.289 226.418L371.393 228.504L376.344 235.751C374.925 237.397 373.407 239.094 371.559 240.275C367.903 242.611 367.825 240.696 366.279 245.461L363.977 252.192C361.834 257.824 358.663 264.507 354.714 269.07L347.38 279.409C345.037 281.793 340.333 287.18 341.452 290.384L341.854 290.508C339.577 294.44 336.916 298.193 334.396 301.976L294.743 356.419C286.461 367.735 273.176 389.745 256.104 383.914L256.084 383.871Z" fill="url(#paint0_linear_5_6191)"/>
<path d="M253.595 85.1028C292.652 83.8523 323.638 101.63 336.84 140.028C349.324 176.338 334.561 216.126 300.403 233.397C291.765 237.765 282.667 240.076 273.061 240.96C243.064 243.973 208.988 226.933 196.694 198.659C193.935 192.315 192.335 185.478 190.378 178.854C191.353 177.661 192.557 176.665 193.702 175.64C186.567 171.427 187.468 166.346 187.496 158.651C187.641 118.431 212.436 87.8951 253.595 85.1028Z" fill="#00112B"/>
<path d="M254.433 100.613C288.757 98.557 316.202 115.976 320.546 151.54C322.535 167.825 315.577 187.326 305.474 200.031C295.702 212.32 282.865 217.374 267.827 219.105C238.9 222.14 206.985 205.515 203.038 174.5C204.637 172.434 203.779 169.193 203.482 166.804L202.642 158.576C200.892 126.161 222.316 102.068 254.433 100.613Z" fill="white"/>
<path d="M257.405 140.588L257.417 140.584C262.548 140.167 267.055 140.491 271.498 143.319C290.724 155.56 280.78 178.848 261.483 182.932L260.926 183.017C231.08 187.748 227.482 144.834 257.405 140.588Z" fill="#00112B"/>
<path d="M346.159 90.2677L353.36 83.3285C353.284 83.2505 353.208 83.1737 353.13 83.0981L346.159 90.2677ZM338.469 81.8247L346.783 76.2672C346.767 76.2439 346.751 76.2207 346.735 76.1975L338.469 81.8247ZM423.751 403.375L432.681 407.875L432.681 407.875L423.751 403.375ZM396.259 419.393L395.922 429.387C396.033 429.391 396.145 429.393 396.257 429.393L396.259 419.393ZM360.206 418.176L359.579 428.156C359.675 428.162 359.772 428.167 359.869 428.17L360.206 418.176ZM354.465 417.6L354.754 407.604C354.657 407.601 354.56 407.6 354.464 407.6L354.465 417.6ZM308.326 417.605L308.325 407.605C308.262 407.605 308.199 407.606 308.137 407.607L308.326 417.605ZM302 418.138L302.21 428.136C302.254 428.135 302.299 428.134 302.344 428.132L302 418.138ZM289.115 418.408L288.905 408.41C288.763 408.413 288.62 408.419 288.478 408.428L289.115 418.408ZM223.75 422.582L223.845 432.582C224.026 432.58 224.207 432.573 224.387 432.562L223.75 422.582ZM203.499 422.774L203.404 412.775C203.375 412.775 203.345 412.775 203.315 412.776L203.499 422.774ZM196.377 423.429L196.157 413.431C196.149 413.432 196.142 413.432 196.134 413.432L196.377 423.429ZM155.781 424.416L155.538 414.419C155.53 414.419 155.521 414.419 155.513 414.42L155.781 424.416ZM118.195 425.624L116.716 415.734L116.714 415.734L118.195 425.624ZM112.211 431.376L102.26 432.362L102.26 432.364L112.211 431.376ZM113.01 441.799L104.152 437.159L104.15 437.161L113.01 441.799ZM93.3631 450.379L88.835 459.295C89.1782 459.469 89.5312 459.624 89.8922 459.757L93.3631 450.379ZM166.68 383.835L165.97 373.86C165.914 373.864 165.858 373.869 165.802 373.874L166.68 383.835ZM192.875 381.971L193.585 391.946C193.629 391.943 193.674 391.939 193.718 391.935L192.875 381.971ZM207.507 380.202L212.993 371.841C211.351 370.764 209.428 370.194 207.463 370.202L207.507 380.202ZM212.651 385.735L204.792 391.918C204.868 392.015 204.946 392.111 205.026 392.205L212.651 385.735ZM217.86 391.874L210.235 398.344C210.329 398.455 210.426 398.564 210.525 398.671L217.86 391.874ZM110.75 456.814L107.279 466.192C107.415 466.243 107.552 466.29 107.691 466.335L110.75 456.814ZM194.767 475.752L193.075 485.608C193.188 485.627 193.301 485.645 193.414 485.66L194.767 475.752ZM257.668 484.341L256.315 494.249C256.483 494.272 256.651 494.291 256.819 494.305L257.668 484.341ZM281.069 486.335L280.22 496.299C280.501 496.323 280.783 496.335 281.066 496.335L281.069 486.335ZM318.457 486.348L318.454 496.348C318.656 496.348 318.858 496.342 319.06 496.33L318.457 486.348ZM336.466 485.261L337.069 495.243C337.114 495.24 337.159 495.237 337.204 495.234L336.466 485.261ZM149.784 208.255L140.517 212.012C140.568 212.139 140.622 212.264 140.678 212.389L149.784 208.255ZM172.487 258.267L163.381 262.401C163.492 262.644 163.612 262.882 163.741 263.115L172.487 258.267ZM203.893 314.922L195.147 319.77C195.227 319.915 195.311 320.058 195.398 320.198L203.893 314.922ZM222.486 344.856L213.991 350.132C214.019 350.176 214.046 350.22 214.074 350.264L222.486 344.856ZM256.084 383.871L265.151 379.653C263.818 376.788 261.209 374.721 258.115 374.079L256.084 383.871ZM256.104 383.914L247.037 388.132C248.186 390.602 250.294 392.497 252.872 393.377L256.104 383.914ZM294.743 356.419L302.813 362.325C302.817 362.319 302.822 362.313 302.826 362.306L294.743 356.419ZM334.396 301.976L342.479 307.863C342.561 307.751 342.641 307.636 342.719 307.52L334.396 301.976ZM341.854 290.508L350.508 295.519C352.034 292.884 352.276 289.696 351.165 286.861C350.054 284.025 347.712 281.85 344.801 280.952L341.854 290.508ZM341.452 290.384L332.011 293.681C333.059 296.68 335.469 299.004 338.505 299.94L341.452 290.384ZM354.714 269.07L347.153 262.526C346.942 262.769 346.744 263.022 346.558 263.284L354.714 269.07ZM348.377 279.25L339.758 274.18C339.186 275.151 338.783 276.212 338.566 277.318L348.377 279.25ZM349.127 278L358.403 281.735C360.104 277.512 358.737 272.673 355.078 269.964C351.42 267.254 346.393 267.358 342.849 270.216L349.127 278ZM376.344 235.751L383.918 242.281C386.878 238.847 387.158 233.853 384.601 230.11L376.344 235.751ZM371.559 240.275L376.943 248.702L376.944 248.701L371.559 240.275ZM366.279 245.461L375.741 248.697C375.758 248.647 375.775 248.597 375.791 248.547L366.279 245.461ZM363.977 252.192L373.323 255.748C373.364 255.642 373.402 255.535 373.439 255.428L363.977 252.192ZM363.514 93.8651L353.36 83.3285L338.958 97.2068L349.112 107.743L363.514 93.8651ZM353.13 83.0981C351.953 81.9536 351.052 81.1301 350.349 80.4924C349.597 79.81 349.3 79.5424 349.024 79.2663C348.721 78.9631 348.28 78.5078 346.783 76.2672L330.155 87.3821C331.93 90.0362 333.216 91.743 334.881 93.408C335.589 94.1159 336.336 94.7839 336.912 95.3059C337.537 95.8726 338.247 96.5223 339.188 97.4372L353.13 83.0981ZM346.735 76.1975L346.616 76.0227L330.084 87.277L330.203 87.4518L346.735 76.1975ZM418.206 393.16C418.03 393.531 417.754 393.994 417.103 395.009C416.561 395.854 415.62 397.29 414.821 398.875L432.681 407.875C432.919 407.402 433.237 406.9 433.938 405.806C434.531 404.882 435.484 403.405 436.284 401.713L418.206 393.16ZM414.821 398.875C412.665 403.152 411.323 405.688 410.195 407.386C409.163 408.939 408.819 408.987 409.018 408.878C409.122 408.822 408.733 409.107 406.518 409.264C404.185 409.429 401.187 409.394 396.261 409.393L396.257 429.393C400.637 429.394 404.677 429.444 407.93 429.214C411.3 428.976 415.044 428.386 418.643 426.41C422.336 424.382 424.851 421.468 426.854 418.453C428.761 415.582 430.631 411.943 432.681 407.875L414.821 398.875ZM396.596 409.399L360.543 408.182L359.869 428.17L395.922 429.387L396.596 409.399ZM360.833 408.196C360.271 408.16 359.704 408.085 358.611 407.945C357.654 407.822 356.265 407.648 354.754 407.604L354.176 427.596C354.605 427.608 355.124 427.661 356.071 427.783C356.882 427.887 358.215 428.071 359.579 428.156L360.833 408.196ZM354.464 407.6L308.325 407.605L308.327 427.605L354.466 427.6L354.464 407.6ZM308.137 407.607C306.545 407.637 305.051 407.808 304.041 407.923C302.886 408.053 302.248 408.124 301.656 408.144L302.344 428.132C303.874 428.08 305.342 427.903 306.291 427.796C307.385 427.672 307.993 427.613 308.515 427.603L308.137 407.607ZM301.79 408.14L288.905 408.41L289.324 428.406L302.21 428.136L301.79 408.14ZM288.478 408.428L223.113 412.602L224.387 432.562L289.752 428.388L288.478 408.428ZM223.655 412.583L203.404 412.775L203.594 432.774L223.845 432.582L223.655 412.583ZM203.315 412.776C201.482 412.809 199.767 413.038 198.668 413.18C197.397 413.343 196.743 413.419 196.157 413.431L196.597 433.427C198.42 433.387 200.129 433.156 201.217 433.017C202.477 432.855 203.119 432.783 203.683 432.772L203.315 412.776ZM196.134 413.432L155.538 414.419L156.024 434.413L196.62 433.426L196.134 413.432ZM155.513 414.42C149.797 414.573 143.808 414.444 136.841 414.498C130.23 414.549 123.138 414.773 116.716 415.734L119.674 435.514C124.631 434.773 130.55 434.548 136.996 434.498C143.087 434.451 150.202 434.569 156.049 434.412L155.513 414.42ZM116.714 415.734C115.676 415.89 114.137 416.102 112.847 416.391C111.602 416.67 109.174 417.294 106.915 419.072C101.301 423.493 102.051 430.256 102.26 432.362L122.162 430.39C122.064 429.4 122.183 429.647 122.036 430.404C121.943 430.879 121.732 431.643 121.242 432.508C120.73 433.413 120.05 434.186 119.287 434.786C117.947 435.842 116.786 436.004 117.22 435.907C117.608 435.82 118.158 435.741 119.676 435.514L116.714 415.734ZM102.26 432.364C102.324 433.005 102.474 434.069 102.583 434.865C102.714 435.816 102.854 436.863 102.97 437.873C103.09 438.922 103.16 439.735 103.179 440.254C103.189 440.527 103.176 440.512 103.191 440.308C103.2 440.203 103.226 439.904 103.311 439.487C103.381 439.148 103.586 438.24 104.152 437.159L121.868 446.439C122.97 444.336 123.099 442.286 123.133 441.837C123.199 440.981 123.188 440.161 123.165 439.525C123.118 438.226 122.978 436.807 122.84 435.598C122.697 434.351 122.53 433.116 122.398 432.15C122.329 431.648 122.274 431.249 122.228 430.907C122.206 430.741 122.189 430.612 122.177 430.512C122.164 430.404 122.16 430.372 122.162 430.388L102.26 432.364ZM104.15 437.161C104.644 436.218 105.191 435.61 105.488 435.311C105.799 434.997 106.034 434.826 106.095 434.783C106.195 434.712 106.063 434.815 105.539 435.07C104.496 435.577 102.942 436.188 100.916 436.911C98.5336 437.761 97.2555 438.166 94.7633 439.047C92.8966 439.706 90.5689 440.559 88.7417 441.511L97.9845 459.247C98.3851 459.038 99.4334 458.608 101.426 457.904C102.793 457.421 105.857 456.383 107.636 455.748C109.77 454.987 112.196 454.073 114.286 453.056C115.328 452.549 116.551 451.891 117.711 451.064C118.691 450.365 120.589 448.882 121.87 446.437L104.15 437.161ZM97.8912 441.463L72.2049 428.418L63.1487 446.25L88.835 459.295L97.8912 441.463ZM156.664 395.079C159.635 394.335 162.796 394.216 167.558 393.796L165.802 373.874C162.398 374.174 156.783 374.431 151.806 375.677L156.664 395.079ZM167.39 393.81L193.585 391.946L192.165 371.996L165.97 373.86L167.39 393.81ZM193.718 391.935C196.599 391.692 199.581 391.163 201.758 390.818C204.171 390.436 205.971 390.209 207.551 390.202L207.463 370.202C204.23 370.216 201.124 370.669 198.629 371.065C195.899 371.497 193.971 371.843 192.032 372.007L193.718 391.935ZM202.021 388.563C201.969 388.529 202.175 388.655 202.71 389.277C202.966 389.575 203.247 389.925 203.601 390.38C203.876 390.735 204.408 391.431 204.792 391.918L220.51 379.552C219.653 378.462 216.836 374.363 212.993 371.841L202.021 388.563ZM205.026 392.205L210.235 398.344L225.485 385.404L220.276 379.265L205.026 392.205ZM210.525 398.671C215.442 403.977 220.991 409.052 226.68 413.48L238.964 397.698C234.113 393.922 229.364 389.576 225.195 385.077L210.525 398.671ZM89.8922 459.757L107.279 466.192L114.221 447.436L96.8341 441.001L89.8922 459.757ZM107.691 466.335C135.707 475.337 164.858 480.764 193.075 485.608L196.459 465.896C168.28 461.059 140.359 455.825 113.809 447.294L107.691 466.335ZM193.414 485.66L256.315 494.249L259.021 474.433L196.12 465.844L193.414 485.66ZM256.819 494.305L280.22 496.299L281.918 476.371L258.517 474.377L256.819 494.305ZM281.066 496.335L318.454 496.348L318.46 476.348L281.072 476.335L281.066 496.335ZM319.06 496.33L337.069 495.243L335.863 475.279L317.854 476.366L319.06 496.33ZM337.204 495.234C357.672 493.718 391.681 489.462 422.484 480.21C437.871 475.589 452.917 469.588 465.168 461.762C477.332 453.991 487.753 443.764 492.043 430.324L472.991 424.242C470.693 431.437 464.583 438.402 454.401 444.907C444.306 451.356 431.191 456.713 416.731 461.056C387.841 469.733 355.413 473.831 335.728 475.288L337.204 495.234ZM133.64 194.426C135.548 200.704 138.566 207.2 140.517 212.012L159.051 204.498C156.52 198.254 154.338 193.75 152.776 188.61L133.64 194.426ZM140.678 212.389L163.381 262.401L181.593 254.133L158.89 204.122L140.678 212.389ZM163.741 263.115L195.147 319.77L212.639 310.074L181.233 253.419L163.741 263.115ZM195.398 320.198L213.991 350.132L230.981 339.58L212.388 309.646L195.398 320.198ZM214.074 350.264C216.905 354.668 222.714 364.42 229.122 373.027C232.357 377.371 236.006 381.792 239.844 385.387C243.452 388.767 248.318 392.473 254.053 393.663L258.115 374.079C258.135 374.084 257.708 373.988 256.798 373.415C255.911 372.858 254.811 372.003 253.517 370.791C250.907 368.346 248.064 364.977 245.164 361.082C239.302 353.21 234.268 344.69 230.898 339.448L214.074 350.264ZM247.017 388.089L247.037 388.132L265.171 379.696L265.151 379.653L247.017 388.089ZM252.872 393.377C266.798 398.134 278.238 390.873 285.62 383.834C292.961 376.836 299.183 367.284 302.813 362.325L286.673 350.513C282.021 356.87 277.46 363.981 271.819 369.359C266.221 374.697 262.482 375.525 259.336 374.451L252.872 393.377ZM302.826 362.306L342.479 307.863L326.313 296.089L286.66 350.532L302.826 362.306ZM342.719 307.52C345.02 304.065 348.021 299.813 350.508 295.519L333.2 285.497C331.133 289.067 328.812 292.321 326.073 296.432L342.719 307.52ZM344.801 280.952L344.399 280.828L338.505 299.94L338.907 300.064L344.801 280.952ZM350.893 287.087C351.618 289.163 351.115 290.657 351.094 290.723C351.041 290.885 351.096 290.664 351.503 290.038C351.874 289.467 352.371 288.813 352.943 288.137C353.506 287.472 354.065 286.874 354.512 286.419L340.248 272.4C338.878 273.794 336.589 276.284 334.733 279.14C333.81 280.56 332.753 282.435 332.06 284.583C331.398 286.634 330.727 290.003 332.011 293.681L350.893 287.087ZM355.536 285.195L362.87 274.856L346.558 263.284L339.224 273.623L355.536 285.195ZM347.222 275.693L347.854 276.408L362.839 263.162L362.206 262.447L347.222 275.693ZM357.917 282.559L358.189 281.183L338.566 277.318L338.294 278.694L357.917 282.559ZM356.996 284.32C356.909 284.469 356.842 284.567 356.843 284.565C356.85 284.555 356.855 284.547 356.9 284.483C356.933 284.434 356.999 284.34 357.071 284.232C357.411 283.726 357.94 282.887 358.403 281.735L339.851 274.265C339.906 274.127 339.967 273.989 340.032 273.854C340.097 273.719 340.162 273.595 340.225 273.482C340.349 273.259 340.452 273.105 340.476 273.07C340.482 273.061 340.484 273.058 340.48 273.064C340.475 273.07 340.469 273.08 340.454 273.101C340.443 273.117 340.419 273.152 340.398 273.182C340.375 273.216 340.346 273.258 340.313 273.306C340.182 273.499 339.98 273.802 339.758 274.18L356.996 284.32ZM342.849 270.216L341.102 271.625L353.658 287.193L355.405 285.784L342.849 270.216ZM363.136 234.145L368.087 241.392L384.601 230.11L379.65 222.863L363.136 234.145ZM368.77 229.222C367.288 230.941 366.631 231.557 366.174 231.849L376.944 248.701C380.183 246.632 382.562 243.854 383.918 242.281L368.77 229.222ZM366.175 231.848C365.855 232.052 365.717 232.107 365.619 232.147C365.565 232.169 365.503 232.193 365.389 232.238C365.301 232.272 365.107 232.348 364.918 232.424C364.547 232.576 363.775 232.898 362.917 233.422C360.751 234.744 359.357 236.508 358.424 238.253C357.687 239.632 357.165 241.15 356.767 242.375L375.791 248.547C375.955 248.04 376.064 247.736 376.132 247.56C376.203 247.374 376.181 247.459 376.06 247.685C375.93 247.928 375.636 248.43 375.122 249.005C374.863 249.295 374.571 249.577 374.25 249.842C373.93 250.106 373.62 250.321 373.338 250.492C373.063 250.66 372.833 250.777 372.685 250.847C372.611 250.883 372.552 250.908 372.516 250.924C372.498 250.932 372.483 250.938 372.474 250.942C372.47 250.944 372.466 250.945 372.464 250.946C372.463 250.947 372.462 250.947 372.461 250.947C372.461 250.948 372.461 250.948 372.461 250.948C372.461 250.948 372.461 250.948 372.461 250.947C372.462 250.947 372.463 250.947 372.464 250.946C372.466 250.945 372.469 250.944 372.474 250.942C372.483 250.939 372.495 250.934 372.513 250.927C372.553 250.911 372.592 250.896 372.662 250.869C372.787 250.82 372.98 250.744 373.199 250.655C373.658 250.467 374.224 250.22 374.878 249.887C375.528 249.557 376.213 249.168 376.943 248.702L366.175 231.848ZM356.817 242.225L354.515 248.956L373.439 255.428L375.741 248.697L356.817 242.225ZM354.631 248.636C352.611 253.945 349.938 259.307 347.153 262.526L362.276 275.614C367.388 269.707 371.057 261.704 373.323 255.748L354.631 248.636ZM335.66 69.6251L336.923 49.665C326.742 49.0209 317.708 56.1423 315.957 66.1921L335.66 69.6251ZM344.875 79.6893L336.788 97.9815C343.583 100.985 351.482 99.9755 357.303 95.3594C363.123 90.7433 365.905 83.2815 364.528 75.9815L344.875 79.6893ZM335.555 70.2278L315.852 66.7948C314.694 73.4381 316.963 80.2175 321.885 84.8266L335.555 70.2278ZM340.269 81.2254L348.833 63.1518C344.819 61.2497 340.286 60.7381 335.949 61.6974L340.269 81.2254ZM358.944 100.94L376.617 91.5772L376.612 91.5681L358.944 100.94ZM360.363 103.949L346.683 118.539C352.885 124.354 362.085 125.613 369.621 121.678C377.157 117.742 381.381 109.473 380.153 101.06L360.363 103.949ZM356.88 100.599L362.718 81.4698C358.576 80.2058 354.136 80.3201 350.065 81.7955L356.88 100.599ZM356.313 100.804L349.498 82.001C343.422 84.2034 338.784 89.2068 337.048 95.433C335.312 101.659 336.692 108.34 340.753 113.369L356.313 100.804ZM338.35 81.6499L324.262 95.8456C329.091 100.639 336.026 102.647 342.67 101.178L338.35 81.6499ZM324.302 378.441L328.521 358.891C321.677 357.414 314.559 359.624 309.755 364.716L324.302 378.441ZM324.566 378.498L328.976 358.99C328.913 358.976 328.849 358.962 328.785 358.948L324.566 378.498ZM329.694 379.051L330.65 359.074C327.428 358.92 324.216 359.547 321.289 360.903L329.694 379.051ZM352.607 380.147L353.905 360.189C353.791 360.182 353.677 360.175 353.563 360.17L352.607 380.147ZM397.672 389.144L403.072 369.887C403.01 369.869 402.947 369.852 402.885 369.835L397.672 389.144ZM427.245 397.436L421.845 416.693C422.359 416.837 422.879 416.961 423.403 417.064L427.245 397.436ZM67.6768 437.334L60.4083 455.967C67.3363 458.669 75.1918 457.305 80.8027 452.424C86.4136 447.544 88.8533 439.953 87.1367 432.717L67.6768 437.334ZM66.7672 433.5L86.2271 428.883C86.2241 428.871 86.2211 428.858 86.218 428.845L66.7672 433.5ZM68.5497 413.087L55.1566 398.234C54.9785 398.394 54.8032 398.558 54.6309 398.725L68.5497 413.087ZM72.733 409.315L59.5835 394.246C59.5017 394.317 59.4205 394.389 59.3399 394.462L72.733 409.315ZM154.235 385.378L173.934 388.837C175.057 382.441 173.005 375.899 168.431 371.29C163.857 366.681 157.33 364.579 150.926 365.654L154.235 385.378ZM232.822 405.589L242.44 388.053C236.875 385.001 230.192 384.772 224.431 387.434L232.822 405.589ZM286.802 412.396L294.956 430.659L294.956 430.658L286.802 412.396ZM313.992 389.369L299.445 375.644C299.417 375.673 299.39 375.702 299.363 375.731L313.992 389.369ZM226.299 405.816L228.939 385.991C228.735 385.964 228.531 385.94 228.326 385.919L226.299 405.816ZM207.157 403.866L209.184 383.969C209.052 383.956 208.92 383.943 208.787 383.933L207.157 403.866ZM168.325 404.6L170.073 424.524C170.156 424.516 170.239 424.508 170.322 424.5L168.325 404.6ZM159.25 405.396L160.064 425.38C160.375 425.367 160.687 425.347 160.998 425.32L159.25 405.396ZM153.34 403.829L170.32 393.261L170.319 393.259L153.34 403.829ZM154.189 385.64L173.757 389.774C173.805 389.55 173.848 389.324 173.888 389.099L154.189 385.64ZM482.517 427.283L480.885 447.216C490.358 447.992 499.068 441.994 501.722 432.867L482.517 427.283ZM429.687 377.644L435.225 358.426C434.956 358.349 434.686 358.277 434.414 358.211L429.687 377.644ZM401.053 370.679L405.78 351.246C405.6 351.202 405.419 351.161 405.238 351.122L401.053 370.679ZM380.746 362.375L399.73 356.081C399.698 355.985 399.665 355.888 399.632 355.792L380.746 362.375ZM380.609 361.982L361.575 368.121C361.622 368.27 361.672 368.418 361.723 368.565L380.609 361.982ZM387.214 349.602L381.711 330.374L381.709 330.375L387.214 349.602ZM396.961 350.205L400.759 330.569C400.516 330.522 400.272 330.479 400.028 330.442L396.961 350.205ZM418.759 354.421L422.903 334.855C422.788 334.831 422.672 334.807 422.557 334.785L418.759 354.421ZM497.139 398.617L514.651 388.956C514.489 388.663 514.32 388.373 514.143 388.088L497.139 398.617ZM497.849 399.904L515.571 390.635C515.503 390.504 515.433 390.373 515.361 390.243L497.849 399.904ZM501.442 433.745L482.3 427.95L482.3 427.951L501.442 433.745ZM390.25 495.003L392.693 514.853C392.98 514.818 393.266 514.776 393.551 514.729L390.25 495.003ZM325.875 502.927L327.505 522.861C327.777 522.838 328.048 522.811 328.318 522.777L325.875 502.927ZM319.014 503.565L319.009 523.565C319.275 523.565 319.541 523.56 319.808 523.549L319.014 503.565ZM267.084 503.551L265.595 523.496C266.089 523.532 266.584 523.551 267.079 523.551L267.084 503.551ZM223.569 500.303L220.86 520.119C221.266 520.174 221.672 520.217 222.08 520.248L223.569 500.303ZM160.875 491.733L157.164 511.386C157.497 511.449 157.831 511.503 158.166 511.549L160.875 491.733ZM53.1127 451.632L64.3045 435.057L64.3044 435.057L53.1127 451.632ZM39.0104 379.827L26.8951 363.914H26.8951L39.0104 379.827ZM68.0318 363.592L61.3936 344.726C61.0973 344.83 60.8034 344.941 60.5124 345.059L68.0318 363.592ZM87.0992 356.883L80.7636 337.913C80.6624 337.947 80.5616 337.981 80.461 338.017L87.0992 356.883ZM105.625 351L101.978 331.335C101.565 331.412 101.155 331.502 100.747 331.604L105.625 351ZM107 350.745L104.223 330.939C103.932 330.98 103.642 331.027 103.353 331.08L107 350.745ZM112.508 369.281L105.189 350.668L105.188 350.669L112.508 369.281ZM82.6211 377.631L75.5502 358.923L75.5474 358.924L82.6211 377.631ZM39.9402 412.5L58.4659 404.964C58.4527 404.931 58.4395 404.899 58.4261 404.866L39.9402 412.5ZM40.0956 412.882L21.5699 420.419C21.5964 420.484 21.6231 420.548 21.6502 420.613L40.0956 412.882ZM67.3717 437.215L59.8808 455.759C59.9548 455.789 60.0289 455.819 60.1032 455.848L67.3717 437.215ZM355.346 269.785L338.947 258.337C338.868 258.449 338.79 258.563 338.714 258.678L355.346 269.785ZM361.783 263.131L354.534 244.491C354.442 244.527 354.35 244.563 354.258 244.601L361.783 263.131ZM362.125 262.998L369.374 281.638C369.417 281.621 369.46 281.604 369.503 281.587L362.125 262.998ZM375.679 272.089L355.722 270.771L355.722 270.773L375.679 272.089ZM373.003 279.25L390.21 289.445C390.386 289.147 390.554 288.846 390.714 288.54L373.003 279.25ZM354.031 311.272L370.549 322.548C370.79 322.195 371.02 321.834 371.238 321.467L354.031 311.272ZM309.248 376.875L325.22 388.912C325.408 388.662 325.59 388.409 325.766 388.151L309.248 376.875ZM260.529 406.718L259.54 426.694L259.54 426.694L260.529 406.718ZM207.237 366.659L223.264 354.695L223.264 354.695L207.237 366.659ZM157.591 285.244L175.353 276.05L175.353 276.05L157.591 285.244ZM121.309 136.811L140.996 140.337L140.996 140.337L121.309 136.811ZM257.941 20.7825L256.983 0.805405L256.983 0.805408L257.941 20.7825ZM371.256 67.426L387.384 55.5983C386.975 55.041 386.538 54.5053 386.074 53.9933L371.256 67.426ZM396.392 113.492L415.115 106.459L415.114 106.456L396.392 113.492ZM398.636 119.422L417.758 113.561C415.573 106.431 409.603 101.11 402.27 99.755L398.636 119.422ZM402.916 133.385L422.27 128.344C422.199 128.069 422.121 127.796 422.038 127.524L402.916 133.385ZM406.69 186.088L426.588 188.109L426.588 188.107L406.69 186.088ZM403.375 202.377L420.139 213.284C420.507 212.718 420.846 212.135 421.155 211.536L403.375 202.377ZM402.377 203.911L418.667 215.514C418.83 215.285 418.988 215.053 419.141 214.818L402.377 203.911ZM396.5 207.999L390.67 188.868C390.566 188.899 390.463 188.932 390.359 188.965L396.5 207.999ZM396.252 208.079L402.025 227.228C402.148 227.191 402.27 227.152 402.393 227.113L396.252 208.079ZM391.957 208.076L396.664 188.638C396.518 188.603 396.372 188.569 396.226 188.537L391.957 208.076ZM391.664 208.012L387.13 227.491C387.218 227.512 387.307 227.532 387.395 227.551L391.664 208.012ZM383.67 182.011L403.595 183.742L403.595 183.742L383.67 182.011ZM330.625 54.7496L341.785 38.1524V38.1524L330.625 54.7496ZM191.374 57.4L180.938 40.3383L180.938 40.3384L191.374 57.4ZM141.563 126.265L161.025 130.874L161.025 130.874L141.563 126.265ZM143.208 191.518L124.941 199.662C128.756 208.22 138.002 212.982 147.185 211.119C156.368 209.256 163.026 201.267 163.204 191.899L143.208 191.518ZM348.106 280.626L331.474 269.519C331.382 269.656 331.293 269.794 331.204 269.933L348.106 280.626ZM439.97 399.927L444.523 380.452C444.287 380.397 444.05 380.346 443.812 380.3L439.97 399.927ZM479.714 422.875L460.441 428.22L460.442 428.224L479.714 422.875ZM481.125 427.169L464.209 437.839C467.564 443.158 473.225 446.589 479.493 447.102L481.125 427.169ZM331.427 457.248L332.455 477.222C332.962 477.196 333.468 477.15 333.972 477.086L331.427 457.248ZM313.325 459.426L310.612 439.611C300.264 441.028 292.749 450.168 293.359 460.595C293.969 471.021 302.499 479.222 312.942 479.422L313.325 459.426ZM332.568 458.921L336.502 439.312C334.069 438.824 331.566 438.793 329.121 439.22L332.568 458.921ZM337.5 458.344L339.801 478.211C339.885 478.201 339.97 478.191 340.054 478.18L337.5 458.344ZM361.421 455.264L359.131 435.396C359.043 435.406 358.955 435.416 358.867 435.428L361.421 455.264ZM370.692 454.744L372.047 474.698C372.264 474.683 372.479 474.665 372.695 474.643L370.692 454.744ZM412.566 450.529L414.569 470.428C414.891 470.396 415.212 470.356 415.532 470.308L412.566 450.529ZM452.259 442.635L457.252 462.002C457.381 461.969 457.509 461.934 457.636 461.899L452.259 442.635ZM463.744 439.429L469.121 458.693C469.312 458.639 469.502 458.583 469.691 458.524L463.744 439.429ZM476.312 427.909L495.501 433.547C497.44 426.949 495.852 419.817 491.298 414.664C486.743 409.511 479.861 407.06 473.075 408.173L476.312 427.909ZM460.944 433.333L467.666 452.17L467.671 452.168L460.944 433.333ZM436.358 440.473L439.387 460.242C439.823 460.176 440.257 460.094 440.687 459.999L436.358 440.473ZM384.407 448.433L386.933 468.273C387.101 468.251 387.269 468.228 387.436 468.202L384.407 448.433ZM367.5 450.223L370.823 469.945L370.832 469.943L367.5 450.223ZM358.125 453.977L350.641 435.43L350.634 435.433L358.125 453.977ZM346.644 455.296L344.596 435.401C344.43 435.418 344.265 435.437 344.099 435.459L346.644 455.296ZM356.294 428.816L353.894 408.961C353.35 409.026 352.81 409.114 352.274 409.224L356.294 428.816ZM357.75 428.64L356.552 408.676C356.15 408.7 355.749 408.736 355.35 408.785L357.75 428.64ZM367.235 439.125L347.242 438.597V438.597L367.235 439.125ZM346.058 452.091L348.208 471.975C348.368 471.958 348.528 471.939 348.688 471.917L346.058 452.091ZM308.848 456.114L310.922 476.006C310.947 476.004 310.973 476.001 310.998 475.998L308.848 456.114ZM247.117 462.046L246.331 482.031C246.677 482.044 247.024 482.049 247.371 482.044L247.117 462.046ZM243.625 441.55L248.742 460.884L248.742 460.884L243.625 441.55ZM254.421 440.432L255.825 460.383C256.024 460.369 256.223 460.352 256.422 460.332L254.421 440.432ZM324.788 433.356L326.789 453.256C326.94 453.241 327.09 453.224 327.241 453.205L324.788 433.356ZM143.333 171.869L123.373 170.6L123.373 170.6L143.333 171.869ZM217.009 65.8171L209.378 47.3302L209.378 47.3302L217.009 65.8171ZM335.982 79.2998L350.07 65.104C349.772 64.8084 349.465 64.5222 349.149 64.2459L335.982 79.2998ZM374.232 185.735L355.522 178.669L355.521 178.672L374.232 185.735ZM369.103 198.242L350.17 191.797C347.757 198.887 349.506 206.73 354.703 212.122L369.103 198.242ZM371.504 222.579L354.146 212.645L354.145 212.646L371.504 222.579ZM371.393 228.504L357.312 242.707C364.207 249.543 375.015 250.439 382.942 244.833C390.869 239.226 393.624 228.736 389.475 219.958L371.393 228.504ZM256.418 383.558L270.094 398.152C275.623 392.971 277.749 385.11 275.586 377.848C273.422 370.586 267.341 365.17 259.878 363.86L256.418 383.558ZM248.553 378.928L235.276 363.971C229.21 369.355 226.997 377.87 229.673 385.527L248.553 378.928ZM254.774 373.406L243.029 357.218C242.498 357.603 241.987 358.014 241.497 358.449L254.774 373.406ZM274.541 350.228L258.523 338.252C258.473 338.318 258.424 338.385 258.376 338.452L274.541 350.228ZM307.247 306.483L323.265 318.459C323.307 318.403 323.349 318.346 323.39 318.29L307.247 306.483ZM357.059 238.375L373.202 250.182C373.274 250.083 373.346 249.984 373.416 249.884L357.059 238.375ZM366.875 225.266L372.376 206.037C365.689 204.125 358.49 205.823 353.362 210.521L366.875 225.266ZM367.256 225.375L361.755 244.604C362.258 244.747 362.765 244.871 363.278 244.975L367.256 225.375ZM369.289 226.418L353.758 239.019C354.212 239.579 354.696 240.113 355.208 240.621L369.289 226.418ZM253.595 85.1028L252.955 65.113C252.717 65.1206 252.479 65.1325 252.241 65.1486L253.595 85.1028ZM336.84 140.028L317.927 146.531L317.927 146.531L336.84 140.028ZM300.403 233.397L291.379 215.549L291.378 215.549L300.403 233.397ZM273.061 240.96L271.228 221.044C271.173 221.049 271.118 221.055 271.062 221.06L273.061 240.96ZM196.694 198.659L215.035 190.684L215.035 190.683L196.694 198.659ZM190.378 178.854L174.892 166.198C170.707 171.319 169.324 178.178 171.198 184.521L190.378 178.854ZM193.702 175.64L207.042 190.541C211.794 186.288 214.232 180.022 213.605 173.676C212.979 167.329 209.363 161.661 203.871 158.418L193.702 175.64ZM187.496 158.651L207.496 158.724V158.723L187.496 158.651ZM254.433 100.613L255.338 120.592C255.435 120.588 255.532 120.583 255.629 120.577L254.433 100.613ZM320.546 151.54L340.398 149.115L340.398 149.115L320.546 151.54ZM305.474 200.031L289.82 187.583L289.82 187.583L305.474 200.031ZM267.827 219.105L269.914 238.996C269.981 238.989 270.047 238.982 270.114 238.974L267.827 219.105ZM203.038 174.5L187.222 162.259C183.976 166.453 182.529 171.764 183.198 177.025L203.038 174.5ZM203.482 166.804L183.585 168.835C183.6 168.981 183.617 169.126 183.635 169.271L203.482 166.804ZM202.642 158.576L182.671 159.654C182.688 159.972 182.713 160.29 182.745 160.607L202.642 158.576ZM257.405 140.588L260.215 160.39C261.406 160.221 262.58 159.944 263.722 159.564L257.405 140.588ZM257.417 140.584L255.797 120.65C254.198 120.78 252.621 121.101 251.1 121.608L257.417 140.584ZM271.498 143.319L282.239 126.448L282.237 126.447L271.498 143.319ZM261.483 182.932L264.5 202.703C264.876 202.646 265.251 202.578 265.624 202.499L261.483 182.932ZM260.926 183.017L257.909 163.246C257.871 163.252 257.833 163.258 257.795 163.264L260.926 183.017ZM334.397 89.5852C331.685 89.4136 329.715 88.6585 328.73 88.2156C327.677 87.7416 326.993 87.2795 326.695 87.0663C326.128 86.6605 326.024 86.4825 326.23 86.715C326.4 86.9074 326.479 87.0417 326.429 86.9586C326.397 86.9051 326.248 86.6507 326.052 86.1963C325.882 85.8003 325.492 84.8275 325.222 83.397L364.528 75.9815C363.74 71.8037 361.95 68.428 360.791 66.4821C359.447 64.2265 357.853 62.0932 356.194 60.2166C354.57 58.3801 352.478 56.3317 349.988 54.5477C348.044 53.1555 343.362 50.0723 336.923 49.665L334.397 89.5852ZM352.962 61.397C353.906 61.8145 354.636 62.2262 355.085 62.4939C355.56 62.7773 355.941 63.0325 356.206 63.2167C356.722 63.5748 357.103 63.8781 357.294 64.0334C357.677 64.345 357.92 64.5714 357.94 64.5891C358.006 64.6505 357.921 64.5739 357.613 64.2638C357.032 63.6777 356.213 62.8243 355.208 61.7695C354.267 60.7821 353.155 59.6082 352.196 58.6112C351.328 57.7074 350.179 56.5224 349.225 55.6289L321.885 84.8266C321.857 84.8005 321.97 84.9073 322.286 85.2272C322.574 85.5183 322.932 85.8873 323.36 86.3319C324.234 87.2414 325.196 88.2567 326.244 89.3575C327.229 90.3911 328.314 91.5251 329.224 92.4422C329.662 92.8836 330.22 93.4375 330.786 93.9603C331.054 94.2086 331.511 94.6235 332.067 95.0753C332.344 95.3007 332.801 95.662 333.382 96.0653C333.808 96.3618 335.049 97.2126 336.788 97.9815L352.962 61.397ZM355.258 73.6607L355.363 73.058L315.957 66.1921L315.852 66.7948L355.258 73.6607ZM331.705 99.2989C335.49 101.092 337.353 102.917 341.276 110.312L376.612 91.5681C371.037 81.0569 364.002 70.3396 348.833 63.1518L331.705 99.2989ZM341.271 110.303C341.567 110.861 341.897 111.433 341.967 111.555C342.115 111.814 342.115 111.818 342.084 111.759C342.058 111.711 341.852 111.324 341.607 110.716C341.477 110.395 341.299 109.923 341.12 109.326C340.945 108.74 340.727 107.892 340.573 106.839L380.153 101.06C379.8 98.6411 379.104 96.7446 378.688 95.7163C378.232 94.5885 377.761 93.6589 377.451 93.0733C377.136 92.4768 376.833 91.9479 376.695 91.7058C376.478 91.3272 376.539 91.4291 376.617 91.5772L341.271 110.303ZM374.043 89.3599C374.554 89.8389 374.855 90.1935 374.426 89.7206C374.246 89.5231 373.721 88.9382 373.237 88.4221C372.771 87.9251 371.925 87.0386 370.908 86.1399C370.395 85.687 369.581 84.9998 368.54 84.2867C367.694 83.7072 365.635 82.36 362.718 81.4698L351.042 119.728C349.564 119.277 348.422 118.734 347.689 118.346C346.929 117.943 346.335 117.561 345.933 117.285C345.157 116.754 344.632 116.3 344.426 116.118C344.02 115.76 343.851 115.562 344.058 115.782C344.246 115.983 344.389 116.144 344.805 116.602C344.971 116.785 345.213 117.05 345.472 117.326C345.699 117.567 346.14 118.03 346.683 118.539L374.043 89.3599ZM350.065 81.7955L349.498 82.001L363.128 119.607L363.695 119.402L350.065 81.7955ZM342.67 101.178L344.589 100.753L335.949 61.6974L334.03 62.1219L342.67 101.178ZM320.083 397.991L320.347 398.048L328.785 358.948L328.521 358.891L320.083 397.991ZM320.156 398.006C319.299 397.812 318.712 397.579 318.943 397.665C319.068 397.711 319.004 397.688 319.221 397.768C319.352 397.817 319.554 397.892 319.786 397.974C320.239 398.135 320.973 398.386 321.867 398.626C323.765 399.137 326.429 399.617 329.623 399.399C332.819 399.181 335.664 398.327 338.099 397.199L321.289 360.903C322.653 360.271 324.566 359.651 326.905 359.492C329.242 359.332 331.125 359.695 332.253 359.998C332.762 360.135 333.113 360.26 333.18 360.284C333.218 360.297 333.225 360.3 333.16 360.276C333.126 360.263 333.094 360.251 333.035 360.229C332.984 360.21 332.914 360.184 332.839 360.156C332.259 359.941 330.811 359.405 328.976 358.99L320.156 398.006ZM328.738 399.028L351.651 400.124L353.563 360.17L330.65 359.074L328.738 399.028ZM351.309 400.105C365.768 401.045 375.786 403.951 392.459 408.453L402.885 369.835C387.002 365.547 373.052 361.435 353.905 360.189L351.309 400.105ZM392.272 408.401L421.845 416.693L432.645 378.179L403.072 369.887L392.272 408.401ZM87.1367 432.717L86.2271 428.883L47.3074 438.117L48.217 441.951L87.1367 432.717ZM86.218 428.845C86.2476 428.969 86.2166 428.859 86.1585 428.479C86.1048 428.127 86.0449 427.655 85.9923 427.092C85.8845 425.935 85.834 424.673 85.8659 423.542C85.8815 422.988 85.9146 422.546 85.9516 422.222C85.9901 421.884 86.0195 421.792 85.9921 421.905C85.9722 421.986 85.8334 422.551 85.4291 423.401C85.0393 424.221 84.168 425.802 82.4685 427.449L54.6309 398.725C49.6807 403.522 47.8802 409.355 47.1305 412.43C46.2583 416.007 45.9625 419.547 45.8817 422.416C45.725 427.982 46.3156 433.972 47.3164 438.155L86.218 428.845ZM81.9428 427.941L86.1261 424.169L59.3399 394.462L55.1566 398.234L81.9428 427.941ZM85.8826 424.385C91.9635 419.078 102.009 415.028 115.875 411.937C130.089 408.769 143.183 407.512 157.544 405.102L150.926 365.654C140.162 367.459 122.454 369.489 107.172 372.895C91.5424 376.379 73.3995 382.19 59.5835 394.246L85.8826 424.385ZM223.204 423.125C232.398 428.167 243.992 432.463 256.002 434.451C267.78 436.4 281.98 436.452 294.956 430.659L278.648 394.134C275.475 395.55 270.033 396.229 262.533 394.988C255.265 393.785 247.943 391.072 242.44 388.053L223.204 423.125ZM294.956 430.658C310.121 423.887 321.896 410.22 328.621 403.007L299.363 375.731C290.454 385.288 284.705 391.429 278.648 394.134L294.956 430.658ZM328.539 403.094L338.849 392.166L309.755 364.716L299.445 375.644L328.539 403.094ZM224.431 387.434C225.536 386.923 226.481 386.632 227.131 386.463C227.794 386.291 228.326 386.202 228.674 386.155C229.334 386.065 229.727 386.071 229.736 386.071C229.782 386.071 229.714 386.072 229.524 386.056C229.345 386.041 229.144 386.018 228.939 385.991L223.659 425.641C224.929 425.81 227.094 426.057 229.504 426.07C231.135 426.08 236.141 426.088 241.213 423.744L224.431 387.434ZM228.326 385.919L209.184 383.969L205.13 423.763L224.272 425.713L228.326 385.919ZM208.787 383.933C192.502 382.601 181.69 383.159 166.328 384.7L170.322 424.5C184.18 423.11 192.422 422.728 205.527 423.799L208.787 383.933ZM166.577 384.677L157.502 385.473L160.998 425.32L170.073 424.524L166.577 384.677ZM158.436 385.413C157.9 385.434 157.405 385.467 157.148 385.483C156.819 385.504 156.743 385.508 156.693 385.511C156.548 385.517 157.356 385.462 158.552 385.617C159.839 385.784 162.022 386.246 164.431 387.62C166.98 389.074 168.967 391.088 170.32 393.261L136.36 414.397C138.38 417.643 141.167 420.399 144.607 422.362C147.908 424.246 151.075 424.982 153.4 425.284C155.633 425.574 157.532 425.513 158.491 425.47C158.993 425.448 159.473 425.416 159.698 425.402C159.837 425.393 159.92 425.388 159.989 425.384C160.053 425.38 160.073 425.379 160.064 425.38L158.436 385.413ZM170.319 393.259C170.197 393.064 170.714 393.84 170.983 395.402C171.268 397.059 171.069 398.403 170.94 398.976C170.895 399.175 170.879 399.182 170.992 398.845C171.127 398.437 171.265 398.063 171.588 397.162C172.146 395.605 173.082 392.97 173.757 389.774L134.621 381.506C134.545 381.865 134.41 382.335 133.932 383.671C133.594 384.613 132.567 387.316 131.927 390.145C131.183 393.43 130.759 397.515 131.562 402.181C132.348 406.753 134.126 410.808 136.361 414.399L170.319 393.259ZM173.888 389.099L173.934 388.837L134.536 381.919L134.49 382.181L173.888 389.099ZM501.722 432.867C509.411 406.421 491.842 387.757 478.145 378.065C463.79 367.907 446.13 361.568 435.225 358.426L424.149 396.862C433.282 399.494 446.006 404.325 455.041 410.717C464.734 417.577 463.561 420.845 463.312 421.699L501.722 432.867ZM434.414 358.211L405.78 351.246L396.326 390.112L424.96 397.077L434.414 358.211ZM405.238 351.122C403.936 350.843 402.653 350.634 401.651 350.479C400.8 350.348 399.405 350.146 398.724 350.043C396.834 349.759 395.573 349.529 394.63 349.282C393.582 349.008 393.938 348.963 394.894 349.579C396.07 350.337 398.496 352.36 399.73 356.081L361.762 368.669C366.46 382.838 380.047 386.813 384.507 387.98C387.628 388.796 390.654 389.279 392.763 389.597C395.391 389.993 396.206 390.095 396.868 390.236L405.238 351.122ZM399.632 355.792L399.495 355.399L361.723 368.565L361.86 368.958L399.632 355.792ZM399.643 355.843C401.401 361.292 398.226 367.253 392.719 368.829L381.709 330.375C365.466 335.025 356.395 352.062 361.575 368.121L399.643 355.843ZM392.717 368.83C391.454 369.191 390.499 369.252 390.07 369.263C389.643 369.273 389.482 369.239 389.727 369.268C389.976 369.298 390.358 369.356 391.097 369.486C391.274 369.518 391.454 369.55 391.66 369.587C391.858 369.623 392.084 369.663 392.311 369.703C392.762 369.783 393.311 369.878 393.894 369.969L400.028 330.442C399.549 330.367 399.165 330.293 398.065 330.098C397.159 329.938 395.854 329.714 394.42 329.544C391.816 329.237 387.009 328.858 381.711 330.374L392.717 368.83ZM393.163 369.841L414.961 374.057L422.557 334.785L400.759 330.569L393.163 369.841ZM414.615 373.987C426.823 376.573 440.872 380.963 453.288 387.253C465.944 393.664 475.204 401.184 480.135 409.146L514.143 388.088C503.804 371.391 487.346 359.666 471.364 351.57C455.144 343.353 437.638 337.976 422.903 334.855L414.615 373.987ZM479.627 408.278L480.337 409.565L515.361 390.243L514.651 388.956L479.627 408.278ZM480.127 409.173C483.645 415.9 484.22 421.607 482.3 427.95L520.584 439.54C525.846 422.16 523.433 405.666 515.571 390.635L480.127 409.173ZM482.3 427.951C478.194 441.516 466.54 451.837 447.657 459.868C428.831 467.876 406.536 471.999 386.949 475.277L393.551 514.729C412.856 511.498 439.563 506.778 463.313 496.677C487.006 486.6 511.502 469.546 520.584 439.539L482.3 427.951ZM387.807 475.153L323.432 483.077L328.318 522.777L392.693 514.853L387.807 475.153ZM324.245 482.994C319.461 483.385 320.455 483.492 318.22 483.581L319.808 523.549C321.69 523.475 323.397 523.298 324.626 523.163C326.046 523.008 326.717 522.925 327.505 522.861L324.245 482.994ZM319.019 483.565L267.089 483.551L267.079 523.551L319.009 523.565L319.019 483.565ZM268.573 483.607L225.058 480.359L222.08 520.248L265.595 523.496L268.573 483.607ZM226.278 480.487L163.584 471.917L158.166 511.549L220.86 520.119L226.278 480.487ZM164.586 472.08C125.294 464.661 95.6124 456.196 64.3045 435.057L41.9209 468.207C79.8453 493.814 115.75 503.565 157.164 511.386L164.586 472.08ZM64.3044 435.057C49.3649 424.97 42.4044 416.746 40.6847 411.491C40.1226 409.773 40.1583 408.563 40.8479 406.939C41.7426 404.833 44.2863 400.947 51.1258 395.74L26.8951 363.914C16.6138 371.742 8.51172 380.751 4.03025 391.304C-0.656311 402.34 -0.727173 413.555 2.66832 423.931C8.86381 442.864 26.0752 457.509 41.9211 468.208L64.3044 435.057ZM51.1257 395.74C58.2516 390.315 66.659 385.733 75.5513 382.125L60.5124 345.059C48.963 349.745 37.3301 355.969 26.8951 363.914L51.1257 395.74ZM74.67 382.458L93.7374 375.749L80.461 338.017L61.3936 344.726L74.67 382.458ZM93.4349 375.853C100.277 373.568 105.294 371.706 110.503 370.396L100.747 331.604C93.5814 333.406 86.0355 336.152 80.7636 337.913L93.4349 375.853ZM109.272 370.665L110.647 370.41L103.353 331.08L101.978 331.335L109.272 370.665ZM109.777 370.551C108.841 370.683 106.05 370.666 103.104 368.535C100.348 366.541 99.1028 363.876 98.6984 361.869C98.0847 358.823 99.0664 353.076 105.189 350.668L119.827 387.894C135.392 381.773 140.299 365.822 137.91 353.968C136.619 347.557 133.061 340.836 126.545 336.123C119.838 331.272 111.838 329.871 104.223 330.939L109.777 370.551ZM105.188 350.669C102.439 351.75 98.9381 352.602 93.4281 353.879C88.5154 355.018 81.9052 356.521 75.5502 358.923L89.692 396.339C93.1133 395.046 97.0653 394.097 102.461 392.846C107.26 391.734 113.814 390.258 119.828 387.894L105.188 350.669ZM75.5474 358.924C69.6428 361.156 56.3056 367.288 44.7716 374.855C39.1213 378.562 32.5948 383.45 27.7131 389.271C23.5184 394.272 15.6402 406.054 21.4543 420.134L58.4261 404.866C61.5819 412.509 56.5282 417.16 58.3609 414.975C59.5065 413.609 62.2104 411.254 66.7133 408.3C75.4859 402.545 86.1476 397.68 89.6948 396.338L75.5474 358.924ZM21.4145 420.037L21.5699 420.419L58.6213 405.345L58.4659 404.964L21.4145 420.037ZM21.6502 420.613C25.2223 429.136 32.8711 436.852 38.518 441.791C44.5812 447.094 52.499 452.777 59.8808 455.759L74.8626 418.671C73.3967 418.079 69.3691 415.634 64.8525 411.683C62.7832 409.873 61.0372 408.114 59.7769 406.632C58.3377 404.94 58.2441 404.443 58.541 405.151L21.6502 420.613ZM60.1032 455.848L60.4083 455.967L74.9453 418.702L74.6402 418.583L60.1032 455.848ZM371.745 281.233C372.003 280.864 372.278 280.463 372.46 280.199C372.668 279.898 372.823 279.674 372.964 279.476C373.256 279.066 373.35 278.958 373.32 278.994C373.289 279.03 372.977 279.394 372.381 279.876C371.766 280.372 370.746 281.078 369.308 281.661L354.258 244.601C348.628 246.887 344.961 250.614 342.944 252.969C341.057 255.171 339.295 257.838 338.947 258.337L371.745 281.233ZM369.032 281.771L369.374 281.638L354.876 244.358L354.534 244.491L369.032 281.771ZM369.503 281.587C366.864 282.635 364.65 282.547 363.402 282.343C362.129 282.135 361.147 281.706 360.37 281.21C359.42 280.604 355.285 277.395 355.722 270.771L395.635 273.407C396.491 260.455 388.337 251.606 381.884 247.489C375.517 243.427 365.218 240.253 354.747 244.409L369.503 281.587ZM355.722 270.773C355.79 269.749 355.964 269.005 356.072 268.616C356.18 268.224 356.266 268.027 356.247 268.074C356.228 268.118 356.159 268.277 355.989 268.616C355.907 268.78 355.812 268.966 355.693 269.193C355.567 269.436 355.453 269.652 355.292 269.96L390.714 288.54C391.165 287.68 395.136 280.977 395.636 273.405L355.722 270.773ZM355.796 269.056L336.824 301.078L371.238 321.467L390.21 289.445L355.796 269.056ZM337.513 299.996L292.73 365.599L325.766 388.151L370.549 322.548L337.513 299.996ZM293.276 364.838C281.671 380.237 272.016 387.262 261.518 386.742L259.54 426.694C291.994 428.3 312.959 405.183 325.22 388.912L293.276 364.838ZM261.518 386.743C255.428 386.441 249.574 383.713 243.031 377.924C236.194 371.874 230.113 363.869 223.264 354.695L191.21 378.623C197.626 387.218 206.085 398.643 216.524 407.88C227.259 417.379 241.418 425.796 259.54 426.694L261.518 386.743ZM223.264 354.695C205.156 330.438 189.69 303.751 175.353 276.05L139.829 294.438C154.686 323.139 171.289 351.938 191.21 378.624L223.264 354.695ZM175.353 276.05C151.354 229.687 132.769 186.263 140.996 140.337L101.622 133.285C90.7628 193.909 116.014 248.427 139.829 294.438L175.353 276.05ZM140.996 140.337C151.31 82.7526 199.485 43.6085 258.899 40.7595L256.983 0.805408C180.719 4.46242 115.53 55.6441 101.622 133.285L140.996 140.337ZM258.899 40.7595C297.838 38.8924 330.744 52.5147 356.438 80.8586L386.074 53.9933C352.244 16.676 307.714 -1.62708 256.983 0.805405L258.899 40.7595ZM355.128 79.2536C366.076 94.1819 371.025 102.845 377.67 120.528L415.114 106.456C407.053 85.008 400.258 73.1528 387.384 55.5983L355.128 79.2536ZM377.669 120.525C377.96 121.298 378.287 122.254 378.888 123.915C379.122 124.56 379.427 125.394 379.722 126.134C379.847 126.448 380.116 127.114 380.465 127.847C380.605 128.139 381.024 129.011 381.667 130.032C381.958 130.493 382.683 131.615 383.822 132.867C384.4 133.502 385.427 134.553 386.9 135.619C388.253 136.598 391.021 138.353 395.002 139.089L402.27 99.755C406.246 100.49 409.007 102.242 410.353 103.216C411.819 104.277 412.839 105.321 413.409 105.948C414.531 107.181 415.238 108.278 415.508 108.706C416.111 109.663 416.48 110.441 416.563 110.614C416.798 111.107 416.922 111.432 416.881 111.327C416.842 111.229 416.722 110.915 416.501 110.304C416.193 109.452 415.49 107.459 415.115 106.459L377.669 120.525ZM379.514 125.283L383.794 139.246L422.038 127.524L417.758 113.561L379.514 125.283ZM383.562 138.426C387.474 153.447 388.401 168.215 386.792 184.069L426.588 188.107C428.631 167.967 427.49 148.387 422.27 128.344L383.562 138.426ZM386.792 184.068C386.454 187.403 386.34 189.175 386.009 191.223C385.703 193.123 385.436 193.527 385.595 193.219L421.155 211.536C425.808 202.502 426.273 191.207 426.588 188.109L386.792 184.068ZM386.611 191.47L385.613 193.004L419.141 214.818L420.139 213.284L386.611 191.47ZM386.087 192.308C386.694 191.455 387.525 190.618 388.522 189.938C389.481 189.284 390.287 188.984 390.67 188.868L402.33 227.13C408.267 225.321 414.217 221.762 418.667 215.514L386.087 192.308ZM390.359 188.965L390.112 189.045L402.393 227.113L402.641 227.033L390.359 188.965ZM390.479 188.93C391.655 188.576 392.576 188.445 393.082 188.39C393.629 188.331 394.057 188.321 394.353 188.325C394.82 188.331 395.571 188.373 396.664 188.638L387.25 227.514C390.766 228.366 396.437 228.912 402.025 227.228L390.479 188.93ZM396.226 188.537L395.933 188.473L387.395 227.551L387.688 227.615L396.226 188.537ZM396.198 188.533C396.599 188.626 397.462 188.894 398.513 189.565C399.59 190.252 400.539 191.157 401.278 192.171C402.674 194.09 402.706 195.525 402.648 194.989C402.591 194.469 402.576 193.34 402.782 191.177C402.88 190.143 403.004 189.097 403.155 187.828C403.293 186.667 403.47 185.183 403.595 183.742L363.745 180.28C363.684 180.981 363.587 181.825 363.434 183.111C363.294 184.289 363.112 185.809 362.961 187.39C362.67 190.457 362.387 194.754 362.881 199.305C363.374 203.84 364.773 209.99 368.94 215.715C373.429 221.88 379.849 225.796 387.13 227.491L396.198 188.533ZM403.595 183.742C408.057 132.372 389.744 70.3991 341.785 38.1524L319.465 71.3467C351.669 92.9994 367.385 138.376 363.745 180.28L403.595 183.742ZM341.785 38.1524C292.818 5.22817 226.572 12.427 180.938 40.3383L201.81 74.4616C237.598 52.5719 286.564 49.2245 319.465 71.3467L341.785 38.1524ZM180.938 40.3384C152.246 57.8883 129.842 88.9689 122.101 121.656L161.025 130.874C166.326 108.488 182.278 86.4078 201.81 74.4615L180.938 40.3384ZM122.101 121.656C119.503 132.628 117.606 145.812 117.547 159.104C117.489 172.176 119.197 186.777 124.941 199.662L161.475 183.374C158.917 177.637 157.502 169.325 157.547 159.282C157.59 149.46 159.022 139.328 161.025 130.874L122.101 121.656ZM338.714 258.678L331.474 269.519L364.738 291.734L371.978 280.893L338.714 258.678ZM331.204 269.933L324.953 279.815L358.756 301.201L365.008 291.319L331.204 269.933ZM423.403 417.064L436.128 419.555L443.812 380.3L431.087 377.809L423.403 417.064ZM435.417 419.402C440.668 420.629 448.12 422.697 454.306 425.582C457.395 427.022 459.441 428.336 460.594 429.319C461.799 430.347 460.958 430.084 460.441 428.22L498.987 417.53C496.64 409.069 491.346 402.973 486.544 398.879C481.689 394.74 476.173 391.643 471.212 389.33C461.301 384.708 450.71 381.899 444.523 380.452L435.417 419.402ZM460.442 428.224C460.41 428.105 460.404 428.066 460.482 428.41C460.53 428.623 460.703 429.41 460.915 430.209C461.422 432.119 462.332 434.863 464.209 437.839L498.041 416.499C498.493 417.216 498.85 417.935 499.122 418.607C499.384 419.254 499.524 419.75 499.574 419.941C499.598 420.031 499.606 420.067 499.591 420.004C499.571 419.918 499.555 419.845 499.501 419.605C499.414 419.221 499.236 418.43 498.986 417.527L460.442 428.224ZM479.493 447.102L480.885 447.216L484.149 407.35L482.757 407.236L479.493 447.102ZM330.399 437.274C322.392 437.687 315.957 438.879 310.612 439.611L316.038 479.241C323.561 478.211 326.704 477.518 332.455 477.222L330.399 437.274ZM312.942 479.422C317.647 479.513 327.398 480.129 336.015 478.622L329.121 439.22C325.45 439.863 321.417 439.578 313.708 439.43L312.942 479.422ZM328.634 478.53C331.518 479.109 333.964 478.99 335.132 478.905C336.486 478.806 337.665 478.62 338.385 478.496C339.068 478.379 339.863 478.223 340.066 478.185C340.523 478.099 340.27 478.157 339.801 478.211L335.199 438.477C334.57 438.55 334.023 438.636 333.639 438.701C333.246 438.767 332.886 438.834 332.629 438.883C332.496 438.908 332.365 438.933 332.26 438.953C332.147 438.975 332.057 438.992 331.969 439.008C331.794 439.042 331.692 439.06 331.626 439.071C331.561 439.082 331.58 439.078 331.659 439.068C331.734 439.057 331.933 439.032 332.225 439.011C332.507 438.99 332.999 438.964 333.641 438.982C334.259 438.999 335.263 439.063 336.502 439.312L328.634 478.53ZM340.054 478.18L363.975 475.1L358.867 435.428L334.946 438.508L340.054 478.18ZM363.711 475.133C364.446 475.048 365.362 474.991 366.822 474.935C368.057 474.888 370.121 474.829 372.047 474.698L369.337 434.79C368.186 434.868 367.146 434.893 365.281 434.965C363.64 435.028 361.459 435.127 359.131 435.396L363.711 475.133ZM372.695 474.643L414.569 470.428L410.563 430.63L368.689 434.845L372.695 474.643ZM415.532 470.308C429.411 468.227 443.326 465.592 457.252 462.002L447.266 423.268C434.988 426.434 422.475 428.82 409.6 430.75L415.532 470.308ZM457.636 461.899L469.121 458.693L458.367 420.166L446.882 423.372L457.636 461.899ZM469.691 458.524C472.619 457.612 479.175 455.766 484.663 451.231C491.076 445.93 493.859 439.137 495.501 433.547L457.123 422.271C456.957 422.838 456.841 423.155 456.787 423.292C456.735 423.425 456.769 423.315 456.919 423.046C457.075 422.765 457.345 422.334 457.755 421.83C458.174 421.318 458.656 420.831 459.179 420.399C460.222 419.537 461.003 419.242 460.784 419.333C460.67 419.381 460.4 419.487 459.871 419.667C459.338 419.849 458.687 420.056 457.797 420.334L469.691 458.524ZM473.075 408.173C468.202 408.972 464.027 410.52 461.065 411.712C457.327 413.214 456.381 413.726 454.217 414.498L467.671 452.168C470.62 451.115 474.666 449.355 475.989 448.823C478.087 447.98 479.039 447.729 479.549 447.645L473.075 408.173ZM454.222 414.497C446.873 417.119 439.479 419.295 432.029 420.947L440.687 459.999C449.924 457.951 458.919 455.291 467.666 452.17L454.222 414.497ZM433.329 420.704L381.378 428.664L387.436 468.202L439.387 460.242L433.329 420.704ZM381.881 428.593C379.606 428.883 377.369 429.049 374.255 429.313C371.373 429.558 367.846 429.881 364.168 430.503L370.832 469.943C372.758 469.618 374.873 469.404 377.638 469.17C380.171 468.955 383.585 468.699 386.933 468.273L381.881 428.593ZM364.177 430.501C362.525 430.779 361.162 431.212 360.613 431.389C359.877 431.627 359.183 431.881 358.619 432.095C357.488 432.524 356.291 433.019 355.273 433.449C352.708 434.533 351.59 435.047 350.641 435.43L365.609 472.524C366.405 472.203 367.402 471.773 368.2 471.428C369.102 471.039 369.98 470.659 370.838 470.297C371.716 469.926 372.375 469.658 372.809 469.493C373.028 469.41 373.044 469.409 372.913 469.451C372.842 469.474 372.651 469.535 372.371 469.61C372.128 469.676 371.574 469.819 370.823 469.945L364.177 430.501ZM350.634 435.433C351.129 435.233 351.521 435.116 351.768 435.052C352.015 434.987 352.166 434.962 352.19 434.958C352.201 434.956 351.97 434.992 351.311 435.031C350.581 435.074 349.946 435.09 348.718 435.137C347.692 435.175 346.178 435.238 344.596 435.401L348.692 475.191C350.148 475.041 349.676 475.196 353.657 474.962C356.011 474.824 360.769 474.479 365.616 472.521L350.634 435.433ZM344.099 435.459L328.882 437.411L333.972 477.086L349.189 475.134L344.099 435.459ZM358.694 448.672L360.15 448.496L355.35 408.785L353.894 408.961L358.694 448.672ZM358.948 448.604C354.236 448.887 351.167 447.103 350.379 446.61C349.349 445.966 348.917 445.448 348.865 445.387C348.783 445.291 348.592 445.063 348.334 444.522C348.249 444.345 347.148 442.163 347.242 438.597L387.228 439.653C387.371 434.232 385.623 429.78 384.413 427.251C383.028 424.358 381.232 421.693 379.281 419.409C377.36 417.16 374.795 414.701 371.586 412.695C368.618 410.839 363.322 408.27 356.552 408.676L358.948 448.604ZM347.242 438.597C347.249 438.339 347.303 437.622 347.643 436.625C347.993 435.597 348.559 434.532 349.34 433.556C350.896 431.611 352.48 431.011 352.516 430.997C352.56 430.98 352.394 431.046 351.932 431.149C351.473 431.253 350.86 431.363 350.025 431.481C349.178 431.601 348.271 431.705 347.14 431.83C346.111 431.944 344.737 432.091 343.428 432.265L348.688 471.917C350.186 471.719 359.642 471.087 366.759 468.375C371.014 466.754 376.317 463.867 380.578 458.54C385.03 452.973 387.051 446.361 387.228 439.653L347.242 438.597ZM343.908 432.207L306.698 436.23L310.998 475.998L348.208 471.975L343.908 432.207ZM306.774 436.222C284.455 438.549 266.346 441.801 246.863 442.048L247.371 482.044C269.222 481.767 292.215 477.957 310.922 476.006L306.774 436.222ZM247.903 442.062C250.751 442.174 254.386 444.599 255.262 449.055C255.695 451.261 255.435 454.139 253.743 456.82C251.966 459.637 249.63 460.649 248.742 460.884L238.508 422.216C231.058 424.187 224.274 428.567 219.916 435.473C215.643 442.244 214.67 449.935 216.012 456.767C218.706 470.477 230.649 481.414 246.331 482.031L247.903 442.062ZM248.742 460.884C248.669 460.904 249.078 460.796 250.474 460.692C251.133 460.643 251.841 460.605 252.765 460.558C253.61 460.515 254.724 460.46 255.825 460.383L253.017 420.481C251.848 420.564 244.316 420.678 238.508 422.216L248.742 460.884ZM256.422 460.332L326.789 453.256L322.787 413.456L252.42 420.532L256.422 460.332ZM327.241 453.205C337.232 451.971 348.913 450.748 360.314 448.408L352.274 409.224C342.877 411.153 333.402 412.14 322.335 413.507L327.241 453.205ZM163.204 191.899C163.274 188.245 163.194 184.455 163.161 181.468C163.126 178.263 163.136 175.602 163.293 173.138L123.373 170.6C123.117 174.633 123.127 178.539 123.163 181.905C123.202 185.49 123.266 188.276 123.212 191.137L163.204 191.899ZM163.293 173.139C165.724 134.905 190.003 98.6021 224.64 84.3039L209.378 47.3302C159.371 67.9728 126.686 118.519 123.373 170.6L163.293 173.139ZM224.64 84.3039C239.379 78.2197 258.245 75.3001 276.716 76.916C295.253 78.5376 311.597 84.5418 322.815 94.3536L349.149 64.2459C329.805 47.3253 304.562 39.1993 280.202 37.0682C255.778 34.9315 230.438 38.6367 209.378 47.3302L224.64 84.3039ZM321.894 93.4955L324.262 95.8456L352.438 67.4542L350.07 65.104L321.894 93.4955ZM340.753 113.369C347.601 121.851 353.364 133.558 356.262 145.93C359.179 158.381 358.837 169.891 355.522 178.669L392.942 192.802C399.823 174.583 399.374 154.59 395.208 136.807C391.024 118.944 382.73 101.684 371.873 88.2394L340.753 113.369ZM355.521 178.672C354.95 180.184 354.288 181.671 353.283 183.975C352.374 186.058 351.188 188.805 350.17 191.797L388.036 204.687C388.466 203.425 389.049 202.025 389.945 199.971C390.745 198.138 391.924 195.498 392.943 192.798L355.521 178.672ZM354.703 212.122C355.592 213.044 356.205 213.732 356.628 214.244C357.052 214.759 357.185 214.977 357.166 214.946C357.139 214.901 356.908 214.522 356.667 213.845C356.545 213.505 356.428 213.108 356.331 212.659C356.234 212.21 356.165 211.743 356.129 211.268C356.093 210.794 356.092 210.349 356.115 209.944C356.138 209.541 356.183 209.202 356.231 208.938C356.323 208.424 356.419 208.207 356.357 208.374C356.291 208.55 356.117 208.971 355.735 209.729C355.355 210.484 354.844 211.425 354.146 212.645L388.862 232.513C391.713 227.532 396.811 218.698 396.013 208.23C395.16 197.024 388.169 189.203 383.503 184.362L354.703 212.122ZM354.145 212.646C353.913 213.051 353.715 213.387 353.509 213.733C353.365 213.977 353.01 214.57 352.706 215.116C352.46 215.56 351.66 216.994 351.012 218.867C350.253 221.06 349.47 224.483 350.06 228.625C350.617 232.53 352.162 235.298 352.846 236.441C353.199 237.03 353.516 237.494 353.638 237.673C353.709 237.777 353.774 237.871 353.803 237.913C353.843 237.97 353.851 237.981 353.86 237.995C353.868 238.007 353.832 237.954 353.778 237.872C353.722 237.786 353.659 237.685 353.593 237.574C353.455 237.341 353.362 237.158 353.311 237.05L389.475 219.958C388.447 217.782 387.467 216.27 386.794 215.293C386.283 214.553 386.809 215.299 387.167 215.895C387.693 216.774 389.138 219.314 389.66 222.981C390.217 226.886 389.466 230.06 388.814 231.944C388.511 232.819 388.208 233.48 388.032 233.844C387.853 234.216 387.711 234.474 387.67 234.547C387.629 234.62 387.62 234.633 387.911 234.141C388.142 233.753 388.47 233.199 388.863 232.512L354.145 212.646ZM269.76 398.465L270.094 398.152L242.742 368.964L242.408 369.277L269.76 398.465ZM259.878 363.86C260.774 364.017 261.363 364.198 261.488 364.237C261.688 364.299 261.773 364.333 261.745 364.322C261.67 364.293 261.52 364.227 261.415 364.171C261.228 364.072 261.596 364.239 262.27 364.776C262.619 365.053 263.346 365.664 264.181 366.636C264.945 367.525 266.419 369.428 267.433 372.329L229.673 385.527C231.797 391.603 236.102 395.071 237.357 396.07C239.287 397.607 241.24 398.751 242.71 399.528C245.161 400.825 249.085 402.576 252.958 403.257L259.878 363.86ZM261.83 393.886L268.051 388.364L241.497 358.449L235.276 363.971L261.83 393.886ZM266.52 389.594C271.577 385.924 277.201 379.246 280.678 374.991C284.8 369.949 288.682 364.784 290.706 362.004L258.376 338.452C256.668 340.795 253.247 345.347 249.708 349.677C247.935 351.846 246.26 353.803 244.838 355.339C243.182 357.127 242.64 357.501 243.029 357.218L266.52 389.594ZM290.559 362.204L323.265 318.459L291.229 294.507L258.523 338.252L290.559 362.204ZM323.39 318.29L373.202 250.182L340.916 226.568L291.104 294.676L323.39 318.29ZM373.416 249.884C374.379 248.514 375.292 247.129 376.033 246.003C376.829 244.794 377.456 243.84 378.086 242.93C379.392 241.045 380.087 240.286 380.388 240.011L353.362 210.521C349.774 213.81 347.079 217.448 345.208 220.148C344.25 221.53 343.342 222.916 342.62 224.012C341.844 225.192 341.257 226.078 340.702 226.866L373.416 249.884ZM361.374 244.495L361.755 244.604L372.757 206.146L372.376 206.037L361.374 244.495ZM363.278 244.975C364.116 245.146 362.227 244.851 360.163 243.922C357.366 242.662 355.225 240.827 353.758 239.019L384.82 213.817C382.751 211.267 380.029 208.999 376.585 207.448C373.872 206.227 371.268 205.781 371.234 205.775L363.278 244.975ZM355.208 240.621L357.312 242.707L385.474 214.301L383.37 212.215L355.208 240.621ZM254.235 105.093C270.59 104.569 283.94 108.056 294.175 114.57C304.255 120.985 312.645 131.169 317.927 146.531L355.753 133.525C347.833 110.488 334.129 92.5847 315.652 80.8245C297.329 69.163 275.657 64.3862 252.955 65.113L254.235 105.093ZM317.927 146.531C327.379 174.025 316.038 203.081 291.379 215.549L309.427 251.245C353.084 229.172 371.269 178.652 355.753 133.525L317.927 146.531ZM291.378 215.549C285.343 218.601 278.76 220.351 271.228 221.044L274.894 260.876C286.574 259.801 298.187 256.929 309.428 251.245L291.378 215.549ZM271.062 221.06C248.463 223.33 223.385 209.886 215.035 190.684L178.353 206.634C194.591 243.98 237.665 264.616 275.06 260.86L271.062 221.06ZM215.035 190.683C212.93 185.844 211.957 181.307 209.558 173.187L171.198 184.521C172.713 189.649 174.94 198.787 178.353 206.635L215.035 190.683ZM205.864 191.51C205.551 191.894 205.373 192.038 205.595 191.831C205.7 191.733 205.846 191.601 206.1 191.377C206.236 191.256 206.345 191.16 206.517 191.008C206.671 190.871 206.852 190.711 207.042 190.541L180.362 160.739C180.06 161.009 177.142 163.444 174.892 166.198L205.864 191.51ZM203.871 158.418C203.762 158.354 204.587 158.822 205.546 160.064C206.018 160.675 206.426 161.35 206.751 162.053C207.071 162.746 207.256 163.347 207.359 163.777C207.536 164.513 207.464 164.734 207.449 163.675C207.442 163.182 207.447 162.592 207.46 161.72C207.472 160.926 207.492 159.835 207.496 158.724L167.496 158.578C167.493 159.453 167.429 162.579 167.453 164.244C167.484 166.434 167.627 169.631 168.467 173.126C170.535 181.729 175.84 188.319 183.533 192.862L203.871 158.418ZM207.496 158.723C207.554 142.692 212.485 129.865 220.23 120.997C227.843 112.279 239.252 106.122 254.949 105.057L252.241 65.1486C226.779 66.8761 205.211 77.3832 190.101 94.6862C175.122 111.839 167.583 134.39 167.496 158.579L207.496 158.723ZM255.629 120.577C269.231 119.762 279.787 122.897 286.934 128.119C293.757 133.103 299.129 141.158 300.694 153.965L340.398 149.115C337.619 126.358 327.096 107.922 310.53 95.8193C294.287 83.9539 273.959 79.4074 253.237 80.6485L255.629 120.577ZM300.694 153.965C301.905 163.884 297.306 178.169 289.82 187.583L321.128 212.479C333.848 196.483 343.165 171.766 340.398 149.115L300.694 153.965ZM289.82 187.583C284.359 194.451 277.191 197.895 265.54 199.236L270.114 238.974C288.539 236.853 307.045 230.189 321.128 212.479L289.82 187.583ZM265.74 199.214C243.515 201.546 224.984 188.521 222.878 171.975L183.198 177.025C188.986 222.51 234.285 242.734 269.914 238.996L265.74 199.214ZM218.854 186.741C223.926 180.188 224.074 173.114 223.957 170.017C223.891 168.269 223.686 166.751 223.557 165.861C223.495 165.433 223.419 164.944 223.387 164.735C223.367 164.599 223.353 164.506 223.343 164.433C223.332 164.362 223.329 164.334 223.329 164.337L183.635 169.271C183.707 169.852 183.787 170.385 183.84 170.737C183.906 171.171 183.933 171.342 183.969 171.587C184.034 172.04 184 171.91 183.985 171.53C183.971 171.156 183.949 170.008 184.296 168.441C184.664 166.777 185.481 164.509 187.222 162.259L218.854 186.741ZM223.379 164.773L222.539 156.545L182.745 160.607L183.585 168.835L223.379 164.773ZM222.613 157.498C221.995 146.049 225.458 137.243 230.761 131.3C236.043 125.38 244.216 121.096 255.338 120.592L253.528 80.6332C232.533 81.5844 213.936 90.0748 200.914 104.669C187.913 119.24 181.539 138.689 182.671 159.654L222.613 157.498ZM263.722 159.564L263.734 159.56L251.1 121.608L251.088 121.612L263.722 159.564ZM259.037 160.518C259.893 160.449 260.481 160.431 260.895 160.436C261.296 160.441 261.463 160.468 261.468 160.469C261.469 160.469 261.434 160.464 261.372 160.447C261.308 160.431 261.229 160.407 261.141 160.373C260.948 160.301 260.812 160.225 260.759 160.191L282.237 126.447C272.452 120.219 262.772 120.083 255.797 120.65L259.037 160.518ZM260.757 160.19C262.392 161.231 262.247 161.705 262.003 161.045C261.778 160.438 261.908 160.026 261.873 160.135C261.81 160.335 261.514 160.992 260.668 161.737C259.858 162.451 258.733 163.071 257.342 163.365L265.624 202.499C281.902 199.053 295.202 187.355 300 172.233C302.46 164.48 302.677 155.695 299.513 147.152C296.328 138.555 290.217 131.528 282.239 126.448L260.757 160.19ZM258.466 163.161L257.909 163.246L263.943 202.788L264.5 202.703L258.466 163.161ZM257.795 163.264C257.1 163.374 256.611 163.388 256.308 163.378C256.007 163.368 255.868 163.333 255.86 163.331C255.853 163.33 255.931 163.349 256.062 163.416C256.193 163.483 256.33 163.573 256.458 163.681C257.019 164.153 256.75 164.311 256.683 163.506C256.617 162.72 256.864 162.035 257.144 161.662C257.26 161.507 257.437 161.321 257.778 161.124C258.116 160.927 258.853 160.583 260.215 160.39L254.595 120.786C228.049 124.553 215.145 146.738 216.821 166.831C217.644 176.695 222.001 186.959 230.695 194.28C239.74 201.896 251.601 204.745 264.057 202.77L257.795 163.264Z" fill="white" mask="url(#path-1-outside-1_5_6191)"/>
<defs>
<linearGradient id="paint0_linear_5_6191" x1="236.494" y1="248.05" x2="297.755" y2="303.995" gradientUnits="userSpaceOnUse">
<stop stop-color="#3614D8"/>
<stop offset="1" stop-color="#9E00FF"/>
</linearGradient>
</defs>
</svg>
