<svg width="543" height="521" viewBox="0 0 543 521" fill="none" xmlns="http://www.w3.org/2000/svg">
<path d="M466.476 58.9199L301.132 33.4824H224.819L66.7427 140.684L37.6713 405.961L106.716 489.541C196.353 493.781 387.619 499.716 435.587 489.541C495.547 476.823 522.802 336.916 524.619 269.688C526.072 215.906 486.462 106.767 466.476 58.9199Z" fill="white"/>
<mask id="path-2-outside-1_5_6207" maskUnits="userSpaceOnUse" x="0.29425" y="0.107422" width="543" height="521" fill="black">
<rect fill="white" x="0.29425" y="0.107422" width="543" height="521"/>
<path d="M220.878 20.1074L298.922 20.1514C301.304 20.2186 303.659 20.6373 306.03 20.674L329.038 20.833L383.067 23.5057C421.813 25.9772 447.398 30.1833 476.151 59.0391C503.215 86.1995 512.824 129.74 518.054 166.75L522.558 211.408L522.719 242.724C522.679 265.414 520.547 288.077 518.725 310.684C516.834 334.144 514.64 357.399 510.749 380.625C501.922 433.325 486.012 473.645 431.902 491.125C416.145 496.215 398.163 497.553 381.75 498.285L356.875 498.929C355.174 498.992 353.495 499.271 351.79 499.311L320.484 499.79L239 500.875C211.226 500.861 183.428 500.444 155.75 498C141.025 496.699 126.397 495.587 112.203 491.123C79.7455 480.914 55.7501 457.098 43.9401 425.356C41.203 418 39.132 410.418 36.866 402.91C27.6419 372.348 23.351 347.886 21.2171 315.624L20.2943 303.442L20.4676 255.472C20.5535 253.641 20.9497 251.89 21.057 250.082L29.1146 163.875C33.2576 126.324 40.1199 86.1126 68.0901 58.2684C97.2863 29.2036 128.392 24.6325 167.587 22.0468L189.267 20.8068L220.878 20.1074ZM191.263 486.775L240.862 487.844C243.353 487.914 245.759 488.571 248.202 488.616L351.801 488.489C353.688 488.402 355.523 487.987 357.375 487.876L379.841 486.914C418.434 485.037 455.913 478.396 478.912 442.798C499.502 410.932 505.17 335.804 507.84 297.377L510.696 250.75L510.652 208.242C510.111 194.582 508.632 179.585 505.752 166.172L501.078 137.956C491.02 91.6688 468.084 49.0278 417.875 37.7486C408.567 35.6575 398.981 34.8623 389.494 34.0502L356.75 32.2711C354.391 32.1761 352.077 31.7829 349.702 31.7313L327.941 31.6558C325.097 31.6275 322.308 31.0036 319.431 30.9647L189.523 30.9606L148.065 33.7899C117.015 37.4911 89.3709 46.8072 69.1682 72.6089C56.4805 88.8129 46.4967 117.614 43.6169 138.625L36.2443 205.75L31.68 263.719C30.2668 297.855 31.246 328.345 37.6526 362.135C42.3823 387.08 53.5993 427.927 68.0687 447.692C83.0985 468.223 107.582 480.27 132.443 483.758L191.263 486.775Z"/>
<path d="M256.005 62.1206L331.451 62.0856C335.596 62.0755 344.61 61.4892 342.843 69.0997L342.774 69.3751C341.084 76.6398 329.877 74.5604 324.511 74.5621L254.953 74.6406C252.509 74.6712 250.15 75.1695 247.75 75.2625L233.264 75.3046L166.625 78.242C154.674 78.708 141.788 79.3706 130.368 83.2056C100.313 93.2983 91.2027 115.41 87.1619 143.617L78.3721 214.495L73.3975 281.875L74.2596 325.932L78.7247 381.353C79.276 387.507 81.7346 394.272 73.8165 396.394C66.4656 394.063 67.627 386.501 67.1058 380.164L61.8808 308.76L61.9748 275.634L69.8092 175L74.2917 144.911C80.8219 106.328 94.24 76.3344 136.538 68.4253C147.093 66.4515 158.054 66.0801 168.75 65.5427L215.311 63.1655C220.428 62.7748 226.007 63.4275 231.025 62.4241C233.74 61.8812 236.891 62.1681 239.665 62.1576L256.005 62.1206Z"/>
<path d="M262.088 113.39C293.033 111.025 330.353 120.132 355.756 137.662C359.011 129.585 367.256 128.489 375.113 129.707C384.365 131.142 384.488 138.257 384.48 145.501L382.9 197.835C382.431 205.053 383.423 213.161 376.58 217.791L375.685 218.42C372.679 220.374 367.286 219.329 363.856 219.462L327.125 223.031C321.944 223.557 312.824 225.461 307.772 224.088L307.5 224.009C297.313 221.205 298.414 208.784 304.606 201.919C282.875 192.259 254.122 194.881 235.721 210.175C226.995 217.206 220.365 228.025 215.978 238.197C208.474 255.599 210.572 262.193 187.951 262.061L169.25 261.673C156.804 261.28 136.851 263.21 128.186 252.663L127.919 252.33C125.967 249.935 124.483 246.912 124.228 243.792L124.095 242.233C123.492 233.974 127.479 224.906 130.492 217.371C154.196 158.091 197.463 118.284 262.088 113.39ZM142.925 247.5C144.677 250.818 180.919 251.215 185.706 251.22C197.085 251.234 199.022 253.054 202.974 241.246L206.76 230.5C208.739 225.648 211.619 221.24 213.645 216.47C216.604 211.97 220.391 208.136 224.363 204.527C245.33 185.472 270.065 179.511 297.482 186.751C305.03 188.745 318.775 193.088 322.902 200.148C321.202 203.267 314.571 209.78 311.316 211.972L311.022 212.167C313.572 212.125 316.437 212.244 318.934 211.74L321.728 211.308C326.376 211.726 331.14 211.075 335.758 210.662L353.598 209.083C360.093 208.513 366.816 208.487 373.252 207.571C373.567 206.301 373.499 204.809 373.579 203.5L374.082 198.125C374.509 192.094 374.307 185.928 374.311 179.88L373.834 146.398C373.783 144.962 374.398 143.531 373.398 142.375L372.533 142.494C373.384 147.936 363.76 154.758 359.322 155.455C355.85 153.646 352.854 150.668 349.714 148.319C329.119 132.911 302.06 128.731 276.938 128.726C262.312 128.724 246.86 129.431 232.806 133.845C185.864 148.586 154.004 190.231 144.304 237.694C143.638 240.953 143.526 244.258 142.925 247.5ZM142.925 247.5C143.526 244.258 143.638 240.953 144.304 237.694C154.004 190.231 185.864 148.586 232.806 133.845C246.86 129.431 262.312 128.724 276.938 128.726C302.06 128.731 329.119 132.911 349.714 148.319C352.854 150.668 355.85 153.646 359.322 155.455C363.76 154.758 373.384 147.936 372.533 142.494C371.269 140.569 368.359 139.955 366.243 140.675L365.968 140.762C360.218 142.661 364.003 155.331 352.871 148.946C350.712 147.708 348.723 146.183 346.587 144.905C318.418 128.041 282.067 122.885 249.75 127.245C191.408 135.115 154.188 179.653 137.662 234.39C136.996 236.595 135.238 239.966 136.671 242.125L136.847 242.397C138.278 244.494 140.843 246.099 142.925 247.5Z"/>
<path d="M142.925 247.5C143.526 244.258 143.638 240.953 144.304 237.694C154.004 190.231 185.864 148.586 232.806 133.845C246.86 129.431 262.312 128.724 276.938 128.726C302.06 128.731 329.119 132.911 349.714 148.319C352.854 150.668 355.85 153.646 359.322 155.455C363.76 154.758 373.384 147.936 372.533 142.494L373.398 142.375C374.398 143.531 373.783 144.962 373.834 146.398L374.311 179.88C374.307 185.928 374.509 192.094 374.082 198.125L373.579 203.5C373.499 204.809 373.567 206.301 373.252 207.571C366.816 208.487 360.093 208.513 353.598 209.083L335.758 210.662C331.14 211.075 326.376 211.726 321.728 211.308L318.934 211.74C316.437 212.244 313.572 212.125 311.022 212.167L311.316 211.972C314.571 209.78 321.202 203.267 322.902 200.148C318.775 193.088 305.03 188.745 297.482 186.751C270.065 179.511 245.33 185.472 224.363 204.527C220.391 208.136 216.604 211.97 213.645 216.47C211.619 221.24 208.739 225.648 206.76 230.5L202.974 241.246C199.022 253.054 197.085 251.234 185.706 251.22C180.919 251.215 144.677 250.818 142.925 247.5ZM213.645 216.47C216.604 211.97 220.391 208.136 224.363 204.527C245.33 185.472 270.065 179.511 297.482 186.751C305.03 188.745 318.775 193.088 322.902 200.148C321.202 203.267 314.571 209.78 311.316 211.972L311.022 212.167C313.572 212.125 316.437 212.244 318.934 211.74L321.728 211.334C325.526 209.51 329.347 205.612 330.774 201.596L330.974 200.918C322.875 188.503 305.004 182.927 291.391 180.056C262.12 173.882 231.007 186.135 215.797 212.125C215.05 213.401 213.617 214.924 213.645 216.47Z"/>
<path d="M389.409 249.818L397.707 249.747C404.994 249.736 409.703 251.029 415.75 255.662C428.684 265.573 426.831 279.953 423.646 294.054C405.714 373.449 350.584 421.087 270.164 420.877C233.846 420.782 201.791 409.28 173.118 386.661C141.425 362.036 123.333 331.208 161.793 302.095C167.61 297.692 174.291 293.406 181.623 292.156L182.125 292.084C207.223 288.096 216.777 307.056 233.064 318.343C269.431 343.547 324.431 325.13 336.055 281.475L337.953 273C338.805 268.345 339.583 263.275 342.477 259.379C352.228 246.251 375.281 252.024 389.409 249.818ZM382.634 262.084L367.324 263.029C351.663 264.7 352.398 269.575 348.314 283.472C332.422 337.553 263.876 362.754 219.83 322.819C209.943 313.856 201.836 303.901 187.065 304.617C174.331 305.235 156.187 323.162 154.451 335.75L154.388 336.188C154.065 338.638 154.077 341.588 154.61 344L154.672 344.3C157.543 357.921 169.601 368.57 180.157 376.653C242.302 426.171 331.72 418.83 381.512 356.185C393.393 341.237 415.924 297.282 413.654 276.72C412.299 264.445 400.46 261.986 390.531 261.993L382.634 262.084Z"/>
<path d="M388.645 269.004C395.447 268.801 402.731 268.104 407.175 274.47C415.931 287.011 394.798 328.739 386.224 342.25C370.127 367.619 341.61 389.821 312.625 398.369C267.703 411.617 216.579 400.906 179.987 371.93L178.837 371.016C171.497 364.956 164.234 356.458 163.349 346.606C162.158 333.357 173.038 316.574 186.296 313.413C199.069 310.368 208.738 319.508 218.209 326.55C246.47 347.563 270.145 353.811 303.181 342.017C329.053 332.78 342.462 319.142 352.08 293.543L355.955 282.622C360.578 268.953 360.249 270.623 373.5 269.837L379.125 269.229C382.272 268.98 385.489 269.039 388.645 269.004Z"/>
</mask>
<path d="M220.878 20.1074L298.922 20.1514C301.304 20.2186 303.659 20.6373 306.03 20.674L329.038 20.833L383.067 23.5057C421.813 25.9772 447.398 30.1833 476.151 59.0391C503.215 86.1995 512.824 129.74 518.054 166.75L522.558 211.408L522.719 242.724C522.679 265.414 520.547 288.077 518.725 310.684C516.834 334.144 514.64 357.399 510.749 380.625C501.922 433.325 486.012 473.645 431.902 491.125C416.145 496.215 398.163 497.553 381.75 498.285L356.875 498.929C355.174 498.992 353.495 499.271 351.79 499.311L320.484 499.79L239 500.875C211.226 500.861 183.428 500.444 155.75 498C141.025 496.699 126.397 495.587 112.203 491.123C79.7455 480.914 55.7501 457.098 43.9401 425.356C41.203 418 39.132 410.418 36.866 402.91C27.6419 372.348 23.351 347.886 21.2171 315.624L20.2943 303.442L20.4676 255.472C20.5535 253.641 20.9497 251.89 21.057 250.082L29.1146 163.875C33.2576 126.324 40.1199 86.1126 68.0901 58.2684C97.2863 29.2036 128.392 24.6325 167.587 22.0468L189.267 20.8068L220.878 20.1074ZM191.263 486.775L240.862 487.844C243.353 487.914 245.759 488.571 248.202 488.616L351.801 488.489C353.688 488.402 355.523 487.987 357.375 487.876L379.841 486.914C418.434 485.037 455.913 478.396 478.912 442.798C499.502 410.932 505.17 335.804 507.84 297.377L510.696 250.75L510.652 208.242C510.111 194.582 508.632 179.585 505.752 166.172L501.078 137.956C491.02 91.6688 468.084 49.0278 417.875 37.7486C408.567 35.6575 398.981 34.8623 389.494 34.0502L356.75 32.2711C354.391 32.1761 352.077 31.7829 349.702 31.7313L327.941 31.6558C325.097 31.6275 322.308 31.0036 319.431 30.9647L189.523 30.9606L148.065 33.7899C117.015 37.4911 89.3709 46.8072 69.1682 72.6089C56.4805 88.8129 46.4967 117.614 43.6169 138.625L36.2443 205.75L31.68 263.719C30.2668 297.855 31.246 328.345 37.6526 362.135C42.3823 387.08 53.5993 427.927 68.0687 447.692C83.0985 468.223 107.582 480.27 132.443 483.758L191.263 486.775Z" fill="#00112B"/>
<path d="M256.005 62.1206L331.451 62.0856C335.596 62.0755 344.61 61.4892 342.843 69.0997L342.774 69.3751C341.084 76.6398 329.877 74.5604 324.511 74.5621L254.953 74.6406C252.509 74.6712 250.15 75.1695 247.75 75.2625L233.264 75.3046L166.625 78.242C154.674 78.708 141.788 79.3706 130.368 83.2056C100.313 93.2983 91.2027 115.41 87.1619 143.617L78.3721 214.495L73.3975 281.875L74.2596 325.932L78.7247 381.353C79.276 387.507 81.7346 394.272 73.8165 396.394C66.4656 394.063 67.627 386.501 67.1058 380.164L61.8808 308.76L61.9748 275.634L69.8092 175L74.2917 144.911C80.8219 106.328 94.24 76.3344 136.538 68.4253C147.093 66.4515 158.054 66.0801 168.75 65.5427L215.311 63.1655C220.428 62.7748 226.007 63.4275 231.025 62.4241C233.74 61.8812 236.891 62.1681 239.665 62.1576L256.005 62.1206Z" fill="#00112B"/>
<path d="M262.088 113.39C293.033 111.025 330.353 120.132 355.756 137.662C359.011 129.585 367.256 128.489 375.113 129.707C384.365 131.142 384.488 138.257 384.48 145.501L382.9 197.835C382.431 205.053 383.423 213.161 376.58 217.791L375.685 218.42C372.679 220.374 367.286 219.329 363.856 219.462L327.125 223.031C321.944 223.557 312.824 225.461 307.772 224.088L307.5 224.009C297.313 221.205 298.414 208.784 304.606 201.919C282.875 192.259 254.122 194.881 235.721 210.175C226.995 217.206 220.365 228.025 215.978 238.197C208.474 255.599 210.572 262.193 187.951 262.061L169.25 261.673C156.804 261.28 136.851 263.21 128.186 252.663L127.919 252.33C125.967 249.935 124.483 246.912 124.228 243.792L124.095 242.233C123.492 233.974 127.479 224.906 130.492 217.371C154.196 158.091 197.463 118.284 262.088 113.39ZM142.925 247.5C144.677 250.818 180.919 251.215 185.706 251.22C197.085 251.234 199.022 253.054 202.974 241.246L206.76 230.5C208.739 225.648 211.619 221.24 213.645 216.47C216.604 211.97 220.391 208.136 224.363 204.527C245.33 185.472 270.065 179.511 297.482 186.751C305.03 188.745 318.775 193.088 322.902 200.148C321.202 203.267 314.571 209.78 311.316 211.972L311.022 212.167C313.572 212.125 316.437 212.244 318.934 211.74L321.728 211.308C326.376 211.726 331.14 211.075 335.758 210.662L353.598 209.083C360.093 208.513 366.816 208.487 373.252 207.571C373.567 206.301 373.499 204.809 373.579 203.5L374.082 198.125C374.509 192.094 374.307 185.928 374.311 179.88L373.834 146.398C373.783 144.962 374.398 143.531 373.398 142.375L372.533 142.494C373.384 147.936 363.76 154.758 359.322 155.455C355.85 153.646 352.854 150.668 349.714 148.319C329.119 132.911 302.06 128.731 276.938 128.726C262.312 128.724 246.86 129.431 232.806 133.845C185.864 148.586 154.004 190.231 144.304 237.694C143.638 240.953 143.526 244.258 142.925 247.5ZM142.925 247.5C143.526 244.258 143.638 240.953 144.304 237.694C154.004 190.231 185.864 148.586 232.806 133.845C246.86 129.431 262.312 128.724 276.938 128.726C302.06 128.731 329.119 132.911 349.714 148.319C352.854 150.668 355.85 153.646 359.322 155.455C363.76 154.758 373.384 147.936 372.533 142.494C371.269 140.569 368.359 139.955 366.243 140.675L365.968 140.762C360.218 142.661 364.003 155.331 352.871 148.946C350.712 147.708 348.723 146.183 346.587 144.905C318.418 128.041 282.067 122.885 249.75 127.245C191.408 135.115 154.188 179.653 137.662 234.39C136.996 236.595 135.238 239.966 136.671 242.125L136.847 242.397C138.278 244.494 140.843 246.099 142.925 247.5Z" fill="#00112B"/>
<path d="M142.925 247.5C143.526 244.258 143.638 240.953 144.304 237.694C154.004 190.231 185.864 148.586 232.806 133.845C246.86 129.431 262.312 128.724 276.938 128.726C302.06 128.731 329.119 132.911 349.714 148.319C352.854 150.668 355.85 153.646 359.322 155.455C363.76 154.758 373.384 147.936 372.533 142.494L373.398 142.375C374.398 143.531 373.783 144.962 373.834 146.398L374.311 179.88C374.307 185.928 374.509 192.094 374.082 198.125L373.579 203.5C373.499 204.809 373.567 206.301 373.252 207.571C366.816 208.487 360.093 208.513 353.598 209.083L335.758 210.662C331.14 211.075 326.376 211.726 321.728 211.308L318.934 211.74C316.437 212.244 313.572 212.125 311.022 212.167L311.316 211.972C314.571 209.78 321.202 203.267 322.902 200.148C318.775 193.088 305.03 188.745 297.482 186.751C270.065 179.511 245.33 185.472 224.363 204.527C220.391 208.136 216.604 211.97 213.645 216.47C211.619 221.24 208.739 225.648 206.76 230.5L202.974 241.246C199.022 253.054 197.085 251.234 185.706 251.22C180.919 251.215 144.677 250.818 142.925 247.5ZM213.645 216.47C216.604 211.97 220.391 208.136 224.363 204.527C245.33 185.472 270.065 179.511 297.482 186.751C305.03 188.745 318.775 193.088 322.902 200.148C321.202 203.267 314.571 209.78 311.316 211.972L311.022 212.167C313.572 212.125 316.437 212.244 318.934 211.74L321.728 211.334C325.526 209.51 329.347 205.612 330.774 201.596L330.974 200.918C322.875 188.503 305.004 182.927 291.391 180.056C262.12 173.882 231.007 186.135 215.797 212.125C215.05 213.401 213.617 214.924 213.645 216.47Z" fill="#6B16FD"/>
<path d="M389.409 249.818L397.707 249.747C404.994 249.736 409.703 251.029 415.75 255.662C428.684 265.573 426.831 279.953 423.646 294.054C405.714 373.449 350.584 421.087 270.164 420.877C233.846 420.782 201.791 409.28 173.118 386.661C141.425 362.036 123.333 331.208 161.793 302.095C167.61 297.692 174.291 293.406 181.623 292.156L182.125 292.084C207.223 288.096 216.777 307.056 233.064 318.343C269.431 343.547 324.431 325.13 336.055 281.475L337.953 273C338.805 268.345 339.583 263.275 342.477 259.379C352.228 246.251 375.281 252.024 389.409 249.818ZM382.634 262.084L367.324 263.029C351.663 264.7 352.398 269.575 348.314 283.472C332.422 337.553 263.876 362.754 219.83 322.819C209.943 313.856 201.836 303.901 187.065 304.617C174.331 305.235 156.187 323.162 154.451 335.75L154.388 336.188C154.065 338.638 154.077 341.588 154.61 344L154.672 344.3C157.543 357.921 169.601 368.57 180.157 376.653C242.302 426.171 331.72 418.83 381.512 356.185C393.393 341.237 415.924 297.282 413.654 276.72C412.299 264.445 400.46 261.986 390.531 261.993L382.634 262.084Z" fill="#00112B"/>
<path d="M388.645 269.004C395.447 268.801 402.731 268.104 407.175 274.47C415.931 287.011 394.798 328.739 386.224 342.25C370.127 367.619 341.61 389.821 312.625 398.369C267.703 411.617 216.579 400.906 179.987 371.93L178.837 371.016C171.497 364.956 164.234 356.458 163.349 346.606C162.158 333.357 173.038 316.574 186.296 313.413C199.069 310.368 208.738 319.508 218.209 326.55C246.47 347.563 270.145 353.811 303.181 342.017C329.053 332.78 342.462 319.142 352.08 293.543L355.955 282.622C360.578 268.953 360.249 270.623 373.5 269.837L379.125 269.229C382.272 268.98 385.489 269.039 388.645 269.004Z" fill="#FCD004"/>
<path d="M142.925 247.5L133.093 245.677C132.682 247.891 133.031 250.179 134.082 252.169L142.925 247.5ZM185.706 251.22L185.718 241.22H185.716L185.706 251.22ZM202.974 241.246L193.542 237.923C193.525 237.973 193.508 238.022 193.491 238.072L202.974 241.246ZM206.76 230.5L197.501 226.723C197.439 226.873 197.382 227.025 197.328 227.177L206.76 230.5ZM213.645 216.47L205.29 210.976C204.96 211.478 204.676 212.008 204.441 212.561L213.645 216.47ZM224.363 204.527L231.088 211.928L231.089 211.928L224.363 204.527ZM297.482 186.751L300.036 177.083L300.035 177.083L297.482 186.751ZM322.902 200.148L331.682 204.934C333.36 201.857 333.304 198.127 331.535 195.102L322.902 200.148ZM311.316 211.972L316.843 220.306C316.863 220.293 316.882 220.28 316.902 220.267L311.316 211.972ZM311.022 212.167L305.495 203.834C301.793 206.289 300.155 210.891 301.472 215.132C302.789 219.374 306.746 222.239 311.187 222.166L311.022 212.167ZM318.934 211.74L317.406 201.858C317.255 201.881 317.105 201.908 316.956 201.938L318.934 211.74ZM321.728 211.308L322.624 201.348C321.816 201.276 321.002 201.302 320.2 201.426L321.728 211.308ZM335.758 210.662L334.876 200.701L334.867 200.702L335.758 210.662ZM353.598 209.083L352.724 199.121L352.716 199.122L353.598 209.083ZM373.252 207.571L374.661 217.471C378.695 216.897 381.977 213.933 382.958 209.978L373.252 207.571ZM373.579 203.5L363.623 202.568C363.613 202.675 363.604 202.783 363.598 202.89L373.579 203.5ZM374.082 198.125L384.039 199.057C384.046 198.982 384.052 198.907 384.057 198.831L374.082 198.125ZM374.311 179.88L384.311 179.887C384.311 179.837 384.311 179.787 384.31 179.738L374.311 179.88ZM373.834 146.398L383.833 146.256C383.832 146.185 383.83 146.114 383.828 146.043L373.834 146.398ZM373.398 142.375L380.961 135.833C378.747 133.273 375.388 132.007 372.035 132.468L373.398 142.375ZM372.533 142.494L371.17 132.587C368.511 132.953 366.111 134.373 364.509 136.526C362.907 138.68 362.238 141.387 362.653 144.039L372.533 142.494ZM359.322 155.455L354.701 164.324C356.598 165.312 358.761 165.666 360.874 165.334L359.322 155.455ZM349.714 148.319L343.724 156.326L343.724 156.326L349.714 148.319ZM276.938 128.726L276.94 118.726H276.939L276.938 128.726ZM232.806 133.845L235.802 143.386L235.802 143.386L232.806 133.845ZM144.304 237.694L134.507 235.692L134.507 235.692L144.304 237.694ZM134.082 252.169C135.674 255.184 138.237 256.557 139.096 256.996C140.285 257.602 141.467 257.987 142.363 258.239C144.196 258.754 146.309 259.116 148.333 259.39C152.467 259.95 157.639 260.327 162.657 260.589C172.761 261.115 183.2 261.218 185.696 261.22L185.716 241.22C183.425 241.218 173.349 241.119 163.698 240.616C158.838 240.363 154.322 240.019 151.018 239.571C149.323 239.341 148.28 239.127 147.777 238.986C147.504 238.909 147.724 238.945 148.187 239.181C148.321 239.25 150.395 240.231 151.768 242.831L134.082 252.169ZM185.694 261.22C186.989 261.222 188.161 261.249 189.309 261.277C190.405 261.304 191.604 261.335 192.713 261.328C194.777 261.315 197.902 261.201 201.033 259.871C208.113 256.865 210.668 249.765 212.457 244.42L193.491 238.072C192.547 240.893 191.976 242.086 191.688 242.554C191.574 242.739 192.056 241.955 193.217 241.462C193.948 241.151 194.208 241.318 192.584 241.328C191.851 241.333 191 241.312 189.797 241.283C188.645 241.255 187.268 241.222 185.718 241.22L185.694 261.22ZM212.406 244.569L216.192 233.823L197.328 227.177L193.542 237.923L212.406 244.569ZM216.019 234.277C216.794 232.378 217.78 230.479 219.022 228.135C220.19 225.929 221.636 223.235 222.849 220.379L204.441 212.561C203.628 214.475 202.621 216.37 201.348 218.774C200.148 221.039 198.705 223.771 197.501 226.723L216.019 234.277ZM222 221.964C224.27 218.512 227.329 215.344 231.088 211.928L217.638 197.126C213.453 200.928 208.938 205.428 205.29 210.976L222 221.964ZM231.089 211.928C249.527 195.17 270.763 190.038 294.929 196.42L300.035 177.083C269.367 168.984 241.133 175.774 217.637 197.127L231.089 211.928ZM294.928 196.419C298.496 197.362 303.199 198.779 307.349 200.659C311.988 202.76 313.889 204.545 314.269 205.195L331.535 195.102C327.788 188.691 320.753 184.775 315.601 182.441C309.959 179.885 304.016 178.134 300.036 177.083L294.928 196.419ZM314.122 195.362C314.182 195.251 313.964 195.634 313.18 196.565C312.486 197.39 311.592 198.36 310.598 199.36C308.479 201.493 306.548 203.127 305.73 203.678L316.902 220.267C319.339 218.625 322.352 215.907 324.786 213.456C327.056 211.171 330.079 207.875 331.682 204.934L314.122 195.362ZM305.789 203.639L305.495 203.834L316.549 220.501L316.843 220.306L305.789 203.639ZM311.187 222.166C312.828 222.139 317.229 222.286 320.913 221.542L316.956 201.938C315.645 202.202 314.316 202.112 310.857 202.168L311.187 222.166ZM320.462 221.623L323.256 221.191L320.2 201.426L317.406 201.858L320.462 221.623ZM320.832 221.268C326.641 221.79 332.713 220.974 336.649 220.622L334.867 200.702C329.567 201.176 326.112 201.662 322.624 201.348L320.832 221.268ZM336.64 220.623L354.48 219.044L352.716 199.122L334.876 200.701L336.64 220.623ZM354.472 219.045C357.525 218.777 360.554 218.643 364.029 218.44C367.378 218.245 371.011 217.991 374.661 217.471L371.843 197.671C369.057 198.067 366.11 198.285 362.865 198.474C359.746 198.656 356.166 198.819 352.724 199.121L354.472 219.045ZM382.958 209.978C383.355 208.378 383.451 206.908 383.493 206.015C383.566 204.444 383.508 204.966 383.56 204.11L363.598 202.89C363.567 203.397 363.552 203.881 363.543 204.225C363.531 204.617 363.525 204.851 363.514 205.085C363.491 205.584 363.464 205.494 363.546 205.164L382.958 209.978ZM383.536 204.432L384.039 199.057L364.126 197.193L363.623 202.568L383.536 204.432ZM384.057 198.831C384.517 192.335 384.307 185.48 384.311 179.887L364.311 179.874C364.307 186.377 364.501 191.854 364.107 197.419L384.057 198.831ZM384.31 179.738L383.833 146.256L363.835 146.541L364.312 180.023L384.31 179.738ZM383.828 146.043C383.84 146.396 383.808 146.601 383.837 146.306C383.846 146.215 383.941 145.376 383.967 144.61C384.028 142.734 383.805 139.12 380.961 135.833L365.835 148.917C365.022 147.977 364.487 146.89 364.208 145.828C363.956 144.868 363.971 144.143 363.977 143.954C363.981 143.849 363.986 143.807 363.979 143.887C363.966 144.032 363.964 144.033 363.933 144.347C363.892 144.76 363.802 145.682 363.84 146.753L383.828 146.043ZM372.035 132.468L371.17 132.587L373.896 152.401L374.761 152.282L372.035 132.468ZM362.653 144.039C362.366 142.205 363.079 141.236 362.884 141.561C362.739 141.802 362.277 142.404 361.363 143.196C360.49 143.952 359.493 144.631 358.602 145.116C358.164 145.353 357.826 145.505 357.61 145.588C357.36 145.683 357.428 145.63 357.771 145.576L360.874 165.334C363.588 164.908 366.171 163.765 368.155 162.687C370.289 161.526 372.477 160.029 374.459 158.312C376.399 156.631 378.461 154.464 380.02 151.873C381.529 149.366 383.125 145.504 382.413 140.949L362.653 144.039ZM363.943 146.587C363.092 146.143 362.085 145.44 360.652 144.29C359.527 143.387 357.415 141.592 355.704 140.312L343.724 156.326C345.153 157.395 346.109 158.264 348.135 159.889C349.853 161.268 352.08 162.958 354.701 164.324L363.943 146.587ZM355.704 140.312C332.527 122.972 302.832 118.731 276.94 118.726L276.936 138.726C301.288 138.731 325.711 142.85 343.724 156.326L355.704 140.312ZM276.939 118.726C262.164 118.724 245.411 119.405 229.81 124.305L235.802 143.386C248.309 139.458 262.46 138.724 276.937 138.726L276.939 118.726ZM229.81 124.304C178.789 140.327 144.797 185.34 134.507 235.692L154.102 239.696C163.211 195.122 192.939 156.846 235.802 143.386L229.81 124.304ZM134.507 235.692C134.074 237.81 133.838 239.86 133.654 241.474C133.456 243.219 133.316 244.473 133.093 245.677L152.757 249.323C153.135 247.285 153.352 245.266 153.526 243.733C153.715 242.069 153.868 240.838 154.102 239.696L134.507 235.692ZM220.878 20.1074L220.889 0.107426C220.738 0.10734 220.587 0.108971 220.436 0.112316L220.878 20.1074ZM298.922 20.1514L299.486 0.159376C299.302 0.154181 299.118 0.151529 298.933 0.151426L298.922 20.1514ZM306.03 20.674L305.72 40.6716C305.778 40.6725 305.835 40.6731 305.892 40.6735L306.03 20.674ZM329.038 20.833L330.026 0.857449C329.743 0.843443 329.46 0.835459 329.176 0.8335L329.038 20.833ZM383.067 23.5057L384.34 3.54629C384.245 3.54023 384.15 3.53485 384.055 3.53015L383.067 23.5057ZM476.151 59.0391L461.984 73.156L461.984 73.1561L476.151 59.0391ZM518.054 166.75L537.953 164.743C537.926 164.479 537.894 164.215 537.857 163.952L518.054 166.75ZM522.558 211.408L542.558 211.305C542.555 210.669 542.521 210.034 542.457 209.401L522.558 211.408ZM522.719 242.724L542.719 242.759C542.719 242.713 542.719 242.667 542.719 242.621L522.719 242.724ZM518.725 310.684L538.66 312.291V312.291L518.725 310.684ZM510.749 380.625L491.024 377.321L491.024 377.321L510.749 380.625ZM431.902 491.125L438.05 510.157L438.05 510.157L431.902 491.125ZM381.75 498.285L382.268 518.278C382.392 518.275 382.517 518.271 382.641 518.265L381.75 498.285ZM356.875 498.929L356.357 478.936C356.283 478.938 356.209 478.94 356.135 478.943L356.875 498.929ZM351.79 499.311L352.096 519.309C352.15 519.308 352.205 519.307 352.259 519.306L351.79 499.311ZM320.484 499.79L320.75 519.788C320.764 519.788 320.777 519.788 320.79 519.788L320.484 499.79ZM239 500.875L238.99 520.875C239.082 520.875 239.174 520.875 239.266 520.873L239 500.875ZM155.75 498L153.99 517.923L153.991 517.923L155.75 498ZM112.203 491.123L106.203 510.202L106.203 510.202L112.203 491.123ZM43.9401 425.356L62.6847 418.382L62.6846 418.381L43.9401 425.356ZM36.866 402.91L56.013 397.131L56.013 397.131L36.866 402.91ZM21.2171 315.624L41.1735 314.304C41.1693 314.241 41.1647 314.177 41.1599 314.113L21.2171 315.624ZM20.2943 303.442L0.29438 303.37C0.292473 303.898 0.311489 304.426 0.351389 304.953L20.2943 303.442ZM20.4676 255.472L0.489557 254.536C0.476063 254.824 0.468792 255.112 0.467751 255.4L20.4676 255.472ZM21.057 250.082L1.14382 248.221C1.12277 248.446 1.10555 248.672 1.09215 248.897L21.057 250.082ZM29.1146 163.875L9.23525 161.682C9.22305 161.792 9.21177 161.903 9.20142 162.014L29.1146 163.875ZM68.0901 58.2684L82.2003 72.4424L82.2003 72.4424L68.0901 58.2684ZM167.587 22.0468L166.445 2.07945C166.387 2.08278 166.329 2.08636 166.27 2.0902L167.587 22.0468ZM189.267 20.8068L188.825 0.811716C188.591 0.816879 188.358 0.826126 188.125 0.839455L189.267 20.8068ZM191.263 486.775L190.239 506.749C190.436 506.759 190.634 506.766 190.832 506.77L191.263 486.775ZM240.862 487.844L241.424 467.852C241.38 467.851 241.337 467.85 241.293 467.849L240.862 487.844ZM248.202 488.616L247.834 508.613C247.965 508.615 248.096 508.616 248.227 508.616L248.202 488.616ZM351.801 488.489L351.826 508.489C352.125 508.489 352.423 508.482 352.722 508.468L351.801 488.489ZM357.375 487.876L356.519 467.894C356.406 467.899 356.292 467.905 356.178 467.912L357.375 487.876ZM379.841 486.914L380.697 506.896C380.735 506.894 380.774 506.892 380.813 506.891L379.841 486.914ZM478.912 442.798L462.114 431.944L462.113 431.945L478.912 442.798ZM507.84 297.377L527.792 298.763C527.796 298.709 527.799 298.654 527.803 298.6L507.84 297.377ZM510.696 250.75L530.659 251.973C530.684 251.559 530.696 251.144 530.696 250.729L510.696 250.75ZM510.652 208.242L530.652 208.221C530.652 207.964 530.647 207.707 530.636 207.451L510.652 208.242ZM505.752 166.172L486.021 169.441C486.073 169.752 486.131 170.062 486.198 170.371L505.752 166.172ZM501.078 137.956L520.809 134.688C520.755 134.36 520.692 134.034 520.622 133.709L501.078 137.956ZM417.875 37.7486L413.491 57.2623L413.491 57.2623L417.875 37.7486ZM389.494 34.0502L391.2 14.1231C390.993 14.1054 390.786 14.0909 390.579 14.0797L389.494 34.0502ZM356.75 32.2711L357.835 12.3006C357.742 12.2955 357.648 12.2911 357.555 12.2873L356.75 32.2711ZM349.702 31.7313L350.136 11.736C350.015 11.7334 349.893 11.7319 349.771 11.7314L349.702 31.7313ZM327.941 31.6558L327.742 51.6548C327.785 51.6553 327.828 51.6556 327.872 51.6557L327.941 31.6558ZM319.431 30.9647L319.701 10.9665C319.612 10.9653 319.522 10.9647 319.432 10.9647L319.431 30.9647ZM189.523 30.9606L189.524 10.9606C189.069 10.9606 188.615 10.9761 188.161 11.007L189.523 30.9606ZM148.065 33.7899L146.703 13.8363C146.367 13.8593 146.032 13.8907 145.698 13.9305L148.065 33.7899ZM69.1682 72.6089L53.4211 60.2789L53.4211 60.279L69.1682 72.6089ZM43.6169 138.625L23.8022 135.909C23.7779 136.086 23.756 136.264 23.7365 136.442L43.6169 138.625ZM36.2443 205.75L16.3639 203.567C16.3414 203.771 16.3222 203.975 16.306 204.18L36.2443 205.75ZM31.68 263.719L11.7417 262.149C11.7223 262.396 11.7074 262.644 11.6971 262.892L31.68 263.719ZM37.6526 362.135L18.0027 365.861L18.0027 365.861L37.6526 362.135ZM68.0687 447.692L84.2067 435.878L84.2065 435.878L68.0687 447.692ZM132.443 483.758L129.664 503.564C130.246 503.646 130.832 503.702 131.419 503.732L132.443 483.758ZM256.005 62.1206L255.996 42.1206C255.984 42.1206 255.972 42.1206 255.96 42.1207L256.005 62.1206ZM331.451 62.0856L331.46 82.0856C331.473 82.0856 331.487 82.0856 331.5 82.0856L331.451 62.0856ZM342.843 69.0997L362.243 73.9604C362.271 73.8482 362.299 73.7357 362.325 73.623L342.843 69.0997ZM342.774 69.3751L323.374 64.5144C323.346 64.6239 323.32 64.7336 323.294 64.8435L342.774 69.3751ZM324.511 74.5621L324.505 54.5621C324.499 54.5621 324.494 54.5621 324.488 54.5621L324.511 74.5621ZM254.953 74.6406L254.93 54.6406C254.855 54.6407 254.779 54.6412 254.703 54.6422L254.953 74.6406ZM247.75 75.2625L247.808 95.2624C248.047 95.2617 248.286 95.2568 248.524 95.2475L247.75 75.2625ZM233.264 75.3046L233.206 55.3047C232.932 55.3055 232.657 55.3119 232.383 55.324L233.264 75.3046ZM166.625 78.242L167.404 98.2268C167.438 98.2255 167.472 98.2241 167.506 98.2226L166.625 78.242ZM130.368 83.2056L136.735 102.165L136.735 102.165L130.368 83.2056ZM87.1619 143.617L67.364 140.781C67.3462 140.906 67.3295 141.031 67.314 141.156L87.1619 143.617ZM78.3721 214.495L58.5242 212.034C58.4834 212.362 58.4508 212.692 58.4264 213.023L78.3721 214.495ZM73.3975 281.875L53.4518 280.403C53.406 281.023 53.3892 281.645 53.4013 282.266L73.3975 281.875ZM74.2596 325.932L54.2634 326.323C54.2714 326.729 54.2916 327.134 54.3242 327.538L74.2596 325.932ZM78.7247 381.353L58.7893 382.959C58.7941 383.019 58.7992 383.078 58.8045 383.138L78.7247 381.353ZM73.8165 396.394L67.7711 415.459C71.411 416.613 75.3053 416.701 78.9937 415.712L73.8165 396.394ZM67.1058 380.164L47.1592 381.624C47.1635 381.684 47.1682 381.744 47.1731 381.804L67.1058 380.164ZM61.8808 308.76L41.8809 308.703C41.8795 309.209 41.8972 309.715 41.9341 310.22L61.8808 308.76ZM61.9748 275.634L42.0352 274.082C41.9964 274.579 41.9763 275.078 41.9749 275.577L61.9748 275.634ZM69.8092 175L50.0275 172.053C49.9586 172.516 49.9059 172.981 49.8696 173.448L69.8092 175ZM74.2917 144.911L54.5722 141.574C54.5502 141.704 54.5294 141.834 54.51 141.964L74.2917 144.911ZM136.538 68.4253L140.214 88.0846L140.214 88.0845L136.538 68.4253ZM168.75 65.5427L169.754 85.5175C169.759 85.5173 169.764 85.517 169.77 85.5167L168.75 65.5427ZM215.311 63.1655L216.331 83.1395C216.499 83.1309 216.666 83.1203 216.834 83.1075L215.311 63.1655ZM231.025 62.4241L234.947 82.0359L234.947 82.0359L231.025 62.4241ZM239.665 62.1576L239.62 42.1577C239.61 42.1577 239.599 42.1577 239.589 42.1578L239.665 62.1576ZM262.088 113.39L263.598 133.333L263.612 133.332L262.088 113.39ZM355.756 137.662L344.397 154.123C349.396 157.573 355.693 158.564 361.51 156.816C367.328 155.069 372.036 150.772 374.306 145.138L355.756 137.662ZM375.113 129.707L378.178 109.943L378.177 109.943L375.113 129.707ZM384.48 145.501L404.471 146.105C404.477 145.911 404.48 145.717 404.48 145.523L384.48 145.501ZM382.9 197.835L402.858 199.132C402.873 198.901 402.884 198.67 402.891 198.439L382.9 197.835ZM376.58 217.791L365.372 201.226C365.274 201.293 365.177 201.36 365.08 201.428L376.58 217.791ZM375.685 218.42L386.585 235.189C386.788 235.057 386.988 234.922 387.185 234.783L375.685 218.42ZM363.856 219.462L363.081 199.477C362.694 199.492 362.307 199.518 361.922 199.556L363.856 219.462ZM327.125 223.031L325.191 203.125C325.162 203.128 325.134 203.131 325.105 203.133L327.125 223.031ZM307.772 224.088L302.194 243.295C302.305 243.327 302.416 243.358 302.527 243.388L307.772 224.088ZM307.5 224.009L313.078 204.803C312.988 204.777 312.898 204.751 312.808 204.726L307.5 224.009ZM304.606 201.919L319.457 215.315C323.749 210.557 325.501 204.031 324.17 197.764C322.838 191.496 318.585 186.246 312.73 183.643L304.606 201.919ZM235.721 210.175L248.269 225.749C248.348 225.685 248.427 225.621 248.505 225.556L235.721 210.175ZM215.978 238.197L197.613 230.277L197.613 230.278L215.978 238.197ZM187.951 262.061L187.536 282.057C187.636 282.059 187.735 282.06 187.834 282.061L187.951 262.061ZM169.25 261.673L168.619 281.663C168.691 281.665 168.763 281.667 168.835 281.669L169.25 261.673ZM128.186 252.663L112.583 265.175C112.632 265.236 112.682 265.298 112.732 265.359L128.186 252.663ZM127.919 252.33L143.522 239.819C143.489 239.777 143.456 239.736 143.422 239.695L127.919 252.33ZM124.228 243.792L144.162 242.163C144.16 242.139 144.158 242.116 144.156 242.092L124.228 243.792ZM124.095 242.233L104.148 243.689C104.154 243.771 104.16 243.852 104.167 243.933L124.095 242.233ZM130.492 217.371L149.062 224.797L149.062 224.797L130.492 217.371ZM366.243 140.675L372.275 159.744C372.412 159.7 372.549 159.656 372.686 159.609L366.243 140.675ZM365.968 140.762L359.937 121.693C359.856 121.719 359.776 121.745 359.696 121.771L365.968 140.762ZM352.871 148.946L362.822 131.597L362.82 131.596L352.871 148.946ZM346.587 144.905L336.314 162.065L336.318 162.068L346.587 144.905ZM249.75 127.245L252.424 147.066L252.424 147.066L249.75 127.245ZM137.662 234.39L156.808 240.173L156.808 240.171L137.662 234.39ZM136.671 242.125L153.462 231.26C153.42 231.195 153.378 231.13 153.335 231.065L136.671 242.125ZM136.847 242.397L120.056 253.262C120.144 253.399 120.235 253.535 120.327 253.67L136.847 242.397ZM321.728 211.334L324.604 231.126C326.61 230.835 328.559 230.24 330.386 229.363L321.728 211.334ZM330.774 201.596L349.62 208.293C349.741 207.95 349.854 207.604 349.957 207.255L330.774 201.596ZM330.974 200.918L350.157 206.577C351.814 200.959 350.925 194.897 347.725 189.991L330.974 200.918ZM291.391 180.056L287.263 199.626L287.264 199.626L291.391 180.056ZM215.797 212.125L233.057 222.229L233.058 222.227L215.797 212.125ZM389.409 249.818L389.238 229.819C388.262 229.827 387.288 229.907 386.324 230.058L389.409 249.818ZM397.707 249.747L397.677 229.747C397.63 229.747 397.583 229.747 397.536 229.748L397.707 249.747ZM415.75 255.662L427.915 239.787L427.914 239.786L415.75 255.662ZM423.646 294.054L404.137 289.648L404.137 289.648L423.646 294.054ZM270.164 420.877L270.112 440.877H270.112L270.164 420.877ZM173.118 386.661L185.505 370.959C185.466 370.928 185.428 370.898 185.389 370.868L173.118 386.661ZM161.793 302.095L149.723 286.148L149.722 286.149L161.793 302.095ZM181.623 292.156L178.784 272.359C178.61 272.384 178.435 272.411 178.262 272.441L181.623 292.156ZM182.125 292.084L184.964 311.882C185.064 311.867 185.164 311.852 185.264 311.836L182.125 292.084ZM233.064 318.343L244.456 301.905L244.456 301.905L233.064 318.343ZM336.055 281.475L355.382 286.621C355.45 286.364 355.513 286.106 355.572 285.846L336.055 281.475ZM337.953 273L357.47 277.371C357.527 277.115 357.579 276.859 357.626 276.601L337.953 273ZM342.477 259.379L358.532 271.305L358.533 271.305L342.477 259.379ZM382.634 262.084L382.404 242.085C382.069 242.089 381.735 242.102 381.402 242.122L382.634 262.084ZM367.324 263.029L366.092 243.067C365.795 243.085 365.498 243.11 365.202 243.142L367.324 263.029ZM348.314 283.472L329.125 277.833L329.125 277.833L348.314 283.472ZM219.83 322.819L233.264 308.002L233.263 308.002L219.83 322.819ZM187.065 304.617L186.097 284.641L186.096 284.641L187.065 304.617ZM154.451 335.75L174.247 338.598C174.253 338.559 174.258 338.521 174.264 338.482L154.451 335.75ZM154.388 336.188L134.592 333.34C134.581 333.418 134.57 333.496 134.56 333.574L154.388 336.188ZM154.61 344L174.196 339.952C174.178 339.863 174.159 339.774 174.139 339.685L154.61 344ZM154.672 344.3L135.086 348.348C135.091 348.374 135.097 348.399 135.102 348.425L154.672 344.3ZM180.157 376.653L192.621 361.011C192.52 360.931 192.418 360.852 192.316 360.774L180.157 376.653ZM381.512 356.185L397.169 368.63L397.169 368.63L381.512 356.185ZM413.654 276.72L393.775 278.915L393.775 278.915L413.654 276.72ZM390.531 261.993L390.517 241.993C390.445 241.993 390.373 241.994 390.301 241.994L390.531 261.993ZM388.645 269.004L388.867 289.003C388.992 289.001 389.117 288.999 389.242 288.995L388.645 269.004ZM407.175 274.47L390.776 285.918L390.776 285.919L407.175 274.47ZM386.224 342.25L369.337 331.534L369.337 331.535L386.224 342.25ZM312.625 398.369L306.968 379.186L312.625 398.369ZM179.987 371.93L167.543 387.587C167.552 387.595 167.562 387.602 167.571 387.609L179.987 371.93ZM178.837 371.016L166.104 386.439C166.199 386.518 166.296 386.596 166.393 386.673L178.837 371.016ZM163.349 346.606L183.269 344.817L183.269 344.815L163.349 346.606ZM186.296 313.413L181.658 293.958L181.658 293.958L186.296 313.413ZM218.209 326.55L230.142 310.5L218.209 326.55ZM303.181 342.017L309.905 360.853L309.906 360.853L303.181 342.017ZM352.08 293.543L370.802 300.577C370.845 300.462 370.888 300.347 370.929 300.231L352.08 293.543ZM355.955 282.622L374.804 289.31C374.837 289.217 374.869 289.123 374.901 289.03L355.955 282.622ZM373.5 269.837L374.684 289.802C375.007 289.783 375.328 289.756 375.649 289.721L373.5 269.837ZM379.125 269.229L377.548 249.291C377.357 249.307 377.166 249.324 376.976 249.345L379.125 269.229ZM220.867 40.1074L298.911 40.1514L298.933 0.151426L220.889 0.107426L220.867 40.1074ZM298.358 40.1435C298.702 40.1532 299.138 40.1904 300.5 40.3259C301.603 40.4357 303.579 40.6385 305.72 40.6716L306.34 0.676416C306.11 0.672859 305.723 0.647984 304.46 0.522377C303.456 0.422567 301.524 0.216875 299.486 0.159376L298.358 40.1435ZM305.892 40.6735L328.9 40.8325L329.176 0.8335L306.168 0.6745L305.892 40.6735ZM328.05 40.8086L382.079 43.4813L384.055 3.53015L330.026 0.857449L328.05 40.8086ZM381.794 43.4652C401.06 44.6941 414.854 46.274 427.005 50.3432C438.584 54.2206 449.559 60.6869 461.984 73.156L490.318 44.9222C473.99 28.5356 457.796 18.4709 439.707 12.4134C422.191 6.5477 403.82 4.78883 384.34 3.54629L381.794 43.4652ZM461.984 73.1561C483.881 95.131 492.996 132.364 498.251 169.549L537.857 163.952C532.652 127.116 522.549 77.2681 490.318 44.9222L461.984 73.1561ZM498.155 168.757L502.659 213.415L542.457 209.401L537.953 164.743L498.155 168.757ZM502.558 211.511L502.719 242.827L542.719 242.621L542.558 211.305L502.558 211.511ZM502.719 242.689C502.681 264.386 500.645 286.055 498.79 309.077L538.66 312.291C540.449 290.099 542.677 266.442 542.719 242.759L502.719 242.689ZM498.79 309.077C496.908 332.42 494.767 354.975 491.024 377.321L530.474 383.93C534.513 359.824 536.76 335.868 538.66 312.291L498.79 309.077ZM491.024 377.321C486.732 402.947 481.064 423.016 471.372 438.443C462.153 453.116 448.573 464.722 425.754 472.094L438.05 510.157C469.341 500.048 490.771 482.755 505.242 459.723C519.238 437.445 525.939 411.004 530.474 383.929L491.024 377.321ZM425.754 472.093C412.811 476.275 397.243 477.574 380.859 478.305L382.641 518.265C399.083 517.532 419.479 516.156 438.05 510.157L425.754 472.093ZM381.232 478.292L356.357 478.936L357.393 518.922L382.268 518.278L381.232 478.292ZM356.135 478.943C354.559 479.001 353.065 479.157 352.389 479.224C351.966 479.265 351.723 479.287 351.523 479.303C351.337 479.317 351.287 479.317 351.321 479.317L352.259 519.306C353.95 519.266 355.488 519.111 356.279 519.034C357.294 518.935 357.49 518.92 357.615 518.915L356.135 478.943ZM351.484 479.313L320.178 479.792L320.79 519.788L352.096 519.309L351.484 479.313ZM320.218 479.792L238.734 480.877L239.266 520.873L320.75 519.788L320.218 479.792ZM239.01 480.875C211.363 480.861 184.281 480.442 157.509 478.078L153.991 517.923C182.575 520.447 211.089 520.861 238.99 520.875L239.01 480.875ZM157.51 478.078C142.183 476.724 129.908 475.726 118.204 472.044L106.203 510.202C122.886 515.449 139.867 516.675 153.99 517.923L157.51 478.078ZM118.204 472.045C91.943 463.785 72.4576 444.649 62.6847 418.382L25.1955 432.33C39.0426 469.548 67.5481 498.044 106.203 510.202L118.204 472.045ZM62.6846 418.381C60.24 411.812 58.4842 405.319 56.013 397.131L17.7191 408.689C19.7798 415.517 22.166 424.188 25.1957 432.331L62.6846 418.381ZM56.013 397.131C47.2497 368.096 43.2128 345.136 41.1735 314.304L1.26068 316.944C3.48927 350.637 8.03409 376.6 17.7191 408.689L56.013 397.131ZM41.1599 314.113L40.2371 301.931L0.351389 304.953L1.27421 317.135L41.1599 314.113ZM40.2941 303.514L40.4675 255.544L0.467751 255.4L0.29438 303.37L40.2941 303.514ZM40.4457 256.409C40.4405 256.519 40.433 256.47 40.5664 255.503C40.663 254.804 40.9132 253.099 41.0219 251.267L1.09215 248.897C1.09357 248.873 1.092 248.948 0.942112 250.034C0.829142 250.852 0.580585 252.594 0.489557 254.536L40.4457 256.409ZM40.9702 251.943L49.0278 165.736L9.20142 162.014L1.14382 248.221L40.9702 251.943ZM48.994 166.068C53.1736 128.186 59.7529 94.7887 82.2003 72.4424L53.9799 44.0944C20.487 77.4365 13.3417 124.462 9.23525 161.682L48.994 166.068ZM82.2003 72.4424C105.918 48.8315 130.519 44.5357 168.904 42.0034L166.27 2.0902C126.265 4.72935 88.6546 9.57578 53.9799 44.0944L82.2003 72.4424ZM168.729 42.0142L190.409 40.7742L188.125 0.839455L166.445 2.07945L168.729 42.0142ZM189.709 40.8019L221.32 40.1025L220.436 0.112316L188.825 0.811716L189.709 40.8019ZM190.832 506.77L240.431 507.839L241.293 467.849L191.694 466.78L190.832 506.77ZM240.3 507.836C240.164 507.832 240.206 507.816 241.649 508.028C242.686 508.18 245.137 508.563 247.834 508.613L248.57 468.62C248.824 468.624 248.85 468.656 247.451 468.451C246.457 468.305 244.051 467.926 241.424 467.852L240.3 507.836ZM248.227 508.616L351.826 508.489L351.777 468.489L248.177 468.616L248.227 508.616ZM352.722 508.468C354.708 508.376 356.497 508.12 357.35 508.002C358.486 507.844 358.58 507.84 358.572 507.84L356.178 467.912C354.318 468.023 352.569 468.282 351.852 468.381C350.853 468.52 350.781 468.515 350.88 468.51L352.722 508.468ZM358.231 507.858L380.697 506.896L378.985 466.932L356.519 467.894L358.231 507.858ZM380.813 506.891C420.055 504.982 466.951 498.166 495.711 453.652L462.113 431.945C444.875 458.626 416.813 465.092 378.869 466.938L380.813 506.891ZM495.71 453.652C508.537 433.802 515.533 403.197 519.854 375.647C524.327 347.137 526.457 317.977 527.792 298.763L487.888 295.991C486.553 315.205 484.514 342.821 480.338 369.449C476.01 397.036 469.878 419.928 462.114 431.944L495.71 453.652ZM527.803 298.6L530.659 251.973L490.733 249.527L487.877 296.154L527.803 298.6ZM530.696 250.729L530.652 208.221L490.652 208.263L490.696 250.771L530.696 250.729ZM530.636 207.451C530.066 193.057 528.5 176.849 525.306 161.973L486.198 170.371C488.764 182.321 490.156 196.108 490.668 209.034L530.636 207.451ZM525.483 162.904L520.809 134.688L481.347 141.225L486.021 169.441L525.483 162.904ZM520.622 133.709C509.975 84.7119 483.963 32.0965 422.259 18.2349L413.491 57.2623C452.205 65.9592 472.065 98.6257 481.534 142.203L520.622 133.709ZM422.259 18.235C411.386 15.7924 400.4 14.9107 391.2 14.1231L387.788 53.9773C397.562 54.814 405.748 55.5226 413.491 57.2623L422.259 18.235ZM390.579 14.0797L357.835 12.3006L355.665 52.2417L388.409 54.0208L390.579 14.0797ZM357.555 12.2873C357.093 12.2687 356.579 12.2194 355.215 12.0835C354.077 11.9701 352.194 11.7807 350.136 11.736L349.268 51.7266C349.585 51.7335 350.047 51.7666 351.249 51.8864C352.226 51.9837 354.048 52.1785 355.945 52.2549L357.555 12.2873ZM349.771 11.7314L328.01 11.6559L327.872 51.6557L349.633 51.7312L349.771 11.7314ZM328.14 11.6568C327.95 11.6549 327.586 11.6317 326.01 11.4483C324.773 11.3043 322.336 11.0022 319.701 10.9665L319.161 50.9629C319.403 50.9662 319.799 50.9954 321.386 51.1802C322.635 51.3255 325.088 51.6284 327.742 51.6548L328.14 11.6568ZM319.432 10.9647L189.524 10.9606L189.522 50.9606L319.43 50.9647L319.432 10.9647ZM188.161 11.007L146.703 13.8363L149.427 53.7435L190.885 50.9142L188.161 11.007ZM145.698 13.9305C112.159 17.9284 78.3066 28.4967 53.4211 60.2789L84.9153 84.9389C100.435 65.1178 121.871 57.0538 150.432 53.6493L145.698 13.9305ZM53.4211 60.279C37.8954 80.1074 26.9945 112.618 23.8022 135.909L63.4317 141.341C65.999 122.61 75.0656 97.5184 84.9153 84.9389L53.4211 60.279ZM23.7365 136.442L16.3639 203.567L56.1248 207.934L63.4974 140.809L23.7365 136.442ZM16.306 204.18L11.7417 262.149L51.6183 265.289L56.1826 207.32L16.306 204.18ZM11.6971 262.892C10.2438 297.998 11.224 330.108 18.0027 365.861L57.3025 358.409C51.268 326.582 50.2899 297.713 51.6629 264.546L11.6971 262.892ZM18.0027 365.861C20.5098 379.083 24.703 396.386 30.2121 413.113C35.573 429.389 42.7772 447.002 51.9309 459.506L84.2065 435.878C78.8908 428.617 73.2518 415.924 68.2044 400.599C63.3052 385.725 59.5252 370.132 57.3025 358.409L18.0027 365.861ZM51.9308 459.506C70.8472 485.346 100.744 499.507 129.664 503.564L135.222 463.952C114.419 461.034 95.3499 451.1 84.2067 435.878L51.9308 459.506ZM131.419 503.732L190.239 506.749L192.288 466.801L133.468 463.784L131.419 503.732ZM256.014 82.1206L331.46 82.0856L331.442 42.0856L255.996 42.1206L256.014 82.1206ZM331.5 82.0856C333.212 82.0814 333.562 82.0526 334.336 82.0872C335.044 82.1188 334.505 82.1731 333.355 81.8109C332.269 81.4687 328.472 80.0648 325.634 75.7091C322.507 70.9088 322.957 66.3172 323.361 64.5765L362.325 73.623C363.612 68.077 363.599 60.7047 359.149 53.8742C354.988 47.4884 349.01 44.8046 345.373 43.659C339.065 41.6721 331.664 42.085 331.402 42.0857L331.5 82.0856ZM323.443 64.239L323.374 64.5144L362.174 74.2358L362.243 73.9604L323.443 64.239ZM323.294 64.8435C323.677 63.1977 324.447 61.3873 325.722 59.6859C326.979 58.01 328.409 56.8611 329.641 56.119C331.834 54.7978 333.405 54.7518 332.924 54.8025C332.61 54.8356 331.861 54.8624 330.276 54.7922C329.442 54.7551 328.847 54.7174 327.798 54.6633C326.939 54.6189 325.733 54.5617 324.505 54.5621L324.517 94.5621C325.296 94.5619 325.659 94.6268 328.505 94.7529C330.584 94.8451 333.748 94.9374 337.118 94.582C340.321 94.2443 345.346 93.3559 350.283 90.3813C355.912 86.99 360.511 81.3979 362.254 73.9068L323.294 64.8435ZM324.488 54.5621L254.93 54.6406L254.976 94.6406L324.534 94.5621L324.488 54.5621ZM254.703 54.6422C252.318 54.672 250.174 54.9274 249.008 55.064C247.54 55.2359 247.225 55.2679 246.976 55.2775L248.524 95.2475C250.675 95.1642 252.739 94.9004 253.662 94.7923C254.242 94.7244 254.587 94.6868 254.87 94.6622C255.134 94.6392 255.223 94.6388 255.203 94.6391L254.703 54.6422ZM247.692 55.2626L233.206 55.3047L233.322 95.3045L247.808 95.2624L247.692 55.2626ZM232.383 55.324L165.744 58.2614L167.506 98.2226L234.145 95.2852L232.383 55.324ZM165.846 58.2572C154.235 58.7099 138.542 59.3629 124.001 64.2461L136.735 102.165C145.034 99.3783 155.113 98.7061 167.404 98.2268L165.846 58.2572ZM124.001 64.2461C104.952 70.6429 91.2952 81.4341 82.1181 95.9099C73.3388 109.758 69.5342 125.632 67.364 140.781L106.96 146.453C108.83 133.396 111.601 124.11 115.901 117.327C119.803 111.172 125.729 105.861 136.735 102.165L124.001 64.2461ZM67.314 141.156L58.5242 212.034L98.2201 216.957L107.01 146.079L67.314 141.156ZM58.4264 213.023L53.4518 280.403L93.3432 283.348L98.3178 215.968L58.4264 213.023ZM53.4013 282.266L54.2634 326.323L94.2558 325.541L93.3937 281.484L53.4013 282.266ZM54.3242 327.538L58.7893 382.959L98.6601 379.747L94.195 324.326L54.3242 327.538ZM58.8045 383.138C58.9144 384.365 59.062 385.502 59.1749 386.342C59.3064 387.32 59.3768 387.806 59.4469 388.389C59.5943 389.614 59.4543 389.198 59.5717 388.153C59.7215 386.819 60.3458 383.905 62.762 381.062C65.1679 378.231 67.7933 377.303 68.6393 377.076L78.9937 415.712C83.7988 414.425 89.0861 411.855 93.2409 406.966C97.4058 402.066 98.8656 396.678 99.3216 392.618C99.7452 388.847 99.3821 385.454 99.1609 383.613C98.8198 380.777 98.7618 380.873 98.6449 379.569L58.8045 383.138ZM79.8619 377.33C81.3423 377.799 83.4387 378.934 85.1943 381.071C86.794 383.018 87.2709 384.782 87.3773 385.238C87.4567 385.579 87.3834 385.447 87.3171 384.078C87.2826 383.365 87.268 382.835 87.2266 381.792C87.1911 380.898 87.1391 379.748 87.0385 378.525L47.1731 381.804C47.2716 383 47.2376 383.405 47.3639 386.013C47.4562 387.917 47.6497 391.009 48.4228 394.324C49.2229 397.754 50.8203 402.242 54.2859 406.461C57.9075 410.87 62.6153 413.824 67.7711 415.459L79.8619 377.33ZM87.0525 378.705L81.8275 307.301L41.9341 310.22L47.1592 381.624L87.0525 378.705ZM81.8807 308.817L81.9747 275.691L41.9749 275.577L41.8809 308.703L81.8807 308.817ZM81.9145 277.186L89.7489 176.552L49.8696 173.448L42.0352 274.082L81.9145 277.186ZM89.5909 177.947L94.0734 147.858L54.51 141.964L50.0275 172.053L89.5909 177.947ZM94.0113 148.249C97.1156 129.907 101.483 116.351 108.305 106.75C114.525 97.9969 123.749 91.1633 140.214 88.0846L132.862 48.766C107.029 53.5965 88.3947 65.7143 75.6989 83.5806C63.6053 100.599 57.998 121.332 54.5722 141.574L94.0113 148.249ZM140.214 88.0845C149.124 86.4184 158.472 86.0844 169.754 85.5175L167.746 45.5679C157.637 46.0759 145.062 46.4846 132.862 48.7661L140.214 88.0845ZM169.77 85.5167L216.331 83.1395L214.291 43.1915L167.73 45.5687L169.77 85.5167ZM216.834 83.1075C218.437 82.985 219.821 83.0389 223.288 83.0244C226.128 83.0126 230.418 82.9414 234.947 82.0359L227.103 42.8124C226.614 42.9103 225.606 43.0144 223.122 43.0248C221.266 43.0325 217.302 42.9553 213.788 43.2236L216.834 83.1075ZM234.947 82.0359C234.349 82.1554 234.25 82.0894 235.288 82.0912C235.768 82.092 236.278 82.1037 237.061 82.1219C237.756 82.1381 238.736 82.1613 239.741 82.1575L239.589 42.1578C239.207 42.1592 238.752 42.1505 237.992 42.1328C237.319 42.1171 236.352 42.093 235.357 42.0913C233.448 42.0879 230.416 42.1499 227.103 42.8124L234.947 82.0359ZM239.71 82.1576L256.05 82.1206L255.96 42.1207L239.62 42.1577L239.71 82.1576ZM263.612 133.332C290.404 131.284 323.091 139.42 344.397 154.123L367.115 121.201C337.615 100.844 295.662 90.7659 260.564 93.4483L263.612 133.332ZM374.306 145.138C374.049 145.777 373.47 146.767 372.437 147.698C371.439 148.597 370.48 149.027 369.941 149.203C369.46 149.361 369.365 149.305 369.829 149.291C370.282 149.278 371.019 149.311 372.049 149.471L378.177 109.943C372.683 109.091 365.123 108.688 357.477 111.195C348.96 113.988 341.242 120.172 337.206 130.186L374.306 145.138ZM372.048 149.471C371.895 149.447 370.366 149.172 368.499 147.775C366.527 146.3 365.365 144.464 364.792 143.08C364.318 141.937 364.345 141.345 364.403 141.986C364.463 142.649 364.482 143.571 364.48 145.479L404.48 145.523C404.483 142.882 404.746 135.012 401.746 127.772C399.987 123.524 397.059 119.187 392.463 115.748C387.971 112.387 382.957 110.685 378.178 109.943L372.048 149.471ZM364.489 144.898L362.909 197.232L402.891 198.439L404.471 146.105L364.489 144.898ZM362.942 196.538C362.863 197.763 362.819 198.934 362.786 199.9C362.75 200.961 362.73 201.685 362.696 202.483C362.628 204.049 362.541 204.737 362.481 205.053C362.435 205.299 362.512 204.7 363.052 203.763C363.664 202.699 364.522 201.802 365.372 201.226L387.788 234.356C396.946 228.159 400.465 219.436 401.779 212.514C402.732 207.497 402.811 199.851 402.858 199.132L362.942 196.538ZM365.08 201.428L364.185 202.057L387.185 234.783L388.08 234.154L365.08 201.428ZM364.785 201.652C366.955 200.241 368.812 199.832 369.466 199.712C369.845 199.643 370.084 199.625 370.133 199.622C370.185 199.618 370.131 199.624 369.933 199.624C369.736 199.624 369.465 199.619 369.073 199.604C368.655 199.588 368.26 199.568 367.669 199.54C367.142 199.515 366.446 199.484 365.725 199.466C365.004 199.448 364.086 199.438 363.081 199.477L364.631 239.447C364.496 239.452 364.635 239.442 365.788 239.496C366.634 239.536 368.271 239.624 369.926 239.624C371.601 239.624 373.995 239.546 376.636 239.065C379.254 238.588 382.912 237.577 386.585 235.189L364.785 201.652ZM361.922 199.556L325.191 203.125L329.059 242.937L365.79 239.368L361.922 199.556ZM325.105 203.133C323.353 203.311 321.373 203.593 319.873 203.802C318.195 204.035 316.726 204.234 315.331 204.379C313.92 204.526 312.927 204.579 312.276 204.576C311.49 204.573 311.914 204.488 313.017 204.788L302.527 243.388C309.032 245.156 315.96 244.529 319.469 244.164C321.633 243.939 323.731 243.65 325.378 243.421C327.204 243.167 328.306 243.014 329.145 242.929L325.105 203.133ZM313.35 204.882L313.078 204.803L301.922 243.216L302.194 243.295L313.35 204.882ZM312.808 204.726C314.201 205.11 316.305 206.212 317.958 208.445C319.484 210.508 319.832 212.459 319.884 213.449C319.933 214.4 319.753 214.86 319.741 214.893C319.721 214.947 319.675 215.074 319.457 215.315L289.755 188.524C283.452 195.511 279.412 205.413 279.938 215.525C280.213 220.829 281.81 226.84 285.801 232.235C289.919 237.801 295.705 241.506 302.192 243.292L312.808 204.726ZM312.73 183.643C284.827 171.24 247.818 174.114 222.937 194.794L248.505 225.556C260.426 215.648 280.924 213.279 296.482 220.195L312.73 183.643ZM223.173 194.602C210.896 204.493 202.645 218.61 197.613 230.277L234.343 246.118C238.085 237.441 243.094 229.919 248.269 225.749L223.173 194.602ZM197.613 230.278C195.625 234.886 193.802 239.944 193.017 241.928C191.884 244.791 191.722 244.541 192.404 243.74C192.882 243.178 193.534 242.595 194.293 242.128C195.009 241.687 195.475 241.562 195.408 241.581C194.981 241.701 193.061 242.091 188.068 242.061L187.834 282.061C199.713 282.13 213.331 280.865 222.862 269.669C226.786 265.06 228.92 259.908 230.211 256.644C231.851 252.501 232.579 250.209 234.343 246.117L197.613 230.278ZM188.366 242.065L169.665 241.677L168.835 281.669L187.536 282.057L188.366 242.065ZM169.881 241.683C166.555 241.578 162.027 241.615 159.01 241.584C155.477 241.547 152.371 241.43 149.605 241.109C143.192 240.365 142.822 238.972 143.64 239.967L112.732 265.359C122.215 276.902 136.154 279.817 144.995 280.843C153.593 281.84 164.784 281.542 168.619 281.663L169.881 241.683ZM143.789 240.152L143.522 239.819L112.316 264.842L112.583 265.175L143.789 240.152ZM143.422 239.695C143.456 239.736 143.56 239.867 143.692 240.162C143.822 240.454 144.077 241.126 144.162 242.163L104.294 245.421C104.961 253.571 108.623 260.312 112.416 264.966L143.422 239.695ZM144.156 242.092L144.023 240.533L104.167 243.933L104.3 245.492L144.156 242.092ZM144.042 240.777C143.998 240.174 144.093 238.551 145.062 235.383C146.047 232.165 147.356 229.065 149.062 224.797L111.922 209.945C110.615 213.212 108.424 218.413 106.813 223.678C105.186 228.993 103.589 236.034 104.148 243.689L144.042 240.777ZM149.062 224.797C170.605 170.921 208.234 137.526 263.598 133.333L260.578 93.4472C186.692 99.0425 137.787 145.261 111.922 209.945L149.062 224.797ZM389.251 131.517C385.264 125.445 379.455 122.483 374.821 121.257C370.184 120.031 364.888 120.01 359.801 121.741L372.686 159.609C369.714 160.62 366.932 160.546 364.594 159.928C362.26 159.311 358.538 157.618 355.815 153.472L389.251 131.517ZM360.212 121.606L359.937 121.693L372 159.831L372.275 159.744L360.212 121.606ZM359.696 121.771C355.302 123.222 351.893 125.736 349.408 128.472C347.08 131.034 345.703 133.63 344.914 135.334C344.142 136.999 343.591 138.594 343.369 139.224C343.026 140.196 343.064 140.056 343.176 139.806C343.298 139.532 343.999 137.958 345.609 136.192C347.464 134.155 350.299 132.124 354.032 131.206C357.515 130.35 360.269 130.838 361.574 131.188C362.817 131.521 363.302 131.873 362.822 131.597L342.92 166.295C346.665 168.443 354.407 172.304 363.578 170.05C374.234 167.431 378.468 158.873 379.7 156.115C380.393 154.562 380.929 152.989 381.096 152.515C381.384 151.699 381.353 151.836 381.209 152.146C380.952 152.701 378.602 157.652 372.24 159.753L359.696 121.771ZM362.82 131.596C362.437 131.377 361.944 131.059 360.885 130.347C360.004 129.754 358.479 128.714 356.856 127.743L336.318 162.068C336.831 162.374 337.369 162.736 338.556 163.535C339.565 164.214 341.146 165.278 342.922 166.296L362.82 131.596ZM356.86 127.745C324.039 108.096 282.918 102.589 247.076 107.425L252.424 147.066C281.216 143.181 312.797 147.986 336.314 162.065L356.86 127.745ZM247.076 107.425C178.409 116.688 136.452 169.201 118.516 228.61L156.808 240.171C171.924 190.105 204.407 153.543 252.424 147.066L247.076 107.425ZM118.516 228.607C118.542 228.521 118.606 228.335 118.194 229.488C117.922 230.249 117.394 231.739 116.965 233.469C116.33 236.036 114.396 244.731 120.007 253.185L153.335 231.065C155.452 234.256 156.027 237.42 156.112 239.512C156.189 241.446 155.869 242.776 155.793 243.08C155.709 243.423 155.656 243.522 155.856 242.963C155.915 242.796 156.449 241.362 156.808 240.173L118.516 228.607ZM119.88 252.99L120.056 253.262L153.638 231.532L153.462 231.26L119.88 252.99ZM120.327 253.67C124.46 259.728 131.189 263.71 131.759 264.093L154.091 230.907C153.934 230.802 153.782 230.7 153.643 230.607C153.491 230.506 153.38 230.431 153.244 230.341C152.99 230.171 152.783 230.031 152.594 229.902C152.207 229.637 152.006 229.489 151.904 229.41C151.801 229.33 151.914 229.408 152.144 229.635C152.373 229.861 152.84 230.352 153.367 231.124L120.327 253.67ZM321.81 231.532L324.604 231.126L318.852 191.542L316.058 191.948L321.81 231.532ZM330.386 229.363C338.296 225.564 346.199 217.919 349.62 208.293L311.928 194.9C312.162 194.241 312.395 193.856 312.485 193.716C312.581 193.567 312.624 193.529 312.594 193.561C312.565 193.591 312.542 193.608 312.557 193.597C312.564 193.592 312.72 193.473 313.07 193.305L330.386 229.363ZM349.957 207.255L350.157 206.577L311.791 195.259L311.591 195.937L349.957 207.255ZM347.725 189.991C340.809 179.389 330.563 172.859 321.611 168.739C312.501 164.547 302.998 162.064 295.518 160.487L287.264 199.626C293.397 200.919 299.636 202.659 304.89 205.077C310.301 207.567 313.041 210.033 314.223 211.846L347.725 189.991ZM295.519 160.487C258.576 152.695 218.471 167.96 198.536 202.023L233.058 222.227C243.543 204.311 265.664 195.07 287.263 199.626L295.519 160.487ZM198.537 202.021C198.79 201.588 198.996 201.309 198.679 201.768C198.517 202.002 197.932 202.839 197.363 203.77C196.484 205.21 193.526 210.1 193.648 216.832L233.642 216.108C233.692 218.875 233.08 221.034 232.599 222.321C232.129 223.577 231.633 224.402 231.497 224.623C231.377 224.821 231.288 224.94 231.604 224.482C231.766 224.248 232.43 223.3 233.057 222.229L198.537 202.021ZM389.58 269.817L397.878 269.746L397.536 229.748L389.238 229.819L389.58 269.817ZM397.737 269.747C400.215 269.743 400.974 269.972 401.153 270.029C401.249 270.059 401.895 270.242 403.586 271.538L427.914 239.786C423.558 236.449 418.826 233.669 413.234 231.897C407.725 230.152 402.486 229.74 397.677 229.747L397.737 269.747ZM403.585 271.537C404.708 272.398 405.105 273.019 405.28 273.343C405.476 273.708 405.734 274.348 405.872 275.562C406.209 278.504 405.702 282.721 404.137 289.648L443.155 298.461C444.775 291.287 446.787 281.262 445.613 271.012C444.313 259.657 439.17 248.411 427.915 239.787L403.585 271.537ZM404.137 289.648C395.955 325.875 379.634 353.471 357.508 371.975C335.473 390.403 306.31 400.971 270.216 400.877L270.112 440.877C314.438 440.993 353.05 427.847 383.168 402.66C413.195 377.548 433.405 341.628 443.155 298.46L404.137 289.648ZM270.216 400.877C238.517 400.794 210.777 390.895 185.505 370.959L160.731 402.363C192.805 427.666 229.175 440.77 270.112 440.877L270.216 400.877ZM185.389 370.868C170.385 359.21 162.493 348.829 160.528 341.121C159.719 337.945 159.883 335.169 161.21 332.13C162.677 328.77 166.111 323.911 173.864 318.042L149.722 286.149C138.245 294.836 129.518 304.748 124.551 316.126C119.444 327.824 118.9 339.753 121.768 351.002C127.157 372.142 144.158 389.487 160.847 402.454L185.389 370.868ZM173.864 318.042C179.277 313.945 182.697 312.262 184.984 311.872L178.262 272.441C165.885 274.551 155.943 281.44 149.723 286.148L173.864 318.042ZM184.462 311.954L184.964 311.882L179.286 272.287L178.784 272.359L184.462 311.954ZM185.264 311.836C191.205 310.892 194.535 312.224 198.924 315.505C201.683 317.567 204.32 320.035 208.199 323.615C211.758 326.899 216.325 331.076 221.672 334.782L244.456 301.905C241.659 299.966 238.925 297.541 235.328 294.22C232.05 291.196 227.675 287.056 222.873 283.466C212.139 275.443 198.143 269.288 178.986 272.332L185.264 311.836ZM221.672 334.781C268.826 367.461 340.007 344.362 355.382 286.621L316.728 276.329C308.855 305.899 270.037 319.633 244.456 301.905L221.672 334.781ZM355.572 285.846L357.47 277.371L318.436 268.629L316.538 277.104L355.572 285.846ZM357.626 276.601C357.876 275.238 358.029 274.354 358.225 273.375C358.405 272.471 358.555 271.838 358.69 271.363C358.973 270.366 359.039 270.623 358.532 271.305L326.422 247.453C320.15 255.897 318.839 266.344 318.28 269.399L357.626 276.601ZM358.533 271.305C357.654 272.488 357.466 270.902 365.383 270.474C368.973 270.279 372.574 270.367 377.367 270.396C381.599 270.422 387.177 270.409 392.495 269.579L386.324 230.058C384.577 230.33 381.975 230.423 377.607 230.397C373.799 230.374 368.378 230.253 363.221 230.532C353.641 231.051 337.051 233.142 326.421 247.454L358.533 271.305ZM381.402 242.122L366.092 243.067L368.556 282.991L383.866 282.046L381.402 242.122ZM365.202 243.142C356.173 244.105 344.804 246.51 337.261 256.96C334.148 261.273 332.603 265.8 331.69 268.767C331.105 270.666 329.611 276.182 329.125 277.833L367.503 289.111C368.075 287.164 368.559 285.386 368.952 283.951C369.368 282.43 369.653 281.4 369.92 280.533C370.182 279.684 370.316 279.357 370.338 279.306C370.346 279.288 370.159 279.728 369.694 280.371C369.195 281.063 368.526 281.782 367.713 282.408C366.925 283.016 366.27 283.329 365.968 283.454C365.596 283.608 366.309 283.251 369.446 282.916L365.202 243.142ZM329.125 277.833C316.786 319.824 264.826 336.619 233.264 308.002L206.396 337.636C262.926 388.889 348.058 355.282 367.503 289.111L329.125 277.833ZM233.263 308.002C226.657 302.013 211.225 283.423 186.097 284.641L188.033 324.594C190.059 324.495 191.531 324.904 193.933 326.559C195.362 327.543 196.973 328.885 199.103 330.837C200.164 331.81 201.23 332.817 202.468 333.985C203.662 335.111 205 336.37 206.397 337.637L233.263 308.002ZM186.096 284.641C172.405 285.305 160.233 294.067 152.734 301.314C145.104 308.689 136.405 320.208 134.639 333.018L174.264 338.482C174.184 339.061 174.206 338.269 175.49 336.196C176.662 334.304 178.403 332.134 180.533 330.076C182.671 328.009 184.817 326.425 186.589 325.436C188.553 324.339 189.013 324.546 188.035 324.594L186.096 284.641ZM134.655 332.902L134.592 333.34L174.184 339.036L174.247 338.598L134.655 332.902ZM134.56 333.574C134.013 337.722 133.928 343.096 135.081 348.316L174.139 339.685C174.184 339.891 174.192 339.983 174.188 339.947C174.185 339.917 174.177 339.823 174.173 339.674C174.17 339.526 174.173 339.361 174.182 339.193C174.191 339.025 174.205 338.89 174.216 338.802L134.56 333.574ZM135.024 348.048L135.086 348.348L174.258 340.252L174.196 339.952L135.024 348.048ZM135.102 348.425C139.675 370.123 157.869 384.777 167.998 392.532L192.316 360.774C181.333 352.364 175.411 345.72 174.242 340.175L135.102 348.425ZM167.694 392.295C237.953 448.278 340.082 440.452 397.169 368.63L365.855 343.741C323.358 397.208 246.651 404.064 192.621 361.011L167.694 392.295ZM397.169 368.63C404.533 359.364 413.942 342.988 421.176 326.658C424.861 318.338 428.234 309.472 430.554 300.978C432.765 292.879 434.513 283.396 433.533 274.525L393.775 278.915C393.93 280.325 393.712 284.048 391.967 290.44C390.329 296.438 387.752 303.35 384.604 310.457C378.169 324.983 370.372 338.058 365.855 343.741L397.169 368.63ZM433.533 274.526C432.016 260.776 423.862 251.586 414.131 246.802C405.675 242.646 396.592 241.989 390.517 241.993L390.545 281.993C392.248 281.992 393.699 282.1 394.853 282.293C396.042 282.491 396.509 282.711 396.485 282.7C396.386 282.651 395.604 282.232 394.819 281.177C393.976 280.044 393.792 279.067 393.775 278.915L433.533 274.526ZM390.301 241.994L382.404 242.085L382.865 282.083L390.762 281.992L390.301 241.994ZM389.242 288.995C389.718 288.981 390.189 288.965 390.612 288.95C391.049 288.935 391.436 288.922 391.818 288.91C392.583 288.887 393.19 288.875 393.72 288.877C394.828 288.881 395.194 288.947 395.161 288.941C395.062 288.923 394.293 288.768 393.267 288.168C392.157 287.518 391.303 286.674 390.776 285.918L423.574 263.022C417.671 254.565 409.543 250.921 402.428 249.607C396.54 248.519 390.235 248.948 388.048 249.013L389.242 288.995ZM390.776 285.919C388.277 282.34 389.777 280.458 389.023 285.482C388.446 289.324 386.917 294.608 384.529 300.822C379.778 313.186 372.967 325.814 369.337 331.534L403.111 352.966C408.055 345.175 416.098 330.184 421.867 315.171C424.74 307.696 427.389 299.352 428.579 291.421C429.593 284.672 430.451 272.871 423.574 263.021L390.776 285.919ZM369.337 331.535C355.708 353.014 331.086 372.073 306.968 379.186L318.282 417.552C352.134 407.569 384.546 382.224 403.111 352.965L369.337 331.535ZM306.968 379.186C268.51 390.528 224.088 381.341 192.403 356.251L167.571 387.609C209.07 420.471 266.896 432.707 318.282 417.552L306.968 379.186ZM192.431 356.273L191.281 355.359L166.393 386.673L167.543 387.587L192.431 356.273ZM191.57 355.593C185.305 350.421 183.411 346.401 183.269 344.817L143.429 348.396C145.057 366.515 157.689 379.491 166.104 386.439L191.57 355.593ZM183.269 344.815C183.187 343.907 183.609 340.92 185.967 337.437C188.34 333.931 190.599 332.948 190.934 332.868L181.658 293.958C168.735 297.039 158.925 306.028 152.842 315.016C146.742 324.027 142.32 336.057 143.429 348.397L183.269 344.815ZM190.934 332.868C191.078 332.833 191.596 332.516 194.046 333.828C195.414 334.561 197.026 335.625 199.145 337.189C200.193 337.963 201.258 338.778 202.464 339.703C203.622 340.592 204.943 341.609 206.276 342.6L230.142 310.5C226.842 308.046 219.868 302.284 212.936 298.57C204.99 294.313 194.287 290.948 181.658 293.958L190.934 332.868ZM206.276 342.6C221.682 354.055 237.406 362.685 254.985 366.198C272.857 369.77 290.762 367.687 309.905 360.853L296.457 323.181C282.564 328.141 272.113 328.831 262.824 326.974C253.241 325.059 242.997 320.058 230.142 310.5L206.276 342.6ZM309.906 360.853C324.79 355.539 337.421 348.472 347.846 338.08C358.245 327.713 365.325 315.156 370.802 300.577L333.358 286.509C329.217 297.529 324.783 304.591 319.606 309.751C314.454 314.888 307.444 319.259 296.456 323.182L309.906 360.853ZM370.929 300.231L374.804 289.31L337.106 275.934L333.231 286.855L370.929 300.231ZM374.901 289.03C375.188 288.181 375.441 287.434 375.676 286.755C375.91 286.076 376.111 285.504 376.29 285.011C376.47 284.517 376.612 284.145 376.724 283.863C376.838 283.579 376.902 283.437 376.92 283.398C376.939 283.358 376.885 283.479 376.753 283.708C376.62 283.94 376.381 284.33 376.02 284.809C375.653 285.297 375.16 285.877 374.522 286.484C373.877 287.098 373.147 287.68 372.34 288.201C371.536 288.72 370.75 289.118 370.03 289.417C369.321 289.712 368.719 289.893 368.286 290.003C367.861 290.112 367.567 290.16 367.465 290.175C367.365 290.19 367.382 290.184 367.571 290.167C367.759 290.151 368.041 290.13 368.468 290.107C368.898 290.083 369.391 290.06 370.018 290.032C371.223 289.978 372.844 289.911 374.684 289.802L372.316 249.872C370.384 249.987 366.142 250.139 364.066 250.321C361.491 250.548 356.012 251.13 350.644 254.596C344.95 258.272 342.135 263.336 340.646 266.539C339.259 269.524 338.043 273.158 337.009 276.214L374.901 289.03ZM375.649 289.721L381.274 289.113L376.976 249.345L371.351 249.953L375.649 289.721ZM380.703 289.167C382.949 288.989 384.908 289.047 388.867 289.003L388.423 249.005C386.07 249.031 381.595 248.971 377.548 249.291L380.703 289.167Z" fill="white" mask="url(#path-2-outside-1_5_6207)"/>
</svg>
