<svg width="520" height="496" viewBox="0 0 520 496" fill="none" xmlns="http://www.w3.org/2000/svg">
<mask id="path-1-outside-1_5_6226" maskUnits="userSpaceOnUse" x="-0.236115" y="0.507812" width="520" height="496" fill="black">
<rect fill="white" x="-0.236115" y="0.507812" width="520" height="496"/>
<path d="M252.039 104.381L273.22 104.551C284.533 105.064 321.022 109.363 327.276 114.375C327.778 116.054 326.2 118.77 324.704 119.442C322.835 120.282 319.289 119.105 317.247 118.821L309.347 117.875C267.709 113.72 223.738 113.577 185.342 132.279C172.551 138.712 160.136 146.781 149.366 156.245C147.094 158.241 144.169 161.556 141.005 161.744C135.396 162.078 133.778 155.737 137.151 152.125C138.779 150.381 140.761 148.842 142.567 147.278C173.322 120.642 211.334 105.49 252.039 104.381Z"/>
<path d="M298.916 34.2796C284.993 31.0678 270.123 30.2278 255.904 30.2399L242.193 30.4772C194.148 33.6228 147.383 48.1368 106.498 73.6371C98.7427 78.4743 87.9178 82.3652 81.8541 87.404C80.6592 88.3969 79.213 90.6613 77.6644 90.9583L77.5005 90.7503C78.2783 88.8056 76.0046 89.9433 74.6538 89.1363L74.4948 88.5003C86.2478 70.0283 128.928 48.4581 149.664 40.2565C198.567 20.9135 256.812 15.5016 308.164 25.2527C347.45 32.7126 386.88 48.0355 420.471 69.6835C428.75 75.0186 437.832 80.9667 444.71 88.1253C458.587 102.569 460.18 122.013 441.924 134.071C434.781 138.79 426.216 140.099 417.864 138.32C408.265 136.275 401.273 128.044 393.669 122.404C386.977 117.439 380.078 112.573 372.831 108.454L350.664 97.2113C323.967 84.9214 297.087 77.1704 267.465 75.4698L243.255 75.425C204.348 77.2872 163.46 89.2083 130.664 110.242L119.946 117.214C116.784 119.267 113.578 121.491 109.944 122.624C93.163 127.857 81.9146 115.959 78.6612 100.749C78.0811 98.0373 78.0561 95.8653 76.5639 93.4383C82.4058 89.7493 82.3111 94.0083 87.6555 92.2883L87.9688 92.4283C89.9735 92.1193 92.2955 90.8893 94.1942 90.1153L89.4367 94.2183C83.7825 101.416 90.1237 111.818 98.354 113.189C103.278 114.009 106.487 110.815 110.21 108.165C146.503 82.3373 189.994 65.6491 234.635 62.6922C239.622 62.3619 244.671 62.4854 249.668 62.4858L264.557 62.6582C314.384 65.4892 360.965 84.0205 401.548 112.382C407.918 116.834 414.572 123.95 422.56 125.221L423.039 125.294C425.165 125.629 427.414 125.676 429.514 125.143C443.631 121.563 444.705 108.175 435.375 98.4133C419.801 82.119 384.33 63.4049 364.331 54.802C344.015 46.0627 320.942 37.7295 298.916 34.2796Z"/>
<path d="M263.504 141.397C292.039 139.92 346.185 148.01 363.144 171.562L363.968 172.714C367.537 177.813 370.041 184.46 368.854 190.746L368.452 192.611C364.458 207.095 346.876 220.241 331.289 216.258C323.638 214.303 316.896 209.272 310.14 205.375C302.148 200.765 293.577 196.542 284.685 193.982C264.928 188.676 246.794 190.059 228.247 199.652C221.909 202.93 215.763 207.131 208.914 209.249C201.736 211.469 189.809 210.944 183.694 206.537C173.001 198.829 171.865 178.293 180.349 169.284C191.588 157.351 222.293 147.117 237.645 144.068C246.191 142.371 254.812 141.695 263.504 141.397ZM253.38 153.677C252.097 154.653 250.171 154.53 248.64 154.836L239.163 156.982C223.658 161.135 196.406 169.714 186.571 183.625C185.861 184.629 185.334 186.245 184.256 186.866L184.227 186.956C184.069 189.74 184.442 192.79 185.794 195.25C193.003 208.366 209.294 194.144 217.486 189.691C247.438 173.412 279.261 173.048 309.415 188.325L322.946 196.02C328.728 199.479 337.26 205.374 344.115 201.468C349.559 198.366 354.356 191.77 355.992 185.783C351.148 173.137 329.699 162.582 317.634 159.567C308.76 156.867 299.935 155.618 290.738 154.618L290.725 154.6C278.72 153.216 265.468 152.125 253.38 153.677ZM184.256 186.866C185.334 186.245 185.861 184.629 186.571 183.625C196.406 169.714 223.658 161.135 239.163 156.982L248.64 154.836C250.171 154.53 252.097 154.653 253.38 153.31C235.085 153.733 216.103 159.161 199.744 167.175C190.278 171.813 184.274 175.441 184.256 186.866Z"/>
<path d="M253.38 153.677C265.468 152.125 278.72 153.216 290.725 154.6L290.738 154.618C299.935 155.618 308.76 156.867 317.634 159.567C329.699 162.582 351.148 173.137 355.992 185.783C354.356 191.77 349.559 198.366 344.115 201.468C337.26 205.374 328.728 199.479 322.946 196.02L309.415 188.325C279.261 173.048 247.438 173.412 217.486 189.691C209.294 194.144 193.003 208.366 185.794 195.25C184.442 192.79 184.069 189.74 184.227 186.956L184.256 186.866C185.334 186.245 185.861 184.629 186.571 183.625C196.406 169.714 223.658 161.135 239.163 156.982L248.64 154.836C250.171 154.53 252.097 154.653 253.38 153.677ZM317.634 159.567C308.76 156.867 299.935 155.618 290.738 154.618C289.406 155.748 289.951 158.979 289.754 160.604C294.657 160.495 299.342 159.115 304.164 159.016C306.95 158.958 315.807 159.984 317.634 159.567Z"/>
<path d="M298.916 34.2796C320.942 37.7295 344.015 46.0627 364.331 54.802C384.33 63.4049 419.801 82.119 435.375 98.4133C444.705 108.175 443.631 121.563 429.514 125.143C427.414 125.676 425.165 125.629 423.039 125.294L422.56 125.221C414.572 123.95 407.918 116.834 401.548 112.382C360.965 84.0205 314.384 65.4892 264.557 62.6582L249.668 62.4858C244.671 62.4854 239.622 62.3619 234.635 62.6922C189.994 65.6491 146.503 82.3373 110.21 108.165C106.487 110.815 103.278 114.009 98.354 113.189C90.1237 111.818 83.7825 101.416 89.4367 94.2183L94.1942 90.1153C94.572 89.6173 96.0335 88.9832 96.6129 88.6423L121.536 75.066C131.146 69.5321 140.541 63.7195 150.592 58.9919C180.329 45.0042 214.278 37.416 247.039 35.1987L288.115 34.2539C291.497 34.2584 295.404 34.9171 298.694 34.3236L298.916 34.2796Z"/>
<path d="M421.49 456.244C420.941 456.706 420.7 457.563 420.404 458.219C416.912 465.964 417.082 464.529 409.188 464.406L334.039 461.81C331.803 461.727 329.591 461.17 327.349 461.092L254.574 461.142C252.686 461.216 250.865 461.624 248.984 461.745L139.064 468.761L128.789 468.952C126.849 469.046 124.952 469.481 123.013 469.546L94.0054 469.638C76.2708 469.672 53.676 470.999 41.3849 455.588C27.4161 438.073 24.3771 414.597 21.9178 393.042C19.1824 369.068 18.7933 343.433 50.4782 340.83C59.3425 340.102 68.559 341.05 77.4144 341.512L152.414 345.149L195.858 346.264C198.944 346.38 201.938 346.774 205.04 346.789L254.331 346.955L254.089 304.342C252.531 303.213 250.407 302.524 248.695 301.397C227.754 287.612 226.118 260.642 247.253 246.879C284.039 222.923 317.433 276.602 283.322 299.552C281.207 300.974 281.156 300.555 281.229 303.013L281.241 347.23L364.867 345.166L414.414 342.74L434.699 342.09C462.789 340.762 490.01 337.812 497.319 371.703C501.056 389.03 500.399 411.476 495.901 428.381C495.221 430.938 493.331 430.111 491.716 429.156C490.949 426.661 490.731 424.081 490.446 421.5L489.359 411.931C487.65 395.932 486.331 378.802 480.211 363.794C478.785 363.812 477.228 363.607 475.753 363.551L446.234 363.409C443.643 363.453 441.116 363.8 438.539 363.968L419.367 365.133L349.47 365.785C346.987 365.85 344.521 366.349 342.015 366.416L321.112 366.605C319.208 366.659 317.341 367.009 315.431 367.069L302.664 367.175L184.901 371.279L161.914 373.269C151.614 373.954 140.393 373.626 129.77 373.96L74.0598 374.036C43.5284 374.027 41.9032 398.16 49.1639 421.875L53.1947 433.887C55.2722 439.808 57.6936 447.018 61.8185 451.836C62.3945 452.509 65.6507 454.591 65.698 455.098C68.8541 457.366 80.4976 457.471 84.4065 457.478L122.81 457.327C127.247 457.166 131.7 456.692 136.32 456.533L242.537 448.756L262.039 448.106C264.16 448.019 266.272 447.631 268.38 447.563L326.608 447.543C328.719 447.591 330.751 447.975 332.841 448.072L373.664 450.3L385.273 450.567C397.59 451.227 409.998 451.624 422.308 450.511C428.404 449.654 434.435 449.549 440.552 449.102C449.374 448.458 458.02 447.462 466.885 447.456C470.965 447.453 473.753 446.705 474.564 451.498C472.882 455.513 471.754 460.02 469.613 463.798C460.911 479.153 425.196 481.66 421.614 460.928C421.364 459.477 421.501 457.727 421.49 456.244ZM65.698 455.098C65.6507 454.591 62.3945 452.509 61.8185 451.836C57.6936 447.018 55.2722 439.808 53.1947 433.887L49.1639 421.875C41.9032 398.16 43.5284 374.027 74.0598 374.036L129.77 373.96C140.393 373.626 151.614 373.954 161.914 373.269L184.901 371.279L302.664 367.175L315.431 367.069C317.341 367.009 319.208 366.659 321.112 366.605L342.015 366.416C344.521 366.349 346.987 365.85 349.47 365.785L419.367 365.133L438.539 363.968C441.116 363.8 443.643 363.453 446.234 363.409L475.753 363.551C477.228 363.607 478.785 363.812 480.211 363.794C475.748 354.612 463.306 354.521 454.595 354.54L356.571 358.313L304.789 359.33C302.472 359.435 300.143 360.03 297.789 360.106L213.536 360.117C210.075 360.058 206.739 359.449 203.307 359.352L143.431 357.774L102.628 355.029C87.1901 353.699 71.6579 351.729 56.1556 351.742C43.1202 351.754 35.7854 354.881 33.1446 367.98C29.0479 388.301 41.5541 442.578 57.513 452.018C60.0547 453.522 62.8744 454.298 65.698 455.098ZM264.555 304.375C264.284 306.559 264.445 308.872 264.453 311.072L264.515 337.302C264.519 340.333 264.408 343.416 264.654 346.436C265.283 346.808 266.135 346.57 267.276 346.49L267.239 311.929C267.153 309.548 267.961 304.462 264.555 304.375Z"/>
<path d="M265.451 251.356C289.983 252.354 292.26 291.229 264.783 292.412C237.485 289.267 237.933 254.086 265.451 251.356Z"/>
<path d="M65.698 455.098C65.6507 454.591 62.3945 452.509 61.8185 451.836C57.6936 447.018 55.2722 439.808 53.1947 433.887L49.1639 421.875C41.9032 398.16 43.5284 374.027 74.0598 374.036L129.77 373.96C140.393 373.626 151.614 373.954 161.914 373.269L184.901 371.279L302.664 367.175L315.431 367.069C317.341 367.009 319.208 366.659 321.112 366.605L342.015 366.416C344.521 366.349 346.987 365.85 349.47 365.785L419.367 365.133L438.539 363.968C441.116 363.8 443.643 363.453 446.234 363.409L475.753 363.551C477.228 363.607 478.785 363.812 480.211 363.389C486.331 378.802 487.65 395.932 489.359 411.931L490.446 421.5C490.731 424.081 490.949 426.661 491.716 429.156C490.045 441.308 487.105 448.838 474.564 451.498C473.753 446.705 470.965 447.453 466.885 447.456C458.02 447.462 449.374 448.458 440.552 449.102C434.435 449.549 428.404 449.654 422.308 450.457C409.998 451.624 397.59 451.227 385.273 450.567L373.664 450.3L332.841 448.072C330.751 447.975 328.719 447.591 326.608 447.543L268.38 447.563C266.272 447.631 264.16 448.019 262.039 448.106L242.537 448.756L136.32 456.533C131.7 456.692 127.247 457.166 122.81 457.327L84.4065 457.478C80.4976 457.471 68.8541 457.366 65.698 455.098Z"/>
<path d="M365.819 416.815L414.191 416.82C422.573 417.064 435.577 417.049 442.914 418.475C448.317 419.525 450.221 424.991 445.775 428.947C443.469 431 437.69 429.827 434.727 429.683L424.153 429.264C418.556 428.829 412.914 427.993 407.309 427.809L363.151 427.71C360.977 427.708 357.682 428.119 355.726 427.155C352.304 425.47 350.178 418.967 354.846 417.741L355.164 417.665C358.567 416.808 362.32 416.928 365.819 416.815Z"/>
<path d="M355.479 385.803C360.277 385.671 364.899 386.479 369.675 386.646L442.078 386.752C447.117 386.756 454.771 386.708 453.04 394C452.521 396.182 451.284 397.529 449.409 398.653C446.535 399.535 443.609 399.289 440.632 399.293L398.566 399.049C396.523 398.96 394.533 398.384 392.527 398.322L370.164 397.762C366.44 397.548 362.735 397.426 359.067 396.659C353.564 395.509 348.237 389.095 355.479 385.803Z"/>
<path d="M176.866 391.335L177.164 391.29C205.48 388.151 216.832 437.206 182.072 441.217C150.563 441.974 143.57 396.194 176.866 391.335Z"/>
<path d="M176.531 404.562C190.312 403.683 197.943 424.213 181.353 426.164C165.329 427.358 163.295 407.023 176.531 404.562Z"/>
<path d="M103.064 383.605C119.04 382.354 134.309 395.926 136.857 411.32C139.635 428.103 126.203 446.56 109.389 449.171C102.583 449.632 97.1868 449.308 91.2288 445.69C66.7981 430.855 73.6972 389.623 97.8694 384.3L98.2894 384.21C99.8814 383.86 101.442 383.729 103.064 383.605Z"/>
<path d="M101.347 395.316C103.458 395.139 105.699 395.702 107.665 396.442C127.367 403.858 130.934 425.785 110.51 434.594L108.432 435.163C82.0555 440.428 82.2613 398.789 101.347 395.316Z"/>
<path d="M106.497 404.804C108.772 404.69 110.506 404.8 112.61 405.829C122.992 410.907 117.52 420.879 107.773 423.659C91.6897 427.215 94.0924 408.294 106.497 404.804Z"/>
</mask>
<path d="M252.039 104.381L273.22 104.551C284.533 105.064 321.022 109.363 327.276 114.375C327.778 116.054 326.2 118.77 324.704 119.442C322.835 120.282 319.289 119.105 317.247 118.821L309.347 117.875C267.709 113.72 223.738 113.577 185.342 132.279C172.551 138.712 160.136 146.781 149.366 156.245C147.094 158.241 144.169 161.556 141.005 161.744C135.396 162.078 133.778 155.737 137.151 152.125C138.779 150.381 140.761 148.842 142.567 147.278C173.322 120.642 211.334 105.49 252.039 104.381Z" fill="#00112B"/>
<path d="M298.916 34.2796C284.993 31.0678 270.123 30.2278 255.904 30.2399L242.193 30.4772C194.148 33.6228 147.383 48.1368 106.498 73.6371C98.7427 78.4743 87.9178 82.3652 81.8541 87.404C80.6592 88.3969 79.213 90.6613 77.6644 90.9583L77.5005 90.7503C78.2783 88.8056 76.0046 89.9433 74.6538 89.1363L74.4948 88.5003C86.2478 70.0283 128.928 48.4581 149.664 40.2565C198.567 20.9135 256.812 15.5016 308.164 25.2527C347.45 32.7126 386.88 48.0355 420.471 69.6835C428.75 75.0186 437.832 80.9667 444.71 88.1253C458.587 102.569 460.18 122.013 441.924 134.071C434.781 138.79 426.216 140.099 417.864 138.32C408.265 136.275 401.273 128.044 393.669 122.404C386.977 117.439 380.078 112.573 372.831 108.454L350.664 97.2113C323.967 84.9214 297.087 77.1704 267.465 75.4698L243.255 75.425C204.348 77.2872 163.46 89.2083 130.664 110.242L119.946 117.214C116.784 119.267 113.578 121.491 109.944 122.624C93.163 127.857 81.9146 115.959 78.6612 100.749C78.0811 98.0373 78.0561 95.8653 76.5639 93.4383C82.4058 89.7493 82.3111 94.0083 87.6555 92.2883L87.9688 92.4283C89.9735 92.1193 92.2955 90.8893 94.1942 90.1153L89.4367 94.2183C83.7825 101.416 90.1237 111.818 98.354 113.189C103.278 114.009 106.487 110.815 110.21 108.165C146.503 82.3373 189.994 65.6491 234.635 62.6922C239.622 62.3619 244.671 62.4854 249.668 62.4858L264.557 62.6582C314.384 65.4892 360.965 84.0205 401.548 112.382C407.918 116.834 414.572 123.95 422.56 125.221L423.039 125.294C425.165 125.629 427.414 125.676 429.514 125.143C443.631 121.563 444.705 108.175 435.375 98.4133C419.801 82.119 384.33 63.4049 364.331 54.802C344.015 46.0627 320.942 37.7295 298.916 34.2796Z" fill="#00112B"/>
<path d="M263.504 141.397C292.039 139.92 346.185 148.01 363.144 171.562L363.968 172.714C367.537 177.813 370.041 184.46 368.854 190.746L368.452 192.611C364.458 207.095 346.876 220.241 331.289 216.258C323.638 214.303 316.896 209.272 310.14 205.375C302.148 200.765 293.577 196.542 284.685 193.982C264.928 188.676 246.794 190.059 228.247 199.652C221.909 202.93 215.763 207.131 208.914 209.249C201.736 211.469 189.809 210.944 183.694 206.537C173.001 198.829 171.865 178.293 180.349 169.284C191.588 157.351 222.293 147.117 237.645 144.068C246.191 142.371 254.812 141.695 263.504 141.397ZM253.38 153.677C252.097 154.653 250.171 154.53 248.64 154.836L239.163 156.982C223.658 161.135 196.406 169.714 186.571 183.625C185.861 184.629 185.334 186.245 184.256 186.866L184.227 186.956C184.069 189.74 184.442 192.79 185.794 195.25C193.003 208.366 209.294 194.144 217.486 189.691C247.438 173.412 279.261 173.048 309.415 188.325L322.946 196.02C328.728 199.479 337.26 205.374 344.115 201.468C349.559 198.366 354.356 191.77 355.992 185.783C351.148 173.137 329.699 162.582 317.634 159.567C308.76 156.867 299.935 155.618 290.738 154.618L290.725 154.6C278.72 153.216 265.468 152.125 253.38 153.677ZM184.256 186.866C185.334 186.245 185.861 184.629 186.571 183.625C196.406 169.714 223.658 161.135 239.163 156.982L248.64 154.836C250.171 154.53 252.097 154.653 253.38 153.31C235.085 153.733 216.103 159.161 199.744 167.175C190.278 171.813 184.274 175.441 184.256 186.866Z" fill="#00112B"/>
<path d="M253.38 153.677C265.468 152.125 278.72 153.216 290.725 154.6L290.738 154.618C299.935 155.618 308.76 156.867 317.634 159.567C329.699 162.582 351.148 173.137 355.992 185.783C354.356 191.77 349.559 198.366 344.115 201.468C337.26 205.374 328.728 199.479 322.946 196.02L309.415 188.325C279.261 173.048 247.438 173.412 217.486 189.691C209.294 194.144 193.003 208.366 185.794 195.25C184.442 192.79 184.069 189.74 184.227 186.956L184.256 186.866C185.334 186.245 185.861 184.629 186.571 183.625C196.406 169.714 223.658 161.135 239.163 156.982L248.64 154.836C250.171 154.53 252.097 154.653 253.38 153.677ZM317.634 159.567C308.76 156.867 299.935 155.618 290.738 154.618C289.406 155.748 289.951 158.979 289.754 160.604C294.657 160.495 299.342 159.115 304.164 159.016C306.95 158.958 315.807 159.984 317.634 159.567Z" fill="#FCD004"/>
<path d="M298.916 34.2796C320.942 37.7295 344.015 46.0627 364.331 54.802C384.33 63.4049 419.801 82.119 435.375 98.4133C444.705 108.175 443.631 121.563 429.514 125.143C427.414 125.676 425.165 125.629 423.039 125.294L422.56 125.221C414.572 123.95 407.918 116.834 401.548 112.382C360.965 84.0205 314.384 65.4892 264.557 62.6582L249.668 62.4858C244.671 62.4854 239.622 62.3619 234.635 62.6922C189.994 65.6491 146.503 82.3373 110.21 108.165C106.487 110.815 103.278 114.009 98.354 113.189C90.1237 111.818 83.7825 101.416 89.4367 94.2183L94.1942 90.1153C94.572 89.6173 96.0335 88.9832 96.6129 88.6423L121.536 75.066C131.146 69.5321 140.541 63.7195 150.592 58.9919C180.329 45.0042 214.278 37.416 247.039 35.1987L288.115 34.2539C291.497 34.2584 295.404 34.9171 298.694 34.3236L298.916 34.2796Z" fill="#FCD004"/>
<path d="M421.49 456.244C420.941 456.706 420.7 457.563 420.404 458.219C416.912 465.964 417.082 464.529 409.188 464.406L334.039 461.81C331.803 461.727 329.591 461.17 327.349 461.092L254.574 461.142C252.686 461.216 250.865 461.624 248.984 461.745L139.064 468.761L128.789 468.952C126.849 469.046 124.952 469.481 123.013 469.546L94.0054 469.638C76.2708 469.672 53.676 470.999 41.3849 455.588C27.4161 438.073 24.3771 414.597 21.9178 393.042C19.1824 369.068 18.7933 343.433 50.4782 340.83C59.3425 340.102 68.559 341.05 77.4144 341.512L152.414 345.149L195.858 346.264C198.944 346.38 201.938 346.774 205.04 346.789L254.331 346.955L254.089 304.342C252.531 303.213 250.407 302.524 248.695 301.397C227.754 287.612 226.118 260.642 247.253 246.879C284.039 222.923 317.433 276.602 283.322 299.552C281.207 300.974 281.156 300.555 281.229 303.013L281.241 347.23L364.867 345.166L414.414 342.74L434.699 342.09C462.789 340.762 490.01 337.812 497.319 371.703C501.056 389.03 500.399 411.476 495.901 428.381C495.221 430.938 493.331 430.111 491.716 429.156C490.949 426.661 490.731 424.081 490.446 421.5L489.359 411.931C487.65 395.932 486.331 378.802 480.211 363.794C478.785 363.812 477.228 363.607 475.753 363.551L446.234 363.409C443.643 363.453 441.116 363.8 438.539 363.968L419.367 365.133L349.47 365.785C346.987 365.85 344.521 366.349 342.015 366.416L321.112 366.605C319.208 366.659 317.341 367.009 315.431 367.069L302.664 367.175L184.901 371.279L161.914 373.269C151.614 373.954 140.393 373.626 129.77 373.96L74.0598 374.036C43.5284 374.027 41.9032 398.16 49.1639 421.875L53.1947 433.887C55.2722 439.808 57.6936 447.018 61.8185 451.836C62.3945 452.509 65.6507 454.591 65.698 455.098C68.8541 457.366 80.4976 457.471 84.4065 457.478L122.81 457.327C127.247 457.166 131.7 456.692 136.32 456.533L242.537 448.756L262.039 448.106C264.16 448.019 266.272 447.631 268.38 447.563L326.608 447.543C328.719 447.591 330.751 447.975 332.841 448.072L373.664 450.3L385.273 450.567C397.59 451.227 409.998 451.624 422.308 450.511C428.404 449.654 434.435 449.549 440.552 449.102C449.374 448.458 458.02 447.462 466.885 447.456C470.965 447.453 473.753 446.705 474.564 451.498C472.882 455.513 471.754 460.02 469.613 463.798C460.911 479.153 425.196 481.66 421.614 460.928C421.364 459.477 421.501 457.727 421.49 456.244ZM65.698 455.098C65.6507 454.591 62.3945 452.509 61.8185 451.836C57.6936 447.018 55.2722 439.808 53.1947 433.887L49.1639 421.875C41.9032 398.16 43.5284 374.027 74.0598 374.036L129.77 373.96C140.393 373.626 151.614 373.954 161.914 373.269L184.901 371.279L302.664 367.175L315.431 367.069C317.341 367.009 319.208 366.659 321.112 366.605L342.015 366.416C344.521 366.349 346.987 365.85 349.47 365.785L419.367 365.133L438.539 363.968C441.116 363.8 443.643 363.453 446.234 363.409L475.753 363.551C477.228 363.607 478.785 363.812 480.211 363.794C475.748 354.612 463.306 354.521 454.595 354.54L356.571 358.313L304.789 359.33C302.472 359.435 300.143 360.03 297.789 360.106L213.536 360.117C210.075 360.058 206.739 359.449 203.307 359.352L143.431 357.774L102.628 355.029C87.1901 353.699 71.6579 351.729 56.1556 351.742C43.1202 351.754 35.7854 354.881 33.1446 367.98C29.0479 388.301 41.5541 442.578 57.513 452.018C60.0547 453.522 62.8744 454.298 65.698 455.098ZM264.555 304.375C264.284 306.559 264.445 308.872 264.453 311.072L264.515 337.302C264.519 340.333 264.408 343.416 264.654 346.436C265.283 346.808 266.135 346.57 267.276 346.49L267.239 311.929C267.153 309.548 267.961 304.462 264.555 304.375Z" fill="#00112B"/>
<path d="M265.451 251.356C289.983 252.354 292.26 291.229 264.783 292.412C237.485 289.267 237.933 254.086 265.451 251.356Z" fill="#6B16FD"/>
<path d="M65.698 455.098C65.6507 454.591 62.3945 452.509 61.8185 451.836C57.6936 447.018 55.2722 439.808 53.1947 433.887L49.1639 421.875C41.9032 398.16 43.5284 374.027 74.0598 374.036L129.77 373.96C140.393 373.626 151.614 373.954 161.914 373.269L184.901 371.279L302.664 367.175L315.431 367.069C317.341 367.009 319.208 366.659 321.112 366.605L342.015 366.416C344.521 366.349 346.987 365.85 349.47 365.785L419.367 365.133L438.539 363.968C441.116 363.8 443.643 363.453 446.234 363.409L475.753 363.551C477.228 363.607 478.785 363.812 480.211 363.389C486.331 378.802 487.65 395.932 489.359 411.931L490.446 421.5C490.731 424.081 490.949 426.661 491.716 429.156C490.045 441.308 487.105 448.838 474.564 451.498C473.753 446.705 470.965 447.453 466.885 447.456C458.02 447.462 449.374 448.458 440.552 449.102C434.435 449.549 428.404 449.654 422.308 450.457C409.998 451.624 397.59 451.227 385.273 450.567L373.664 450.3L332.841 448.072C330.751 447.975 328.719 447.591 326.608 447.543L268.38 447.563C266.272 447.631 264.16 448.019 262.039 448.106L242.537 448.756L136.32 456.533C131.7 456.692 127.247 457.166 122.81 457.327L84.4065 457.478C80.4976 457.471 68.8541 457.366 65.698 455.098Z" fill="#6B16FD"/>
<path d="M365.819 416.815L414.191 416.82C422.573 417.064 435.577 417.049 442.914 418.475C448.317 419.525 450.221 424.991 445.775 428.947C443.469 431 437.69 429.827 434.727 429.683L424.153 429.264C418.556 428.829 412.914 427.993 407.309 427.809L363.151 427.71C360.977 427.708 357.682 428.119 355.726 427.155C352.304 425.47 350.178 418.967 354.846 417.741L355.164 417.665C358.567 416.808 362.32 416.928 365.819 416.815Z" fill="#00112B"/>
<path d="M355.479 385.803C360.277 385.671 364.899 386.479 369.675 386.646L442.078 386.752C447.117 386.756 454.771 386.708 453.04 394C452.521 396.182 451.284 397.529 449.409 398.653C446.535 399.535 443.609 399.289 440.632 399.293L398.566 399.049C396.523 398.96 394.533 398.384 392.527 398.322L370.164 397.762C366.44 397.548 362.735 397.426 359.067 396.659C353.564 395.509 348.237 389.095 355.479 385.803Z" fill="#00112B"/>
<path d="M176.866 391.335L177.164 391.29C205.48 388.151 216.832 437.206 182.072 441.217C150.563 441.974 143.57 396.194 176.866 391.335Z" fill="#00112B"/>
<path d="M176.531 404.562C190.312 403.683 197.943 424.213 181.353 426.164C165.329 427.358 163.295 407.023 176.531 404.562Z" fill="#FCD004"/>
<path d="M103.064 383.605C119.04 382.354 134.309 395.926 136.857 411.32C139.635 428.103 126.203 446.56 109.389 449.171C102.583 449.632 97.1868 449.308 91.2288 445.69C66.7981 430.855 73.6972 389.623 97.8694 384.3L98.2894 384.21C99.8814 383.86 101.442 383.729 103.064 383.605Z" fill="#00112B"/>
<path d="M101.347 395.316C103.458 395.139 105.699 395.702 107.665 396.442C127.367 403.858 130.934 425.785 110.51 434.594L108.432 435.163C82.0555 440.428 82.2613 398.789 101.347 395.316Z" fill="#FCD004"/>
<path d="M106.497 404.804C108.772 404.69 110.506 404.8 112.61 405.829C122.992 410.907 117.52 420.879 107.773 423.659C91.6897 427.215 94.0924 408.294 106.497 404.804Z" fill="#00112B"/>
<path d="M89.4367 94.2183L82.9058 86.6455C82.4175 87.0666 81.9711 87.534 81.5728 88.041L89.4367 94.2183ZM98.354 113.189L96.7109 123.053L96.7115 123.053L98.354 113.189ZM110.21 108.165L104.412 100.018L104.412 100.018L110.21 108.165ZM234.635 62.6922L233.975 52.714L233.975 52.7141L234.635 62.6922ZM249.668 62.4858L249.784 52.4864C249.746 52.486 249.708 52.4858 249.669 52.4858L249.668 62.4858ZM264.557 62.6582L265.125 52.6743C264.974 52.6657 264.824 52.6606 264.673 52.6589L264.557 62.6582ZM401.548 112.382L407.277 104.186L407.277 104.186L401.548 112.382ZM422.56 125.221L420.989 135.097C421.011 135.1 421.032 135.104 421.054 135.107L422.56 125.221ZM423.039 125.294L424.596 115.416C424.579 115.414 424.563 115.411 424.546 115.408L423.039 125.294ZM429.514 125.143L427.056 115.45L427.054 115.451L429.514 125.143ZM435.375 98.4133L442.605 91.504L442.604 91.5038L435.375 98.4133ZM364.331 54.802L360.38 63.9881V63.9881L364.331 54.802ZM253.38 153.677L252.107 143.758C250.369 143.981 248.72 144.657 247.326 145.718L253.38 153.677ZM248.64 154.836L246.68 145.03C246.597 145.046 246.515 145.064 246.432 145.083L248.64 154.836ZM239.163 156.982L236.955 147.229C236.828 147.258 236.702 147.289 236.576 147.322L239.163 156.982ZM186.571 183.625L194.736 189.399L194.737 189.398L186.571 183.625ZM184.256 186.866L179.265 178.201C177.113 179.44 175.5 181.436 174.738 183.8L184.256 186.866ZM184.227 186.956L174.709 183.89C174.448 184.7 174.292 185.54 174.243 186.389L184.227 186.956ZM185.794 195.25L177.031 200.066L177.031 200.067L185.794 195.25ZM217.486 189.691L212.711 180.905L212.711 180.905L217.486 189.691ZM309.415 188.325L314.359 179.632C314.219 179.553 314.078 179.477 313.935 179.404L309.415 188.325ZM322.946 196.02L328.08 187.438C328.017 187.401 327.954 187.364 327.89 187.327L322.946 196.02ZM344.115 201.468L339.165 192.779L344.115 201.468ZM355.992 185.783L365.639 188.419C366.199 186.368 366.091 184.191 365.331 182.206L355.992 185.783ZM317.634 159.567L314.724 169.134C314.885 169.183 315.047 169.228 315.21 169.269L317.634 159.567ZM290.738 154.618L282.633 160.475C284.291 162.769 286.844 164.253 289.657 164.559L290.738 154.618ZM290.725 154.6L298.831 148.743C297.186 146.467 294.66 144.987 291.871 144.666L290.725 154.6ZM490.446 421.5L500.386 420.402C500.385 420.392 500.384 420.381 500.383 420.371L490.446 421.5ZM475.753 363.551L476.133 353.558C476.022 353.554 475.912 353.551 475.802 353.551L475.753 363.551ZM446.234 363.409L446.283 353.409C446.21 353.408 446.137 353.409 446.065 353.41L446.234 363.409ZM438.539 363.968L439.146 373.949C439.161 373.948 439.175 373.947 439.19 373.946L438.539 363.968ZM419.367 365.133L419.461 375.132C419.632 375.131 419.803 375.125 419.974 375.114L419.367 365.133ZM349.47 365.785L349.377 355.785C349.321 355.786 349.265 355.787 349.209 355.788L349.47 365.785ZM342.015 366.416L342.106 376.415C342.165 376.415 342.224 376.414 342.283 376.412L342.015 366.416ZM321.112 366.605L321.022 356.605C320.958 356.606 320.893 356.607 320.829 356.609L321.112 366.605ZM315.431 367.069L315.514 377.068C315.591 377.068 315.668 377.066 315.745 377.064L315.431 367.069ZM302.664 367.175L302.581 357.175C302.493 357.176 302.405 357.178 302.316 357.181L302.664 367.175ZM184.901 371.279L184.553 361.285C184.382 361.291 184.21 361.301 184.039 361.316L184.901 371.279ZM161.914 373.269L162.578 383.247C162.644 383.242 162.711 383.237 162.777 383.231L161.914 373.269ZM129.77 373.96L129.784 383.96C129.884 383.959 129.985 383.958 130.085 383.955L129.77 373.96ZM74.0598 374.036L74.0569 384.036C74.0624 384.036 74.0679 384.036 74.0735 384.036L74.0598 374.036ZM49.1639 421.875L39.602 424.802C39.628 424.887 39.6552 424.972 39.6835 425.056L49.1639 421.875ZM53.1947 433.887L43.7143 437.068C43.7288 437.111 43.7436 437.154 43.7587 437.197L53.1947 433.887ZM61.8185 451.836L69.4159 445.333L69.4148 445.332L61.8185 451.836ZM65.698 455.098L55.7413 456.026C56.01 458.907 57.5131 461.53 59.8624 463.218L65.698 455.098ZM84.4065 457.478L84.3886 467.478C84.4077 467.478 84.4268 467.478 84.4458 467.478L84.4065 457.478ZM122.81 457.327L122.85 467.327C122.958 467.326 123.065 467.324 123.173 467.32L122.81 457.327ZM136.32 456.533L136.664 466.527C136.793 466.522 136.922 466.515 137.051 466.506L136.32 456.533ZM242.537 448.756L242.204 438.761C242.072 438.766 241.939 438.773 241.807 438.782L242.537 448.756ZM262.039 448.106L262.373 458.1C262.398 458.099 262.424 458.098 262.449 458.097L262.039 448.106ZM268.38 447.563L268.377 437.563C268.271 437.563 268.164 437.564 268.058 437.568L268.38 447.563ZM326.608 447.543L326.836 437.545C326.759 437.543 326.682 437.543 326.605 437.543L326.608 447.543ZM332.841 448.072L333.386 438.086C333.359 438.085 333.332 438.084 333.305 438.082L332.841 448.072ZM373.664 450.3L373.119 460.285C373.224 460.29 373.329 460.295 373.435 460.297L373.664 450.3ZM466.885 447.456L466.892 457.456H466.893L466.885 447.456ZM87.6633 82.5425L82.9058 86.6455L95.9677 101.791L100.725 97.688L87.6633 82.5425ZM81.5728 88.041C75.7833 95.4112 76.5375 104.19 79.8146 110.499C82.9768 116.586 89.0984 121.785 96.7109 123.053L99.9972 103.325C99.7495 103.284 99.3126 103.135 98.793 102.735C98.2699 102.332 97.8356 101.804 97.5628 101.279C97.2899 100.754 97.2791 100.436 97.2809 100.385C97.2815 100.368 97.2817 100.392 97.2669 100.434C97.2507 100.479 97.2442 100.467 97.3007 100.396L81.5728 88.041ZM96.7115 123.053C101.953 123.926 106.257 122.538 109.522 120.757C112.087 119.358 115.092 116.965 116.009 116.312L104.412 100.018C103.844 100.422 103.308 100.821 102.844 101.168C102.353 101.535 101.97 101.824 101.576 102.112C100.791 102.686 100.305 103.003 99.944 103.2C99.6156 103.379 99.5474 103.37 99.6634 103.345C99.7219 103.333 99.7971 103.323 99.8769 103.321C99.9566 103.319 100.001 103.326 99.9966 103.325L96.7115 123.053ZM116.009 116.313C150.933 91.4588 192.67 75.4938 235.296 72.6703L233.975 52.7141C187.319 55.8044 142.074 73.2158 104.412 100.018L116.009 116.313ZM235.296 72.6703C239.846 72.369 244.338 72.4854 249.668 72.4858L249.669 52.4858C245.005 52.4854 239.399 52.3548 233.975 52.714L235.296 72.6703ZM249.553 72.4851L264.442 72.6575L264.673 52.6589L249.784 52.4864L249.553 72.4851ZM263.99 72.6421C311.664 75.3507 356.491 93.0936 395.82 120.579L407.277 104.186C365.44 74.9474 317.105 55.6276 265.125 52.6743L263.99 72.6421ZM395.82 120.579C397.109 121.48 398.477 122.561 400.156 123.902C401.75 125.175 403.631 126.686 405.598 128.105C409.449 130.883 414.654 134.089 420.989 135.097L424.132 115.346C422.479 115.083 420.363 114.095 417.298 111.884C415.806 110.808 414.33 109.627 412.635 108.273C411.026 106.988 409.172 105.51 407.277 104.186L395.82 120.579ZM421.054 135.107L421.533 135.18L424.546 115.408L424.067 115.335L421.054 135.107ZM421.483 135.172C424.448 135.64 428.148 135.807 431.975 134.836L427.054 115.451C426.681 115.545 425.883 115.619 424.596 115.416L421.483 135.172ZM431.973 134.836C442.121 132.263 449.432 125.401 451.091 115.8C452.637 106.859 448.83 98.0176 442.605 91.504L428.146 105.323C431.251 108.571 431.572 111.305 431.384 112.393C431.3 112.875 431.108 113.284 430.68 113.705C430.217 114.162 429.177 114.912 427.056 115.45L431.973 134.836ZM442.604 91.5038C433.814 82.307 420.051 72.9844 406.563 65.0923C392.887 57.0899 378.652 50.0762 368.283 45.6158L360.38 63.9881C370.01 68.1307 383.51 74.7754 396.463 82.3544C409.604 90.0436 421.363 98.2253 428.146 105.323L442.604 91.5038ZM368.283 45.6158C347.681 36.7534 323.712 28.0413 300.464 24.4L297.369 44.1591C318.173 47.4177 340.35 55.372 360.38 63.9881L368.283 45.6158ZM247.326 145.718C248.054 145.164 248.716 144.887 249.103 144.756C249.467 144.633 249.676 144.609 249.568 144.626C249.524 144.633 249.445 144.644 249.299 144.661C249.126 144.682 248.999 144.695 248.729 144.726C248.501 144.751 248.194 144.787 247.864 144.832C247.531 144.878 247.126 144.941 246.68 145.03L250.6 164.642C250.522 164.658 250.551 164.647 250.964 164.6C251.246 164.569 251.955 164.495 252.639 164.389C253.939 164.187 256.769 163.664 259.435 161.636L247.326 145.718ZM246.432 145.083L236.955 147.229L241.372 166.735L250.849 164.589L246.432 145.083ZM236.576 147.322C228.641 149.448 217.379 152.786 206.705 157.495C196.408 162.037 184.975 168.56 178.406 177.852L194.737 189.398C198.002 184.779 205.113 180.057 214.777 175.793C224.064 171.697 234.181 168.669 241.751 166.641L236.576 147.322ZM178.407 177.851C178.127 178.246 177.899 178.611 177.726 178.901C177.553 179.191 177.405 179.457 177.297 179.653C177.242 179.753 177.19 179.849 177.148 179.926C177.103 180.01 177.069 180.071 177.036 180.133C176.969 180.254 176.937 180.311 176.921 180.339C176.906 180.365 176.927 180.327 176.979 180.249C177.031 180.172 177.134 180.025 177.291 179.837C177.588 179.48 178.223 178.801 179.265 178.201L189.248 195.531C190.829 194.62 191.934 193.506 192.655 192.641C193.369 191.784 193.876 190.963 194.183 190.439C194.451 189.982 194.777 189.373 194.827 189.282C194.968 189.024 194.907 189.157 194.736 189.399L178.407 177.851ZM174.738 183.8L174.709 183.89L193.746 190.022L193.775 189.932L174.738 183.8ZM174.243 186.389C174.025 190.236 174.451 195.372 177.031 200.066L194.558 190.433C194.434 190.208 194.114 189.244 194.211 187.523L174.243 186.389ZM177.031 200.067C180.134 205.712 184.965 209.408 191.003 210.407C196.361 211.293 201.39 209.827 205.083 208.304C208.909 206.727 212.535 204.558 215.413 202.749C218.669 200.704 220.581 199.391 222.262 198.477L212.711 180.905C210.296 182.217 207.1 184.352 204.771 185.816C202.065 187.516 199.632 188.918 197.46 189.814C195.156 190.764 194.248 190.672 194.268 190.675C194.968 190.791 195.06 191.346 194.558 190.433L177.031 200.067ZM222.262 198.477C249.32 183.771 277.668 183.451 304.896 197.245L313.935 179.404C280.855 162.645 245.557 163.053 212.711 180.905L222.262 198.477ZM304.472 197.018L318.003 204.713L327.89 187.327L314.359 179.632L304.472 197.018ZM317.813 204.602C320.178 206.017 324.795 209.028 329.561 210.848C334.421 212.704 341.822 214.284 349.066 210.156L339.165 192.779C339.554 192.557 339.261 193.143 336.696 192.164C334.037 191.148 331.497 189.482 328.08 187.438L317.813 204.602ZM349.066 210.156C357.03 205.619 363.37 196.72 365.639 188.419L346.346 183.147C345.342 186.82 342.089 191.113 339.165 192.779L349.066 210.156ZM365.331 182.206C361.679 172.672 352.668 165.407 344.759 160.545C336.464 155.445 327.142 151.635 320.059 149.865L315.21 169.269C320.191 170.513 327.627 173.489 334.284 177.582C341.326 181.912 345.462 186.248 346.654 189.36L365.331 182.206ZM320.545 150C310.751 147.02 301.173 145.694 291.819 144.676L289.657 164.559C298.698 165.542 306.77 166.714 314.724 169.134L320.545 150ZM298.844 148.761L298.831 148.743L282.62 160.457L282.633 160.475L298.844 148.761ZM291.871 144.666C279.796 143.274 265.497 142.039 252.107 143.758L254.654 163.595C265.44 162.211 277.645 163.158 289.58 164.534L291.871 144.666ZM501.275 426.217C500.853 424.845 500.718 423.405 500.386 420.402L480.507 422.597C480.745 424.756 481.046 428.476 482.158 432.094L501.275 426.217ZM500.383 420.371L499.296 410.802L479.423 413.059L480.51 422.628L500.383 420.371ZM480.085 353.794C479.842 353.797 479.47 353.782 478.744 353.727C478.155 353.684 477.109 353.595 476.133 353.558L475.374 373.543C475.873 373.562 476.343 373.604 477.258 373.672C478.035 373.73 479.155 373.808 480.338 373.793L480.085 353.794ZM475.802 353.551L446.283 353.409L446.186 373.408L475.705 373.55L475.802 353.551ZM446.065 353.41C443.303 353.457 439.376 353.892 437.889 353.989L439.19 373.946C442.857 373.707 443.984 373.448 446.404 373.407L446.065 353.41ZM437.933 353.986L418.761 355.151L419.974 375.114L439.146 373.949L437.933 353.986ZM419.274 355.133L349.377 355.785L349.564 375.784L419.461 375.132L419.274 355.133ZM349.209 355.788C347.458 355.834 345.786 356.031 344.62 356.164C343.309 356.313 342.496 356.399 341.748 356.419L342.283 376.412C344.041 376.365 345.714 376.168 346.883 376.035C348.198 375.885 349 375.8 349.732 375.781L349.209 355.788ZM341.925 356.416L321.022 356.605L321.203 376.604L342.106 376.415L341.925 356.416ZM320.829 356.609C319.418 356.649 318.088 356.796 317.202 356.892C316.19 357.001 315.627 357.058 315.117 357.074L315.745 377.064C317.146 377.02 318.471 376.871 319.346 376.777C320.348 376.669 320.902 376.615 321.396 376.601L320.829 356.609ZM315.348 357.069L302.581 357.175L302.747 377.174L315.514 377.068L315.348 357.069ZM302.316 357.181L184.553 361.285L185.25 381.273L303.013 377.169L302.316 357.181ZM184.039 361.316L161.052 363.306L162.777 383.231L185.764 381.241L184.039 361.316ZM161.251 363.291C150.981 363.974 141.129 363.598 129.456 363.965L130.085 383.955C139.657 383.654 152.248 383.934 162.578 383.247L161.251 363.291ZM129.757 363.96L74.0462 364.036L74.0735 384.036L129.784 383.96L129.757 363.96ZM74.0628 364.036C65.1639 364.033 57.3966 365.786 51.0766 369.625C44.6205 373.547 40.4148 379.202 38.0566 385.601C33.5793 397.751 35.7923 412.359 39.602 424.802L58.7258 418.947C55.2748 407.675 54.6701 398.359 56.8231 392.516C57.78 389.919 59.2514 388.06 61.4601 386.718C63.8049 385.294 67.69 384.034 74.0569 384.036L74.0628 364.036ZM39.6835 425.056L43.7143 437.068L62.6752 430.705L58.6444 418.693L39.6835 425.056ZM43.7587 437.197C45.6151 442.488 48.6109 451.785 54.2222 458.339L69.4148 445.332C66.7763 442.25 64.9293 437.127 62.6307 430.576L43.7587 437.197ZM54.2212 458.338C54.5708 458.746 54.8928 459.061 55.0955 459.253C55.3151 459.46 55.5187 459.637 55.681 459.775C55.9998 460.045 56.3161 460.293 56.5633 460.484C57.0143 460.831 57.6403 461.292 57.9621 461.533C58.163 461.683 58.322 461.804 58.4498 461.904C58.585 462.009 58.6311 462.049 58.6188 462.039C58.6097 462.031 58.5587 461.987 58.4796 461.911C58.4077 461.843 58.2535 461.693 58.0598 461.475C57.8929 461.287 57.5222 460.854 57.1333 460.221C56.9315 459.892 56.6582 459.403 56.4054 458.774C56.1588 458.16 55.8524 457.218 55.7413 456.026L75.6548 454.169C75.4429 451.898 74.5167 450.309 74.1727 449.749C73.7306 449.03 73.2845 448.499 73.0229 448.204C72.4938 447.608 71.9737 447.146 71.6869 446.899C71.0735 446.369 70.3896 445.853 69.9509 445.525C69.3808 445.098 69.0818 444.881 68.7588 444.632C68.619 444.525 68.586 444.496 68.6163 444.521C68.6343 444.537 68.7089 444.6 68.8174 444.702C68.9092 444.789 69.1383 445.009 69.4159 445.333L54.2212 458.338ZM59.8624 463.218C62.4851 465.103 65.6127 465.854 67.3853 466.22C69.539 466.663 71.8586 466.931 73.954 467.102C78.1703 467.447 82.3942 467.474 84.3886 467.478L84.4244 447.478C82.5099 447.474 78.9576 447.445 75.586 447.169C73.8873 447.03 72.46 446.845 71.4207 446.631C70.9059 446.525 70.6346 446.441 70.5528 446.413C70.4039 446.361 70.8569 446.491 71.5336 446.977L59.8624 463.218ZM84.4458 467.478L122.85 467.327L122.771 447.327L84.3672 447.478L84.4458 467.478ZM123.173 467.32C125.594 467.232 127.993 467.06 130.201 466.904C132.466 466.744 134.561 466.599 136.664 466.527L135.976 446.539C133.46 446.625 131.019 446.797 128.793 446.954C126.51 447.115 124.464 447.26 122.448 447.333L123.173 467.32ZM137.051 466.506L243.268 458.729L241.807 438.782L135.59 446.559L137.051 466.506ZM242.871 458.75L262.373 458.1L261.706 438.111L242.204 438.761L242.871 458.75ZM262.449 458.097C263.917 458.037 265.331 457.875 266.31 457.767C267.412 457.645 268.094 457.577 268.703 457.557L268.058 437.568C266.559 437.616 265.131 437.776 264.12 437.887C262.985 438.012 262.283 438.087 261.63 438.114L262.449 458.097ZM268.384 457.563L326.612 457.543L326.605 437.543L268.377 437.563L268.384 457.563ZM326.381 457.54C326.951 457.553 327.593 457.613 328.635 457.728C329.554 457.83 330.944 457.994 332.378 458.061L333.305 438.082C332.649 438.052 331.978 437.976 330.831 437.849C329.807 437.736 328.377 437.58 326.836 437.545L326.381 457.54ZM332.296 458.057L373.119 460.285L374.209 440.314L333.386 438.086L332.296 458.057ZM373.435 460.297L385.044 460.564L385.503 440.569L373.894 440.302L373.435 460.297ZM441.28 459.075C450.651 458.391 458.508 457.461 466.892 457.456L466.879 437.456C457.533 437.462 448.098 438.524 439.824 439.128L441.28 459.075ZM466.893 457.456C467.539 457.455 468.145 457.44 468.596 457.429C469.094 457.417 469.391 457.41 469.641 457.412C470.247 457.415 469.773 457.476 468.949 457.217C468.461 457.063 467.827 456.794 467.162 456.334C466.485 455.865 465.931 455.305 465.509 454.725C464.715 453.634 464.648 452.832 464.705 453.166L484.424 449.829C484.075 447.766 483.355 445.26 481.683 442.962C479.841 440.428 477.403 438.911 474.953 438.139C472.82 437.468 470.833 437.418 469.744 437.412C469.147 437.409 468.549 437.424 468.111 437.435C467.625 437.447 467.252 437.455 466.878 437.456L466.893 457.456ZM252.039 104.381L252.2 84.3815C251.965 84.3796 251.73 84.3819 251.495 84.3883L252.039 104.381ZM273.22 104.551L274.126 84.5714C273.878 84.5601 273.63 84.5535 273.381 84.5515L273.22 104.551ZM327.276 114.375L346.438 108.646C345.275 104.754 342.954 101.309 339.784 98.7682L327.276 114.375ZM324.704 119.442L316.509 101.198L316.506 101.2L324.704 119.442ZM317.247 118.821L320.003 99.0115C319.877 98.9941 319.751 98.9778 319.625 98.9627L317.247 118.821ZM309.347 117.875L311.725 98.0167C311.595 98.0011 311.464 97.9868 311.333 97.9737L309.347 117.875ZM185.342 132.279L176.584 114.298C176.508 114.336 176.432 114.373 176.356 114.411L185.342 132.279ZM149.366 156.245L162.566 171.27L162.568 171.269L149.366 156.245ZM141.005 161.744L139.819 141.779L139.817 141.779L141.005 161.744ZM137.151 152.125L151.769 165.775L151.771 165.772L137.151 152.125ZM142.567 147.278L155.66 162.397L155.661 162.396L142.567 147.278ZM298.916 34.2796L302.805 53.8979C312.055 52.0643 318.768 44.0187 318.914 34.5899C319.06 25.1611 312.601 16.9111 303.412 14.7914L298.916 34.2796ZM255.904 30.2399L255.887 10.2399C255.778 10.24 255.668 10.241 255.558 10.2429L255.904 30.2399ZM242.193 30.4772L241.847 10.4802C241.527 10.4857 241.207 10.499 240.887 10.5199L242.193 30.4772ZM106.498 73.6371L117.083 90.607L117.083 90.6069L106.498 73.6371ZM81.8541 87.404L94.6362 102.786L94.6364 102.786L81.8541 87.404ZM77.6644 90.9583L61.9555 103.337C66.5807 109.206 74.0923 112.008 81.4315 110.6L77.6644 90.9583ZM77.5005 90.7503L58.9307 83.3231C56.2756 89.9618 57.3663 97.5129 61.7916 103.129L77.5005 90.7503ZM74.6538 89.1363L55.251 93.9871C56.5407 99.1458 59.8316 103.578 64.3965 106.306L74.6538 89.1363ZM74.4948 88.5003L57.6208 77.764C54.6756 82.3929 53.7613 88.0285 55.092 93.3511L74.4948 88.5003ZM149.664 40.2565L157.02 58.8546L157.021 58.8545L149.664 40.2565ZM308.164 25.2527L304.433 44.9016V44.9016L308.164 25.2527ZM420.471 69.6835L409.637 86.4948L409.638 86.4951L420.471 69.6835ZM444.71 88.1253L459.133 74.2691L459.132 74.2686L444.71 88.1253ZM441.924 134.071L430.902 117.383L430.9 117.384L441.924 134.071ZM417.864 138.32L413.697 157.881L413.698 157.881L417.864 138.32ZM393.669 122.404L381.753 138.466L381.755 138.468L393.669 122.404ZM372.831 108.454L382.714 91.0666C382.439 90.9103 382.16 90.7605 381.878 90.6174L372.831 108.454ZM350.664 97.2113L359.711 79.3744C359.486 79.2599 359.258 79.1497 359.028 79.0439L350.664 97.2113ZM267.465 75.4698L268.612 55.5027C268.242 55.4814 267.872 55.4705 267.502 55.4698L267.465 75.4698ZM243.255 75.425L243.292 55.425C242.961 55.4244 242.63 55.432 242.299 55.4478L243.255 75.425ZM130.664 110.242L119.867 93.4072C119.831 93.4304 119.795 93.4538 119.759 93.4772L130.664 110.242ZM119.946 117.214L130.838 133.989C130.842 133.986 130.847 133.982 130.852 133.979L119.946 117.214ZM109.944 122.624L103.992 103.531L103.991 103.531L109.944 122.624ZM78.6612 100.749L98.2188 96.5659L98.2188 96.5659L78.6612 100.749ZM76.5639 93.4383L65.8854 76.5277C56.625 82.3754 53.7903 94.5836 59.5266 103.913L76.5639 93.4383ZM87.6555 92.2883L95.815 74.0284C91.3117 72.0161 86.2237 71.7389 81.5284 73.25L87.6555 92.2883ZM87.9688 92.4283L79.8094 110.688C83.3221 112.258 87.213 112.781 91.0156 112.195L87.9688 92.4283ZM94.1942 90.1153L101.744 108.636C105.065 107.282 107.961 105.06 110.128 102.203L94.1942 90.1153ZM263.504 141.397L264.19 161.385C264.306 161.381 264.422 161.376 264.538 161.37L263.504 141.397ZM363.144 171.562L379.412 159.927C379.399 159.91 379.387 159.892 379.375 159.875L363.144 171.562ZM363.968 172.714L380.353 161.245C380.314 161.19 380.275 161.134 380.236 161.079L363.968 172.714ZM368.854 190.746L388.405 194.96C388.441 194.793 388.475 194.625 388.507 194.457L368.854 190.746ZM368.452 192.611L387.733 197.928C387.833 197.563 387.924 197.195 388.003 196.825L368.452 192.611ZM331.289 216.258L336.241 196.881L336.241 196.881L331.289 216.258ZM310.14 205.375L300.147 222.699L300.147 222.699L310.14 205.375ZM284.685 193.982L290.219 174.763C290.104 174.729 289.988 174.697 289.873 174.666L284.685 193.982ZM228.247 199.652L237.435 217.417L237.436 217.416L228.247 199.652ZM208.914 209.249L203.006 190.142L203.005 190.142L208.914 209.249ZM183.694 206.537L171.999 222.761L172.001 222.762L183.694 206.537ZM180.349 169.284L165.79 155.571L165.789 155.572L180.349 169.284ZM237.645 144.068L233.75 124.451L233.749 124.451L237.645 144.068ZM253.38 153.31L267.842 167.125C273.43 161.275 274.944 152.635 271.677 145.234C268.41 137.832 261.006 133.128 252.918 133.315L253.38 153.31ZM199.744 167.175L190.946 149.214L190.945 149.215L199.744 167.175ZM289.754 160.604L269.9 158.197C269.202 163.956 271.038 169.735 274.934 174.033C278.829 178.332 284.399 180.728 290.199 180.599L289.754 160.604ZM304.164 159.016L304.575 179.012L304.581 179.012L304.164 159.016ZM96.6129 88.6423L87.0458 71.079C86.8524 71.1844 86.6607 71.2929 86.4709 71.4046L96.6129 88.6423ZM121.536 75.066L131.103 92.6293C131.242 92.5538 131.38 92.4766 131.517 92.3978L121.536 75.066ZM150.592 58.9919L159.105 77.0899L159.105 77.0897L150.592 58.9919ZM247.039 35.1987L246.579 15.204C246.282 15.2108 245.985 15.2243 245.689 15.2444L247.039 35.1987ZM288.115 34.2539L288.142 14.2539C287.98 14.2537 287.818 14.2555 287.655 14.2592L288.115 34.2539ZM298.694 34.3236L302.245 54.0059C302.358 53.9855 302.471 53.9642 302.583 53.9419L298.694 34.3236ZM421.49 456.244L441.49 456.095C441.432 448.345 436.902 441.325 429.863 438.08C422.823 434.836 414.543 435.95 408.613 440.941L421.49 456.244ZM420.404 458.219L402.174 449.993L402.172 449.998L420.404 458.219ZM409.188 464.406L408.498 484.394C408.624 484.398 408.75 484.401 408.877 484.403L409.188 464.406ZM334.039 461.81L333.298 481.796C333.315 481.796 333.332 481.797 333.349 481.798L334.039 461.81ZM327.349 461.092L328.045 441.104C327.809 441.095 327.572 441.091 327.336 441.092L327.349 461.092ZM254.574 461.142L254.561 441.142C254.304 441.142 254.048 441.147 253.791 441.157L254.574 461.142ZM248.984 461.745L250.258 481.704L250.268 481.703L248.984 461.745ZM139.064 468.761L139.436 488.757C139.737 488.752 140.038 488.739 140.338 488.72L139.064 468.761ZM128.789 468.952L128.418 448.955C128.219 448.959 128.02 448.965 127.821 448.975L128.789 468.952ZM123.013 469.546L123.077 489.546C123.279 489.545 123.481 489.541 123.683 489.534L123.013 469.546ZM94.0054 469.638L94.0438 489.638C94.0521 489.638 94.0605 489.638 94.0689 489.638L94.0054 469.638ZM41.3849 455.588L25.7488 468.058L25.7489 468.058L41.3849 455.588ZM21.9178 393.042L41.7889 390.774L41.7889 390.774L21.9178 393.042ZM50.4782 340.83L48.8412 320.897L48.8407 320.897L50.4782 340.83ZM77.4144 341.512L76.3724 361.484C76.3968 361.486 76.4213 361.487 76.4457 361.488L77.4144 341.512ZM152.414 345.149L151.446 365.125C151.597 365.132 151.749 365.138 151.901 365.142L152.414 345.149ZM195.858 346.264L196.61 326.278C196.53 326.275 196.451 326.272 196.372 326.27L195.858 346.264ZM205.04 346.789L204.944 366.788C204.954 366.788 204.963 366.788 204.973 366.788L205.04 346.789ZM254.331 346.955L254.264 366.954C259.6 366.972 264.721 364.858 268.49 361.08C272.258 357.303 274.361 352.177 274.331 346.841L254.331 346.955ZM254.089 304.342L274.089 304.228C274.053 297.857 270.984 291.885 265.825 288.147L254.089 304.342ZM248.695 301.397L259.692 284.691L259.692 284.691L248.695 301.397ZM247.253 246.879L258.167 263.638L258.168 263.638L247.253 246.879ZM283.322 299.552L294.482 316.149L294.487 316.145L283.322 299.552ZM281.229 303.013L301.229 303.007C301.229 302.811 301.226 302.615 301.221 302.419L281.229 303.013ZM281.241 347.23L261.241 347.235C261.243 352.624 263.419 357.784 267.277 361.547C271.135 365.31 276.348 367.357 281.735 367.224L281.241 347.23ZM364.867 345.166L365.361 365.159C365.523 365.156 365.684 365.15 365.846 365.142L364.867 345.166ZM414.414 342.74L413.774 322.75C413.661 322.753 413.549 322.758 413.436 322.764L414.414 342.74ZM434.699 342.09L435.34 362.079C435.441 362.076 435.543 362.072 435.644 362.067L434.699 342.09ZM497.319 371.703L477.769 375.919L477.769 375.919L497.319 371.703ZM495.901 428.381L476.574 423.238L476.573 423.241L495.901 428.381ZM491.716 429.156L501.896 411.94C496.133 408.532 489.045 408.234 483.016 411.147C476.987 414.06 472.815 419.797 471.903 426.431L491.716 429.156ZM469.473 414.055C470.646 425.038 480.501 432.991 491.484 431.817C502.467 430.644 510.42 420.79 509.246 409.806L469.473 414.055ZM480.211 363.794L498.731 356.242C498.567 355.839 498.389 355.442 498.199 355.051L480.211 363.794ZM386.344 430.595C375.314 430.004 365.893 438.467 365.302 449.496C364.711 460.526 373.173 469.947 384.203 470.538L386.344 430.595ZM422.308 450.511L424.109 470.429C424.438 470.4 424.766 470.362 425.093 470.316L422.308 450.511ZM442.01 469.048C453.026 468.243 461.304 458.66 460.499 447.644C459.694 436.628 450.111 428.35 439.095 429.155L442.01 469.048ZM474.564 451.498L470.415 431.933C463.996 433.294 458.653 437.718 456.118 443.77L474.564 451.498ZM469.613 463.798L487.013 473.659L487.014 473.658L469.613 463.798ZM421.614 460.928L401.905 464.323L401.906 464.333L421.614 460.928ZM454.595 354.54L454.552 334.54C454.31 334.54 454.068 334.545 453.826 334.554L454.595 354.54ZM356.571 358.313L356.964 378.309C357.09 378.306 357.215 378.303 357.341 378.298L356.571 358.313ZM304.789 359.33L304.397 339.333C304.226 339.337 304.055 339.342 303.884 339.35L304.789 359.33ZM297.789 360.106L297.792 380.106C298.006 380.106 298.221 380.102 298.435 380.095L297.789 360.106ZM213.536 360.117L213.196 380.114C213.31 380.116 213.425 380.117 213.539 380.117L213.536 360.117ZM203.307 359.352L203.872 339.36C203.86 339.359 203.847 339.359 203.834 339.359L203.307 359.352ZM143.431 357.774L142.089 377.728C142.361 377.747 142.632 377.759 142.905 377.767L143.431 357.774ZM102.628 355.029L100.911 374.955C101.036 374.966 101.161 374.975 101.285 374.983L102.628 355.029ZM56.1556 351.742L56.1388 331.742H56.1372L56.1556 351.742ZM33.1446 367.98L13.5391 364.027L13.5391 364.027L33.1446 367.98ZM57.513 452.018L67.6981 434.805L67.6954 434.804L57.513 452.018ZM264.555 304.375L265.066 284.381C254.781 284.118 245.975 291.702 244.708 301.912L264.555 304.375ZM264.453 311.072L284.453 311.024C284.453 311.016 284.453 311.007 284.453 310.999L264.453 311.072ZM264.515 337.302L284.515 337.275C284.515 337.268 284.515 337.261 284.515 337.254L264.515 337.302ZM264.654 346.436L244.72 348.059C245.248 354.531 248.884 360.345 254.473 363.65L264.654 346.436ZM267.276 346.49L268.675 366.441C279.161 365.705 287.288 356.979 287.276 346.468L267.276 346.49ZM267.239 311.929L287.239 311.907C287.239 311.674 287.235 311.44 287.226 311.207L267.239 311.929ZM265.451 251.356L266.264 231.373C265.334 231.335 264.403 231.362 263.477 231.454L265.451 251.356ZM264.783 292.412L262.494 312.281C263.54 312.401 264.593 312.439 265.644 312.394L264.783 292.412ZM480.211 363.389L498.8 356.008C494.979 346.386 484.448 341.27 474.524 344.214L480.211 363.389ZM422.308 450.457L424.196 470.367C424.438 470.344 424.679 470.317 424.92 470.285L422.308 450.457ZM365.819 416.815L365.821 396.815C365.606 396.815 365.39 396.819 365.174 396.826L365.819 416.815ZM414.191 416.82L414.773 396.829C414.58 396.823 414.387 396.82 414.193 396.82L414.191 416.82ZM442.914 418.475L439.099 438.108L439.099 438.108L442.914 418.475ZM445.775 428.947L432.481 414.006L432.476 414.01L445.775 428.947ZM434.727 429.683L435.698 409.707C435.639 409.704 435.579 409.701 435.519 409.699L434.727 429.683ZM424.153 429.264L422.604 449.204C422.856 449.224 423.109 449.239 423.361 449.249L424.153 429.264ZM407.309 427.809L407.966 407.82C407.762 407.814 407.558 407.81 407.354 407.809L407.309 427.809ZM363.151 427.71L363.196 407.71C363.187 407.71 363.179 407.71 363.17 407.71L363.151 427.71ZM355.726 427.155L364.568 409.216L364.561 409.213L355.726 427.155ZM354.846 417.741L350.198 398.289C350.054 398.324 349.91 398.36 349.766 398.397L354.846 417.741ZM355.164 417.665L359.813 437.118C359.891 437.099 359.97 437.08 360.049 437.06L355.164 417.665ZM355.479 385.803L354.929 365.81C352.261 365.884 349.634 366.491 347.203 367.595L355.479 385.803ZM369.675 386.646L368.977 406.633C369.2 406.641 369.423 406.645 369.646 406.646L369.675 386.646ZM442.078 386.752L442.049 406.752L442.063 406.752L442.078 386.752ZM453.04 394L472.498 398.628L472.5 398.619L453.04 394ZM449.409 398.653L455.277 417.772C456.823 417.298 458.306 416.638 459.693 415.806L449.409 398.653ZM440.632 399.293L440.516 419.292C440.564 419.293 440.612 419.293 440.659 419.293L440.632 399.293ZM398.566 399.049L397.696 419.03C397.947 419.041 398.199 419.047 398.45 419.048L398.566 399.049ZM392.527 398.322L393.145 378.331C393.106 378.33 393.067 378.329 393.028 378.328L392.527 398.322ZM370.164 397.762L369.017 417.729C369.232 417.741 369.448 417.75 369.664 417.755L370.164 397.762ZM359.067 396.659L363.161 377.082L363.159 377.081L359.067 396.659ZM176.866 391.335L179.754 411.125C179.787 411.12 179.819 411.116 179.851 411.111L176.866 391.335ZM177.164 391.29L174.961 371.412C174.7 371.441 174.439 371.475 174.179 371.514L177.164 391.29ZM182.072 441.217L182.553 461.211C183.158 461.197 183.763 461.154 184.365 461.085L182.072 441.217ZM176.531 404.562L175.258 384.602C174.459 384.653 173.663 384.752 172.875 384.899L176.531 404.562ZM181.353 426.164L182.84 446.108C183.123 446.087 183.407 446.06 183.689 446.027L181.353 426.164ZM103.064 383.605L104.588 403.546C104.601 403.546 104.613 403.545 104.626 403.544L103.064 383.605ZM136.857 411.32L117.126 414.586L117.126 414.586L136.857 411.32ZM109.389 449.171L110.741 469.125C111.316 469.086 111.889 469.022 112.458 468.934L109.389 449.171ZM91.2288 445.69L101.61 428.595L101.609 428.595L91.2288 445.69ZM97.8694 384.3L93.6789 364.743C93.642 364.751 93.6051 364.759 93.5682 364.768L97.8694 384.3ZM98.2894 384.21L102.48 403.766C102.514 403.758 102.549 403.751 102.584 403.743L98.2894 384.21ZM101.347 395.316L99.6763 375.386C99.0361 375.44 98.3989 375.524 97.7668 375.639L101.347 395.316ZM107.665 396.442L114.711 377.724L114.711 377.724L107.665 396.442ZM110.51 434.594L115.792 453.884C116.692 453.637 117.574 453.328 118.431 452.959L110.51 434.594ZM108.432 435.163L112.347 454.776C112.807 454.684 113.263 454.577 113.714 454.453L108.432 435.163ZM106.497 404.804L105.496 384.829C104.002 384.904 102.521 385.146 101.081 385.551L106.497 404.804ZM112.61 405.829L121.398 387.863L121.397 387.862L112.61 405.829ZM107.773 423.659L112.091 443.187C112.483 443.1 112.873 443.002 113.259 442.892L107.773 423.659ZM251.879 124.38L273.06 124.55L273.381 84.5515L252.2 84.3815L251.879 124.38ZM272.314 124.53C277.047 124.745 288.243 125.849 299.063 127.537C304.439 128.375 309.286 129.292 312.946 130.204C314.788 130.663 316.005 131.042 316.688 131.294C317.786 131.7 316.569 131.424 314.769 129.982L339.784 98.7682C336.42 96.0727 332.695 94.566 330.556 93.7754C328.003 92.8314 325.254 92.0479 322.619 91.3912C317.325 90.0716 311.17 88.9415 305.228 88.0147C293.412 86.1716 280.707 84.8698 274.126 84.5714L272.314 124.53ZM308.115 120.104C307.027 116.467 307.364 113.456 307.689 111.84C308.036 110.114 308.601 108.795 309.092 107.876C309.592 106.938 310.264 105.945 311.189 104.954C312.005 104.08 313.72 102.451 316.509 101.198L332.9 137.686C339.266 134.826 342.776 129.718 344.388 126.696C345.89 123.879 348.915 116.928 346.438 108.646L308.115 120.104ZM316.506 101.2C318.125 100.472 319.553 100.126 320.574 99.9519C321.598 99.7774 322.416 99.7422 322.931 99.7394C323.886 99.7343 324.434 99.8421 324.266 99.8147C324.121 99.7909 323.898 99.7469 323.148 99.5883C322.843 99.5238 322.379 99.4257 321.905 99.3332C321.434 99.2413 320.762 99.1171 320.003 99.0115L314.492 138.63C314.17 138.585 314.041 138.547 314.875 138.723C315.422 138.839 316.586 139.09 317.815 139.291C319.023 139.488 320.936 139.751 323.145 139.739C325.2 139.728 328.888 139.489 332.903 137.684L316.506 101.2ZM319.625 98.9627L311.725 98.0167L306.969 137.733L314.869 138.679L319.625 98.9627ZM311.333 97.9737C268.958 93.7451 220.236 93.0367 176.584 114.298L194.1 150.259C227.241 134.117 266.461 133.695 307.362 137.776L311.333 97.9737ZM176.356 114.411C162.261 121.5 148.383 130.485 136.165 141.221L162.568 171.269C171.89 163.077 182.842 155.923 194.329 150.146L176.356 114.411ZM136.166 141.22C135.67 141.656 135.214 142.077 134.872 142.394C134.429 142.805 134.301 142.927 133.972 143.232C133.721 143.464 133.543 143.624 133.404 143.745C133.267 143.866 133.208 143.912 133.21 143.91C133.212 143.908 133.319 143.825 133.519 143.694C133.718 143.564 134.066 143.351 134.553 143.113C135.493 142.655 137.312 141.928 139.819 141.779L142.192 181.709C150.023 181.243 155.572 177.199 157.831 175.435C159.205 174.362 160.37 173.302 161.121 172.608C162.117 171.687 162.246 171.552 162.566 171.27L136.166 141.22ZM139.817 141.779C142.364 141.628 145.682 142.224 148.812 144.354C151.852 146.422 153.713 149.256 154.629 151.928C156.348 156.94 155.115 162.192 151.769 165.775L122.534 138.475C115.815 145.67 113.705 155.898 116.791 164.901C120.314 175.176 130.192 182.423 142.194 181.708L139.817 141.779ZM151.771 165.772C152.434 165.063 152.719 164.944 155.66 162.397L129.475 132.159C128.804 132.74 125.125 135.699 122.531 138.477L151.771 165.772ZM155.661 162.396C183.018 138.703 216.626 125.353 252.584 124.373L251.495 84.3883C206.043 85.6266 163.626 102.581 129.474 132.16L155.661 162.396ZM303.412 14.7914C287.35 11.0862 270.754 10.2272 255.887 10.2399L255.921 50.2399C269.493 50.2283 282.636 51.0493 294.421 53.7678L303.412 14.7914ZM255.558 10.2429L241.847 10.4802L242.54 50.4742L256.251 50.2369L255.558 10.2429ZM240.887 10.5199C189.699 13.8713 139.722 29.344 95.9142 56.6673L117.083 90.6069C155.045 66.9296 198.598 53.3743 243.5 50.4345L240.887 10.5199ZM95.9144 56.6672C93.0955 58.4253 89.7411 59.9957 84.6285 62.5409C80.4019 64.6451 74.1444 67.8066 69.0718 72.0218L94.6364 102.786C95.6276 101.963 97.8143 100.659 102.455 98.349C106.21 96.4797 112.146 93.6861 117.083 90.607L95.9144 56.6672ZM69.0721 72.0215C68.282 72.6781 67.65 73.2884 67.2256 73.7143C66.7934 74.1482 66.4262 74.5433 66.19 74.8002C66.0377 74.966 65.6579 75.3839 65.6471 75.3956C65.5249 75.5294 65.5026 75.5515 65.5259 75.5274C65.5506 75.5019 65.6879 75.3606 65.9126 75.1566C66.1336 74.956 66.5244 74.6167 67.0693 74.2219C68.0077 73.542 70.3515 71.9963 73.8974 71.3163L81.4315 110.6C85.7517 109.772 88.857 107.832 90.5394 106.613C92.2844 105.348 93.5791 104.058 94.2579 103.357C94.6335 102.969 94.9579 102.617 95.1763 102.378C95.5062 102.017 95.4609 102.063 95.6363 101.873C95.9442 101.538 95.4676 102.096 94.6362 102.786L69.0721 72.0215ZM93.3734 78.5798L93.2095 78.3717L61.7916 103.129L61.9555 103.337L93.3734 78.5798ZM96.0703 98.1774C96.5795 96.9045 97.4281 94.4916 97.6192 91.3832C97.827 88.0042 97.2704 83.08 93.9889 78.3655C90.7966 73.7791 86.6136 71.6873 84.0221 70.7621C81.5776 69.8894 79.5014 69.6746 78.7278 69.6026C78.2397 69.5572 77.8323 69.5348 77.5902 69.5231C77.3643 69.5122 77.1352 69.5041 77.0995 69.5028C76.8891 69.4949 77.2252 69.5028 77.6729 69.5454C78.4005 69.6147 81.4851 69.9201 84.9112 71.9669L64.3965 106.306C68.498 108.756 72.3734 109.222 73.8829 109.365C74.7215 109.445 75.4464 109.469 75.607 109.475C76.0026 109.49 75.541 109.479 75.023 109.431C74.5694 109.388 72.78 109.221 70.5735 108.433C68.2199 107.593 64.2262 105.624 61.1588 101.217C58.0022 96.6817 57.5061 91.994 57.6946 88.9282C57.8665 86.133 58.6161 84.1099 58.9307 83.3231L96.0703 98.1774ZM94.0567 84.2855L93.8977 83.6495L55.092 93.3511L55.251 93.9871L94.0567 84.2855ZM91.3689 99.2365C92.5634 97.3592 95.4451 94.1744 100.721 89.984C105.765 85.9776 112.033 81.8047 118.905 77.7343C132.686 69.5701 147.587 62.5857 157.02 58.8546L142.308 21.6584C131.006 26.1288 114.198 34.0303 98.5175 43.3197C90.6573 47.976 82.7555 53.1717 75.8436 58.6613C69.1636 63.9669 62.3028 70.4054 57.6208 77.764L91.3689 99.2365ZM157.021 58.8545C202.387 40.9104 256.786 35.854 304.433 44.9016L311.896 5.60379C256.839 -4.8508 194.748 0.916521 142.308 21.6585L157.021 58.8545ZM304.433 44.9016C341.324 51.9066 378.32 66.3122 409.637 86.4948L431.306 52.8722C395.441 29.7587 353.577 13.5185 311.896 5.60378L304.433 44.9016ZM409.638 86.4951C418.211 92.0195 425.29 96.7792 430.288 101.982L459.132 74.2686C450.375 65.1542 439.29 58.0176 431.305 52.8718L409.638 86.4951ZM430.288 101.982C434.587 106.456 435.399 110.063 435.371 111.628C435.358 112.337 435.198 112.975 434.771 113.701C434.319 114.47 433.277 115.814 430.902 117.383L452.947 150.76C466.829 141.591 475.079 127.962 475.364 112.358C475.634 97.5751 468.71 84.2381 459.133 74.2691L430.288 101.982ZM430.9 117.384C428.661 118.863 425.666 119.533 422.031 118.759L413.698 157.881C426.767 160.665 440.902 158.717 452.949 150.758L430.9 117.384ZM422.032 118.759C421.582 118.664 420.276 118.229 417.263 115.896C415.766 114.737 414.282 113.465 412.276 111.757C410.431 110.185 408.095 108.203 405.584 106.341L381.755 138.468C383.046 139.426 384.436 140.587 386.34 142.209C388.084 143.694 390.374 145.665 392.775 147.524C397.559 151.228 404.548 155.932 413.697 157.881L422.032 118.759ZM405.586 106.342C398.701 101.234 391.029 95.7928 382.714 91.0666L362.949 125.842C369.127 129.354 375.254 133.645 381.753 138.466L405.586 106.342ZM381.878 90.6174L359.711 79.3744L341.618 115.048L363.785 126.291L381.878 90.6174ZM359.028 79.0439C330.507 65.9145 301.18 57.3724 268.612 55.5027L266.319 95.4369C292.995 96.9683 317.428 103.928 342.301 115.379L359.028 79.0439ZM267.502 55.4698L243.292 55.425L243.218 95.4249L267.428 95.4697L267.502 55.4698ZM242.299 55.4478C200.273 57.4593 155.916 70.2868 119.867 93.4072L141.462 127.077C171.005 108.13 208.423 97.115 244.212 95.4021L242.299 55.4478ZM119.759 93.4772L109.041 100.449L130.852 133.979L141.57 127.007L119.759 93.4772ZM109.055 100.44C107.112 101.701 106.179 102.333 105.114 102.949C104.193 103.481 103.894 103.561 103.992 103.531L115.897 141.718C122.784 139.571 128.653 135.407 130.838 133.989L109.055 100.44ZM103.991 103.531C103.228 103.769 102.705 103.845 102.401 103.868C102.104 103.891 101.964 103.867 101.941 103.863C101.919 103.859 101.92 103.858 101.913 103.855C101.901 103.849 101.818 103.81 101.667 103.69C100.925 103.101 99.1604 100.968 98.2188 96.5659L59.1036 104.933C61.4155 115.741 66.9022 127.162 76.7927 135.015C87.485 143.506 101.424 146.231 115.898 141.717L103.991 103.531ZM98.2188 96.5659C98.1717 96.3457 98.1266 96.0959 98.0087 95.411C97.9135 94.8579 97.7302 93.7735 97.4718 92.6189C96.885 89.9967 95.8388 86.6023 93.6013 82.9632L59.5266 103.913C59.1969 103.377 58.9271 102.814 58.7236 102.274C58.5297 101.759 58.4478 101.401 58.4374 101.355C58.4337 101.338 58.4438 101.382 58.4709 101.528C58.5003 101.687 58.5326 101.872 58.5886 102.197C58.6382 102.485 58.7104 102.907 58.7912 103.349C58.8748 103.807 58.9776 104.343 59.1037 104.933L98.2188 96.5659ZM87.2425 110.349C87.3838 110.26 85.9081 111.246 83.2337 111.683C81.8335 111.911 80.4443 111.934 79.1452 111.798C77.9302 111.67 77.0592 111.428 76.8553 111.371C76.7806 111.349 76.7371 111.335 76.9559 111.402C77.1063 111.448 77.4908 111.567 77.9226 111.688C78.8504 111.949 80.3075 112.317 82.1137 112.533C83.9617 112.754 85.9271 112.789 88.0001 112.568C90.0398 112.351 91.9693 111.91 93.7827 111.327L81.5284 73.25C82.6728 72.8816 84.5778 72.5428 86.865 72.8164C87.8372 72.9327 88.5414 73.1229 88.753 73.1824C88.8268 73.2031 88.8623 73.2149 88.6674 73.1552C88.5409 73.1165 88.1556 72.9975 87.7374 72.8793C85.6202 72.2807 81.7192 71.4 76.7863 72.2057C72.3196 72.9352 68.6651 74.7724 65.8854 76.5277L87.2425 110.349ZM79.4961 110.548L79.8094 110.688L96.1283 74.1684L95.815 74.0284L79.4961 110.548ZM91.0156 112.195C94.4747 111.662 97.3657 110.508 98.7797 109.922C99.5834 109.589 100.347 109.248 100.815 109.041C101.381 108.789 101.601 108.694 101.744 108.636L86.6445 71.595C85.8382 71.9237 85.0554 72.2724 84.5902 72.4789C84.0263 72.7291 83.7276 72.8608 83.4629 72.9705C83.2128 73.0742 83.213 73.0652 83.376 73.0125C83.5236 72.9649 84.0748 72.7923 84.9221 72.6617L91.0156 112.195ZM264.538 161.37C276.785 160.736 295.481 162.184 312.837 166.502C331.385 171.116 342.887 177.656 346.914 183.249L379.375 159.875C366.443 141.916 342.393 132.635 322.493 127.685C301.404 122.439 278.759 120.581 262.471 121.424L264.538 161.37ZM346.877 183.197L347.701 184.349L380.236 161.079L379.412 159.927L346.877 183.197ZM347.583 184.183C348.339 185.262 348.815 186.287 349.035 187.022C349.253 187.75 349.078 187.689 349.202 187.035L388.507 194.457C391.077 180.846 385.581 168.713 380.353 161.245L347.583 184.183ZM349.303 186.532L348.901 188.397L388.003 196.825L388.405 194.96L349.303 186.532ZM349.172 187.294C348.657 189.161 346.646 192.351 343.062 194.76C339.518 197.142 337.041 197.085 336.241 196.881L326.338 235.635C341.125 239.414 355.232 234.775 365.374 227.959C375.477 221.169 384.254 210.545 387.733 197.928L349.172 187.294ZM336.241 196.881C334.936 196.547 333.132 195.794 330.291 194.173C328.889 193.373 327.451 192.491 325.723 191.425C324.092 190.418 322.132 189.203 320.134 188.05L300.147 222.699C301.527 223.495 302.943 224.37 304.715 225.464C306.391 226.498 308.384 227.727 310.468 228.916C314.599 231.273 319.991 234.014 326.338 235.635L336.241 196.881ZM320.134 188.05C311.478 183.058 301.318 177.958 290.219 174.763L279.152 213.201C285.836 215.126 292.819 218.472 300.147 222.699L320.134 188.05ZM289.873 174.666C265.668 168.166 242.366 169.832 219.059 181.887L237.436 217.416C251.223 210.285 264.188 209.186 279.498 213.297L289.873 174.666ZM219.06 181.887C216.032 183.453 211.044 186.327 209.249 187.299C206.475 188.801 204.571 189.658 203.006 190.142L214.823 228.356C220.107 226.722 224.7 224.42 228.297 222.472C232.871 219.995 234.125 219.129 237.435 217.417L219.06 181.887ZM203.005 190.142C202.828 190.197 202.175 190.36 201.066 190.457C199.998 190.551 198.806 190.555 197.642 190.454C196.46 190.351 195.564 190.161 195.013 189.994C194.397 189.807 194.66 189.787 195.388 190.312L172.001 222.762C179.201 227.952 187.803 229.748 194.17 230.303C200.839 230.884 208.284 230.379 214.824 228.356L203.005 190.142ZM195.39 190.313C196.007 190.758 195.913 190.959 195.574 190.237C195.237 189.519 194.886 188.342 194.771 186.852C194.655 185.364 194.814 184.059 195.061 183.171C195.322 182.23 195.497 182.372 194.909 182.995L165.789 155.572C156.427 165.514 154.06 179.24 154.89 189.944C155.726 200.724 160.273 214.308 171.999 222.761L195.39 190.313ZM194.909 182.996C197.321 180.435 204.22 176.209 214.928 171.896C224.869 167.891 235.187 164.947 241.541 163.685L233.749 124.451C224.752 126.238 212.041 129.935 199.982 134.793C188.69 139.342 174.617 146.2 165.79 155.571L194.909 182.996ZM241.541 163.685C248.601 162.283 256.029 161.665 264.19 161.385L262.819 121.409C253.596 121.725 243.782 122.459 233.75 124.451L241.541 163.685ZM252.56 174.448C252.087 174.543 251.699 174.582 252.351 174.5C252.71 174.454 253.898 174.312 255.223 174.033C258.014 173.446 263.277 171.903 267.842 167.125L238.919 139.494C242.2 136.06 245.859 135.127 246.984 134.891C247.475 134.787 247.815 134.755 247.343 134.815C247.162 134.837 245.959 134.976 244.721 135.224L252.56 174.448ZM252.918 133.315C231.2 133.817 209.381 140.183 190.946 149.214L208.543 185.136C222.825 178.139 238.971 173.648 253.843 173.305L252.918 133.315ZM190.945 149.215C186.604 151.341 179.346 154.851 173.751 160.921C167.046 168.196 164.272 177.111 164.256 186.834L204.256 186.897C204.258 185.778 204.406 185.73 204.211 186.283C203.976 186.948 203.562 187.598 203.164 188.03C202.876 188.342 202.908 188.196 203.849 187.614C204.846 186.998 206.236 186.266 208.544 185.135L190.945 149.215ZM277.8 139.367C273.338 143.152 271.56 147.717 270.821 150.303C270.066 152.944 269.901 155.264 269.843 156.474C269.785 157.709 269.803 158.967 269.804 159.236C269.808 159.996 269.773 159.244 269.9 158.197L309.609 163.011C309.739 161.938 309.777 161.02 309.791 160.459C309.807 159.878 309.805 159.348 309.804 159.048C309.8 158.219 309.802 158.294 309.798 158.377C309.795 158.435 309.756 159.633 309.28 161.299C308.819 162.911 307.473 166.648 303.677 169.869L277.8 139.367ZM290.199 180.599C294.187 180.51 297.88 179.908 300.061 179.569C302.673 179.163 303.726 179.029 304.575 179.012L303.754 139.02C299.781 139.102 296.08 139.708 293.918 140.044C291.325 140.447 290.225 140.589 289.31 140.609L290.199 180.599ZM304.581 179.012C304.293 179.018 304.545 179.007 305.887 179.094C307.086 179.172 308.252 179.264 309.85 179.376C311.263 179.476 312.959 179.588 314.503 179.638C315.272 179.663 316.224 179.681 317.212 179.653C317.883 179.634 319.851 179.575 322.085 179.065L313.184 140.068C314.241 139.827 315.047 139.744 315.363 139.714C315.743 139.679 316.001 139.671 316.079 139.669C316.222 139.665 316.16 139.671 315.798 139.659C315.081 139.636 314.046 139.573 312.668 139.476C311.475 139.392 309.79 139.263 308.488 139.179C307.329 139.103 305.429 138.985 303.748 139.02L304.581 179.012ZM110.128 102.203C109.002 103.687 107.914 104.67 107.336 105.162C106.7 105.703 106.166 106.079 105.859 106.287C105.533 106.507 105.279 106.661 105.141 106.743C104.996 106.828 104.899 106.881 104.872 106.896C104.861 106.902 104.865 106.899 105.176 106.74C105.289 106.682 105.498 106.574 105.721 106.456C105.926 106.347 106.31 106.142 106.755 105.88L86.4709 71.4046C86.9214 71.1395 87.2732 70.9673 86.9118 71.1528C86.774 71.2235 86.2799 71.4747 85.7839 71.744C85.3125 72 84.4257 72.4929 83.441 73.1593C82.9348 73.5018 82.2206 74.0121 81.4299 74.6842C80.6974 75.3068 79.4805 76.4192 78.2605 78.0274L110.128 102.203ZM106.18 106.206L131.103 92.6293L111.969 57.5027L87.0458 71.079L106.18 106.206ZM131.517 92.3978C141.86 86.4416 150.046 81.3506 159.105 77.0899L142.08 40.894C131.036 46.0884 120.433 52.6226 111.556 57.7342L131.517 92.3978ZM159.105 77.0897C186.182 64.3532 217.617 57.2358 248.39 55.1531L245.689 15.2444C210.94 17.5962 174.476 25.6552 142.079 40.8941L159.105 77.0897ZM247.499 55.1934L288.575 54.2486L287.655 14.2592L246.579 15.204L247.499 55.1934ZM288.089 54.2539C289.173 54.2553 289.44 54.3372 292.435 54.4878C294.526 54.5929 298.233 54.7297 302.245 54.0059L295.144 14.6413C295.866 14.511 295.974 14.6152 294.444 14.5382C293.628 14.4972 293.145 14.4583 291.919 14.3854C290.923 14.3262 289.581 14.2558 288.142 14.2539L288.089 54.2539ZM302.583 53.9419L302.805 53.8979L295.028 14.6613L294.806 14.7053L302.583 53.9419ZM408.613 440.941C404.986 443.993 403.296 447.491 402.742 448.672C402.407 449.387 402.154 450.02 402.083 450.193C401.944 450.538 402.047 450.274 402.174 449.993L438.635 466.444C438.909 465.835 439.154 465.218 439.16 465.203C439.236 465.017 439.132 465.283 438.963 465.644C438.786 466.021 438.39 466.827 437.737 467.801C437.075 468.787 435.997 470.175 434.368 471.546L408.613 440.941ZM402.172 449.998C401.752 450.93 401.486 451.503 401.295 451.89C401.093 452.301 401.129 452.188 401.353 451.831C401.579 451.471 402.247 450.457 403.438 449.295C404.749 448.016 406.459 446.787 408.543 445.891C410.528 445.037 412.223 444.756 413.189 444.654C414.053 444.563 414.582 444.594 414.316 444.587C414.015 444.579 413.731 444.562 412.74 444.515C411.891 444.475 410.792 444.428 409.5 444.408L408.877 484.403C409.558 484.414 410.18 484.439 410.847 484.47C411.372 484.495 412.397 484.55 413.244 484.573C414.536 484.607 419.285 484.814 424.351 482.635C430.255 480.095 433.532 475.804 435.224 473.109C436.683 470.786 437.875 468.128 438.637 466.439L402.172 449.998ZM409.879 444.418L334.73 441.822L333.349 481.798L408.498 484.394L409.879 444.418ZM334.781 441.823C334.896 441.828 334.836 441.838 333.532 441.651C332.588 441.515 330.417 441.186 328.045 441.104L326.654 481.08C326.524 481.075 326.58 481.063 327.861 481.247C328.783 481.379 330.947 481.709 333.298 481.796L334.781 441.823ZM327.336 441.092L254.561 441.142L254.588 481.142L327.363 481.092L327.336 441.092ZM253.791 441.157C251.77 441.236 249.97 441.487 249.073 441.609C248.519 441.685 248.253 441.722 247.975 441.756C247.736 441.785 247.67 441.788 247.701 441.786L250.268 481.703C252.077 481.587 253.797 481.335 254.48 481.242C255.437 481.111 255.491 481.121 255.358 481.126L253.791 441.157ZM247.71 441.785L137.79 448.801L140.338 488.72L250.258 481.704L247.71 441.785ZM138.693 448.764L128.418 448.955L129.161 488.948L139.436 488.757L138.693 448.764ZM127.821 448.975C125.839 449.071 123.989 449.337 123.243 449.437C122.192 449.578 122.174 449.562 122.343 449.557L123.683 489.534C125.791 489.464 127.692 489.198 128.559 489.082C129.732 488.925 129.8 488.926 129.757 488.928L127.821 448.975ZM122.95 449.546L93.942 449.638L94.0689 489.638L123.077 489.546L122.95 449.546ZM93.9671 449.638C84.0769 449.657 76.2565 449.914 68.9896 448.685C62.1998 447.536 58.9276 445.508 57.0209 443.117L25.7489 468.058C36.1334 481.079 50.3041 486.092 62.3182 488.124C73.855 490.076 86.1993 489.653 94.0438 489.638L93.9671 449.638ZM57.0211 443.117C47.1971 430.799 44.357 413.283 41.7889 390.774L2.04674 395.309C4.39723 415.91 7.63513 445.346 25.7488 468.058L57.0211 443.117ZM41.7889 390.774C40.3767 378.398 40.3789 370.474 42.0969 365.727C42.717 364.013 43.3468 363.379 43.9326 362.958C44.6594 362.436 46.8388 361.196 52.1158 360.762L48.8407 320.897C38.2752 321.765 28.6214 324.706 20.5953 330.471C12.4281 336.338 7.38519 344.099 4.48396 352.116C-0.840906 366.83 0.723513 383.712 2.04675 395.309L41.7889 390.774ZM52.1153 360.762C59.2052 360.18 66.0958 360.948 76.3724 361.484L78.4564 321.539C71.0223 321.151 59.4798 320.023 48.8412 320.897L52.1153 360.762ZM76.4457 361.488L151.446 365.125L153.383 325.172L78.3831 321.535L76.4457 361.488ZM151.901 365.142L195.345 366.257L196.372 326.27L152.928 325.155L151.901 365.142ZM195.107 366.249C196.167 366.289 197.179 366.374 198.938 366.507C200.51 366.626 202.635 366.777 204.944 366.788L205.137 326.789C204.344 326.785 203.421 326.732 201.949 326.621C200.664 326.524 198.636 326.354 196.61 326.278L195.107 366.249ZM204.973 366.788L254.264 366.954L254.399 326.955L205.108 326.789L204.973 366.788ZM274.331 346.841L274.089 304.228L234.09 304.455L234.332 347.068L274.331 346.841ZM265.825 288.147C264.5 287.186 263.268 286.472 262.354 285.977C261.46 285.493 260.62 285.087 260.154 284.862C259.564 284.576 259.4 284.497 259.248 284.419C259.14 284.362 259.341 284.46 259.692 284.691L237.698 318.102C238.905 318.896 240.015 319.503 240.835 319.928C241.611 320.331 242.397 320.706 242.746 320.875C243.22 321.104 243.31 321.153 243.306 321.15C243.282 321.138 242.9 320.932 242.354 320.537L265.825 288.147ZM259.692 284.691C254.089 281.003 252.3 276.495 252.182 273.374C252.075 270.56 253.198 266.874 258.167 263.638L236.34 230.119C220.174 240.646 211.547 257.327 212.21 274.884C212.862 292.136 222.361 308.006 237.699 318.102L259.692 284.691ZM258.168 263.638C263.033 260.47 266.271 260.637 268.168 261.13C270.51 261.74 273.139 263.514 275.13 266.562C277.131 269.626 277.798 272.938 277.439 275.529C277.145 277.654 276.068 280.327 272.158 282.958L294.487 316.145C322.497 297.3 321.965 265.122 308.619 244.689C301.927 234.442 291.442 225.855 278.242 222.42C264.598 218.869 249.867 221.309 236.339 230.119L258.168 263.638ZM272.163 282.954C272.105 282.993 272.037 283.038 271.895 283.128C271.853 283.155 271.412 283.432 271.061 283.664C270.634 283.947 267.59 285.849 265.108 289.372C262.153 293.563 261.486 297.72 261.298 299.963C261.155 301.673 261.232 303.392 261.238 303.606L301.221 302.419C301.19 301.404 301.247 302.254 301.158 303.306C301.025 304.893 300.489 308.604 297.803 312.415C296.618 314.097 295.393 315.251 294.568 315.944C293.808 316.581 293.199 316.98 293.125 317.029C293.075 317.062 292.984 317.12 293.35 316.887C293.615 316.719 294.011 316.465 294.482 316.149L272.163 282.954ZM261.229 303.018L261.241 347.235L301.241 347.224L301.229 303.007L261.229 303.018ZM281.735 367.224L365.361 365.159L364.374 325.172L280.748 327.236L281.735 367.224ZM365.846 365.142L415.393 362.716L413.436 322.764L363.889 325.19L365.846 365.142ZM415.055 362.729L435.34 362.079L434.059 322.1L413.774 322.75L415.055 362.729ZM435.644 362.067C451.405 361.322 460.96 360.74 468.112 362.862C470.903 363.691 472.432 364.743 473.531 365.965C474.702 367.268 476.495 370.012 477.769 375.919L516.87 367.486C514.489 356.448 510.138 346.852 503.273 339.217C496.334 331.502 487.932 327.02 479.493 324.516C464.184 319.972 446.084 321.529 433.755 322.112L435.644 362.067ZM477.769 375.919C480.825 390.089 480.275 409.327 476.574 423.238L515.229 433.523C520.524 413.624 521.288 387.971 516.87 367.486L477.769 375.919ZM476.573 423.241C477.005 421.616 478.264 418.026 481.839 414.821C485.83 411.244 490.557 410.054 494.331 410.086C497.562 410.114 499.855 411.007 500.61 411.32C501.494 411.686 502.021 412.014 501.896 411.94L481.536 446.371C481.847 446.554 487.117 450.026 493.988 450.084C498.521 450.123 503.949 448.719 508.536 444.608C512.708 440.87 514.458 436.423 515.23 433.521L476.573 423.241ZM509.246 409.806C507.667 395.021 506.173 374.493 498.731 356.242L461.692 371.345C466.49 383.11 467.634 396.843 469.473 414.055L509.246 409.806ZM384.203 470.538C396.686 471.207 410.291 471.679 424.109 470.429L420.508 430.592C409.706 431.568 398.495 431.246 386.344 430.595L384.203 470.538ZM425.093 470.316C430.352 469.576 434.393 469.605 442.01 469.048L439.095 429.155C434.478 429.492 426.456 429.731 419.524 430.705L425.093 470.316ZM456.118 443.77C455.022 446.386 453.946 449.571 453.453 450.934C452.772 452.817 452.417 453.578 452.213 453.937L487.014 473.658C488.951 470.239 490.23 466.857 491.069 464.539C492.096 461.7 492.425 460.625 493.011 459.225L456.118 443.77ZM452.213 453.937C452.762 452.969 452.845 453.562 450.779 454.486C448.864 455.343 446.3 455.906 443.781 455.895C442.575 455.89 441.587 455.753 440.859 455.574C440.124 455.393 439.826 455.213 439.841 455.222C439.887 455.251 440.261 455.497 440.666 456.068C441.097 456.676 441.275 457.249 441.322 457.523L401.906 464.333C406.168 489 429.226 495.833 443.607 495.895C451.552 495.93 459.772 494.283 467.113 490.999C474.303 487.782 482.114 482.304 487.013 473.659L452.213 453.937ZM441.324 457.532C441.423 458.106 441.45 458.507 441.458 458.645C441.466 458.788 441.462 458.813 441.463 458.638C441.463 458.441 441.467 458.232 441.476 457.771C441.483 457.391 441.495 456.76 441.49 456.095L401.491 456.392C401.501 457.794 401.468 455.952 401.463 458.557C401.461 459.681 401.481 461.864 401.905 464.323L441.324 457.532ZM498.199 355.051C492.353 343.022 481.58 338.212 473.766 336.293C466.271 334.453 458.574 334.531 454.552 334.54L454.639 374.54C456.835 374.535 458.673 374.543 460.434 374.65C462.192 374.756 463.416 374.94 464.227 375.139C465.049 375.341 464.939 375.437 464.382 375.062C463.667 374.581 462.791 373.703 462.224 372.537L498.199 355.051ZM453.826 334.554L355.802 338.327L357.341 378.298L455.365 374.525L453.826 334.554ZM356.179 338.316L304.397 339.333L305.182 379.326L356.964 378.309L356.179 338.316ZM303.884 339.35C301.525 339.457 299.311 339.806 298.395 339.941C297.108 340.13 297.018 340.12 297.144 340.116L298.435 380.095C300.915 380.015 303.166 379.669 304.211 379.516C305.628 379.308 305.737 379.307 305.695 379.309L303.884 339.35ZM297.787 340.106L213.534 340.117L213.539 380.117L297.792 380.106L297.787 340.106ZM213.877 340.12C213.102 340.106 212.195 340.029 210.427 339.85C208.908 339.696 206.454 339.433 203.872 339.36L202.742 379.344C203.593 379.368 204.523 379.457 206.396 379.647C208.018 379.811 210.509 380.068 213.196 380.114L213.877 340.12ZM203.834 339.359L143.958 337.781L142.905 377.767L202.781 379.345L203.834 339.359ZM144.774 337.819L103.97 335.074L101.285 374.983L142.089 377.728L144.774 337.819ZM104.345 335.102C89.9887 333.866 72.7984 331.728 56.1388 331.742L56.1724 371.742C70.5175 371.73 84.3916 373.532 100.911 374.955L104.345 335.102ZM56.1372 331.742C48.7648 331.748 38.8046 332.47 29.9933 338.093C20.117 344.396 15.5204 354.199 13.5391 364.027L52.7502 371.932C53.0999 370.197 53.4101 369.804 53.2366 370.098C53.137 370.266 52.9324 370.568 52.5964 370.919C52.2567 371.273 51.8801 371.577 51.511 371.813C50.7766 372.281 50.481 372.224 51.2596 372.072C52.1026 371.908 53.6132 371.744 56.174 371.742L56.1372 331.742ZM13.5391 364.027C11.9221 372.048 12.1655 381.606 13.088 390.434C14.0502 399.644 15.9304 409.657 18.4829 419.231C21.018 428.74 24.3698 438.395 28.4932 446.676C32.1985 454.118 38.1136 463.779 47.3306 469.232L67.6954 434.804C68.933 435.536 67.3002 434.873 64.3002 428.848C61.7183 423.662 59.2072 416.707 57.133 408.927C55.0762 401.212 53.6005 393.256 52.8714 386.277C52.1024 378.918 52.3188 374.072 52.7502 371.932L13.5391 364.027ZM47.328 469.23C52.5158 472.3 57.9894 473.701 60.2461 474.34L71.1499 435.855C69.5636 435.406 68.795 435.186 68.1134 434.947C67.5296 434.742 67.4883 434.681 67.6981 434.805L47.328 469.23ZM244.708 301.912C244.228 305.778 244.452 310.798 244.454 311.144L284.453 310.999C284.451 310.245 284.435 309.518 284.423 308.977C284.411 308.379 284.402 307.972 284.399 307.586C284.394 306.797 284.424 306.668 284.403 306.837L244.708 301.912ZM244.453 311.119L244.516 337.349L284.515 337.254L284.453 311.024L244.453 311.119ZM244.515 337.328C244.518 339.344 244.388 343.977 244.72 348.059L284.588 344.812C284.429 342.855 284.521 341.322 284.515 337.275L244.515 337.328ZM254.473 363.65C259.97 366.901 265.239 366.688 266.831 366.604C267.727 366.557 268.547 366.46 268.679 366.445C268.988 366.411 268.858 366.428 268.675 366.441L265.878 326.539C265.124 326.591 264.46 326.668 264.269 326.689C263.901 326.73 264.255 326.685 264.715 326.66C265.439 326.622 269.968 326.342 274.835 329.221L254.473 363.65ZM287.276 346.468L287.239 311.907L247.239 311.95L247.276 346.511L287.276 346.468ZM287.226 311.207C287.228 311.238 287.237 311.866 287.261 310.013C287.274 308.977 287.288 306.797 286.926 304.355C286.602 302.175 285.685 297.528 282.256 293.067C278.054 287.602 271.747 284.552 265.066 284.381L264.045 324.368C261.923 324.314 259.342 323.836 256.7 322.514C254.038 321.183 251.998 319.338 250.544 317.446C247.924 314.038 247.448 310.828 247.359 310.228C247.231 309.366 247.272 308.909 247.264 309.499C247.26 309.843 247.255 309.904 247.243 310.531C247.235 310.941 247.22 311.756 247.252 312.651L287.226 311.207ZM264.638 271.34C264.852 271.349 264.941 271.373 264.932 271.37C264.922 271.368 264.855 271.349 264.755 271.3C264.531 271.189 264.381 271.049 264.324 270.982C264.285 270.936 264.363 271.014 264.456 271.271C264.551 271.532 264.618 271.866 264.625 272.218C264.632 272.569 264.577 272.803 264.547 272.894C264.521 272.972 264.546 272.855 264.719 272.652C264.805 272.552 264.905 272.456 265.014 272.373C265.123 272.29 265.206 272.246 265.235 272.233C265.323 272.192 264.973 272.386 263.923 272.431L265.644 312.394C277.582 311.88 287.968 307.025 295.139 298.625C302.025 290.561 304.801 280.59 304.617 271.413C304.257 253.524 291.575 232.403 266.264 231.373L264.638 271.34ZM267.072 272.544C265.784 272.395 265.072 272.109 264.762 271.955C264.459 271.804 264.4 271.711 264.442 271.758C264.543 271.872 264.56 272 264.559 272.022C264.559 272.031 264.558 272.048 264.547 272.074C264.533 272.111 264.513 272.135 264.515 272.133C264.519 272.128 264.545 272.101 264.607 272.056C264.669 272.011 264.784 271.936 264.972 271.846C265.334 271.675 266.098 271.391 267.426 271.259L263.477 231.454C239.886 233.795 224.856 251.453 224.564 271.436C224.27 291.47 238.874 309.56 262.494 312.281L267.072 272.544ZM474.995 383.536C475.143 383.542 475.196 383.547 475.782 383.579C476.224 383.603 476.989 383.643 477.857 383.649C479.548 383.661 482.507 383.569 485.899 382.563L474.524 344.214C475.539 343.913 476.398 343.777 477.001 343.713C477.593 343.65 478.01 343.649 478.144 343.65C478.261 343.651 478.27 343.655 477.961 343.638C477.889 343.634 477.815 343.63 477.718 343.624C477.627 343.619 477.513 343.613 477.396 343.607C477.162 343.594 476.854 343.578 476.512 343.565L474.995 383.536ZM461.623 370.769C466.496 383.043 467.642 396.917 469.473 414.055L509.246 409.806C507.659 394.947 506.166 374.561 498.8 356.008L461.623 370.769ZM471.903 426.431C471.542 429.057 471.2 430.738 470.874 431.87C470.562 432.956 470.396 433.059 470.621 432.724C470.93 432.265 471.405 431.814 471.825 431.556C472.132 431.367 471.857 431.627 470.415 431.933L478.714 471.062C488.806 468.922 497.753 464.056 503.812 455.048C509.078 447.219 510.65 438.279 511.53 431.88L471.903 426.431ZM439.095 429.155C434.51 429.49 426.484 429.734 419.696 430.628L424.92 470.285C430.325 469.573 434.361 469.607 442.01 469.048L439.095 429.155ZM420.421 430.546C409.67 431.565 398.501 431.247 386.344 430.595L384.203 470.538C396.68 471.206 410.327 471.682 424.196 470.367L420.421 430.546ZM365.817 436.815L414.189 436.82L414.193 396.82L365.821 396.815L365.817 436.815ZM413.609 436.812C423.641 437.104 433.881 437.094 439.099 438.108L446.73 398.843C437.273 397.005 421.506 397.025 414.773 396.829L413.609 436.812ZM439.099 438.108C435.853 437.477 430.78 434.72 428.876 428.351C426.848 421.565 430.015 416.2 432.481 414.006L459.07 443.889C465.982 437.739 470.42 427.663 467.2 416.893C464.105 406.539 455.379 400.524 446.73 398.843L439.099 438.108ZM432.476 414.01C434.095 412.569 435.693 411.699 436.908 411.18C438.109 410.667 439.097 410.428 439.695 410.313C440.788 410.101 441.369 410.155 441.017 410.146C440.74 410.139 440.28 410.107 439.343 410.015C438.998 409.98 438.325 409.912 437.826 409.865C437.282 409.814 436.518 409.747 435.698 409.707L433.757 449.66C433.677 449.656 433.742 449.657 434.09 449.69C434.483 449.727 434.767 449.757 435.415 449.821C436.467 449.925 438.152 450.085 439.979 450.133C441.73 450.178 444.373 450.149 447.291 449.585C450.067 449.048 454.776 447.712 459.074 443.885L432.476 414.01ZM435.519 409.699L424.945 409.28L423.361 449.249L433.935 449.668L435.519 409.699ZM425.703 409.325C422.317 409.061 413.825 408.013 407.966 407.82L406.653 447.799C412.004 447.974 414.796 448.597 422.604 449.204L425.703 409.325ZM407.354 407.809L363.196 407.71L363.107 447.71L407.265 447.809L407.354 407.809ZM363.17 407.71C362.601 407.71 362.079 407.723 361.682 407.735C361.305 407.746 360.881 407.762 360.631 407.771C359.999 407.794 359.756 407.797 359.626 407.795C359.485 407.794 359.85 407.787 360.509 407.891C360.863 407.946 361.394 408.047 362.049 408.236C362.702 408.424 363.574 408.726 364.568 409.216L346.885 445.095C349.772 446.518 352.463 447.117 354.303 447.406C356.198 447.704 357.889 447.776 359.089 447.792C360.298 447.808 361.408 447.769 362.067 447.746C362.462 447.731 362.668 447.723 362.895 447.716C363.102 447.71 363.158 447.71 363.133 447.71L363.17 407.71ZM364.561 409.213C367.383 410.602 369.012 412.449 369.86 413.657C370.747 414.922 371.522 416.534 371.905 418.565C372.268 420.485 372.521 424.233 370.427 428.427C368.015 433.258 363.782 436.073 359.927 437.085L349.766 398.397C343.576 400.023 337.859 404.111 334.64 410.558C331.738 416.369 331.862 422.078 332.6 425.988C333.925 433.003 338.559 440.996 346.891 445.098L364.561 409.213ZM359.495 437.194L359.813 437.118L350.516 398.213L350.198 398.289L359.495 437.194ZM360.049 437.06C359.937 437.088 360.257 436.997 361.468 436.936C362.049 436.906 362.7 436.889 363.559 436.871C364.326 436.856 365.429 436.838 366.465 436.805L365.174 396.826C363.607 396.876 356.425 396.723 350.28 398.271L360.049 437.06ZM356.029 405.795C357.212 405.762 358.606 405.84 360.838 406.035C362.761 406.204 365.902 406.526 368.977 406.633L370.374 366.658C368.672 366.598 367.115 366.432 364.334 366.188C361.86 365.971 358.545 365.711 354.929 365.81L356.029 405.795ZM369.646 406.646L442.049 406.752L442.108 366.752L369.705 366.646L369.646 406.646ZM442.063 406.752C443.487 406.753 444.109 406.761 444.593 406.799C445.173 406.844 444.34 406.859 442.884 406.296C441.299 405.683 437.622 403.826 435.18 399.315C432.698 394.732 433.267 390.705 433.581 389.38L472.5 398.619C473.68 393.649 473.941 386.893 470.354 380.268C466.805 373.715 461.224 370.502 457.313 368.989C450.77 366.459 443.369 366.753 442.094 366.752L442.063 406.752ZM433.583 389.372C433.976 387.722 434.809 385.839 436.202 384.122C437.49 382.535 438.738 381.731 439.126 381.499L459.693 415.806C464.888 412.692 470.421 407.36 472.498 398.628L433.583 389.372ZM443.542 379.533C444.419 379.263 444.895 379.296 444.387 379.313C444.124 379.322 443.757 379.324 443.092 379.316C442.565 379.31 441.524 379.291 440.606 379.293L440.659 419.293C441.286 419.292 448.688 419.795 455.277 417.772L443.542 379.533ZM440.748 379.293L398.682 379.049L398.45 419.048L440.516 419.292L440.748 379.293ZM399.437 379.068C399.801 379.083 399.984 379.136 398.737 378.933C397.909 378.799 395.652 378.409 393.145 378.331L391.91 418.312C391.409 418.297 391.15 418.225 392.329 418.417C393.089 418.54 395.289 418.925 397.696 419.03L399.437 379.068ZM393.028 378.328L370.665 377.768L369.664 417.755L392.027 418.315L393.028 378.328ZM371.312 377.794C366.832 377.537 364.996 377.466 363.161 377.082L354.974 416.235C360.475 417.385 366.049 417.558 369.017 417.729L371.312 377.794ZM363.159 377.081C364.66 377.395 365.785 377.958 366.659 378.571C367.444 379.123 368.994 380.396 370.266 382.86C371.648 385.537 373.026 390.541 370.78 396.156C368.655 401.466 364.778 403.545 363.756 404.01L347.203 367.595C342.56 369.706 336.633 373.821 333.642 381.296C330.53 389.075 332.226 396.372 334.722 401.208C339.093 409.675 347.474 414.668 354.976 416.236L363.159 377.081ZM179.851 411.111L180.149 411.066L174.179 371.514L173.881 371.559L179.851 411.111ZM179.368 411.168C179.921 411.107 180.152 411.186 180.236 411.216C180.363 411.261 180.66 411.394 181.089 411.796C182.076 412.721 183.164 414.55 183.536 416.814C183.907 419.07 183.339 420.145 183.269 420.251C183.263 420.26 183.229 420.339 182.961 420.495C182.662 420.668 181.738 421.123 179.78 421.349L184.365 461.085C198.18 459.491 209.606 452.943 216.635 442.313C223.328 432.191 224.669 420.447 223.007 410.33C219.904 391.44 203.284 368.272 174.961 371.412L179.368 411.168ZM181.592 421.223C178.897 421.287 177.636 420.463 176.929 419.803C175.989 418.926 175.217 417.499 175.007 415.852C174.799 414.22 175.231 413.255 175.494 412.886C175.546 412.814 176.26 411.635 179.754 411.125L173.978 371.544C160.825 373.464 149.927 379.83 142.91 389.684C136.104 399.242 134.011 410.586 135.328 420.912C137.96 441.549 155.116 461.87 182.553 461.211L181.592 421.223ZM177.804 424.521C173.947 424.767 171.813 422.206 171.152 419.97C170.701 418.445 170.253 414.86 172.704 411.041C175.35 406.918 178.902 406.314 179.017 406.3L183.689 446.027C192.1 445.038 200.92 441.136 206.37 432.643C211.625 424.452 211.519 415.424 209.511 408.632C205.737 395.863 192.897 383.477 175.258 384.602L177.804 424.521ZM179.867 406.219C180.285 406.188 182.276 406.276 184.418 407.977C186.378 409.534 187.399 411.616 187.708 413.506C188.005 415.323 187.753 417.628 186.325 419.874C184.697 422.434 182.202 423.85 180.187 424.225L172.875 384.899C153.913 388.424 145.904 405.723 148.232 419.96C149.398 427.093 153.105 434.188 159.54 439.299C166.156 444.554 174.409 446.736 182.84 446.108L179.867 406.219ZM104.626 403.544C106.429 403.402 109.211 404.076 112.119 406.523C115.062 408.999 116.722 412.145 117.126 414.586L156.589 408.054C154.445 395.1 147.197 383.763 137.874 375.918C128.516 368.043 115.675 362.556 101.503 363.666L104.626 403.544ZM117.126 414.586C117.482 416.736 116.879 420.239 114.289 423.806C111.698 427.372 108.523 429.065 106.32 429.407L112.458 468.934C127.07 466.665 139.018 457.824 146.652 447.313C154.287 436.803 159.011 422.687 156.589 408.054L117.126 414.586ZM108.038 429.216C105.172 429.41 103.893 429.331 103.18 429.216C102.745 429.145 102.354 429.046 101.61 428.595L80.8479 462.785C91.9784 469.544 102.297 469.697 110.741 469.125L108.038 429.216ZM101.609 428.595C97.8976 426.341 95.2035 421.226 96.1511 414.044C97.175 406.283 101.121 404.063 102.171 403.832L93.5682 364.768C70.4456 369.859 58.8558 390.917 56.4948 408.812C54.0575 427.285 60.1292 450.204 80.8481 462.785L101.609 428.595ZM102.06 403.856L102.48 403.766L94.0989 364.654L93.6789 364.743L102.06 403.856ZM102.584 403.743C102.554 403.75 102.65 403.726 102.973 403.689C103.334 403.647 103.78 403.608 104.588 403.546L101.54 363.663C99.9827 363.782 97.1257 363.988 93.9949 364.676L102.584 403.743ZM103.018 415.246C101.777 415.35 100.948 415.208 100.689 415.157C100.411 415.102 100.378 415.069 100.62 415.16L114.711 377.724C111.596 376.552 106.095 374.848 99.6763 375.386L103.018 415.246ZM100.62 415.16C102.7 415.943 103.731 416.87 104.136 417.341C104.551 417.822 104.321 417.804 104.248 417.118C104.212 416.783 104.228 416.376 104.33 415.948C104.434 415.516 104.594 415.197 104.714 415.014C104.982 414.603 104.729 415.306 102.59 416.229L118.431 452.959C135.103 445.768 145.925 430.7 144.022 412.873C142.253 396.293 130.039 383.494 114.711 377.724L100.62 415.16ZM105.228 415.304L103.15 415.873L113.714 454.453L115.792 453.884L105.228 415.304ZM104.517 415.55C104.108 415.632 103.955 415.622 104.027 415.623C104.105 415.623 104.373 415.637 104.778 415.741C105.187 415.847 105.648 416.024 106.115 416.285C106.579 416.545 106.969 416.843 107.278 417.137C107.89 417.717 108.048 418.14 108.012 418.054C107.998 418.019 107.951 417.897 107.899 417.679C107.848 417.461 107.799 417.177 107.77 416.834C107.741 416.491 107.734 416.117 107.755 415.725C107.776 415.333 107.823 414.949 107.892 414.588C107.961 414.225 108.047 413.912 108.136 413.655C108.224 413.397 108.305 413.227 108.353 413.136C108.401 413.044 108.402 413.063 108.323 413.163C108.242 413.264 108.068 413.463 107.774 413.705C107.475 413.95 107.069 414.224 106.556 414.467C106.037 414.713 105.482 414.892 104.928 414.993L97.7668 375.639C85.441 377.882 77.375 386.193 73.0335 394.36C68.7639 402.391 67.1913 411.66 67.9122 420.199C68.6238 428.628 71.8125 438.627 79.749 446.156C88.4494 454.41 100.229 457.195 112.347 454.776L104.517 415.55ZM107.498 424.779C108.157 424.745 107.664 424.813 106.755 424.681C106.262 424.61 105.72 424.493 105.162 424.32C104.609 424.149 104.157 423.958 103.824 423.795L121.397 387.862C114.966 384.717 109.353 384.635 105.496 384.829L107.498 424.779ZM103.823 423.795C103.576 423.674 101.162 422.403 99.5016 418.866C97.7186 415.069 98.0256 411.247 98.9879 408.652C99.8408 406.352 101.057 405.245 101.454 404.92C101.933 404.529 102.225 404.443 102.288 404.426L113.259 442.892C122.361 440.295 132.383 433.641 136.493 422.559C138.744 416.488 139.081 409.047 135.709 401.865C132.459 394.944 126.836 390.522 121.398 387.863L103.823 423.795ZM103.456 404.13C102.606 404.318 106.287 403.269 110.74 406.479C115.532 409.934 116.52 414.898 116.443 417.47C116.372 419.861 115.543 421.288 114.988 422.002C114.31 422.873 113.267 423.675 111.914 424.056L101.081 385.551C86.4001 389.681 76.8603 402.889 76.461 416.277C76.2435 423.571 78.8716 432.817 87.349 438.928C95.4873 444.794 104.899 444.777 112.091 443.187L103.456 404.13Z" fill="white" mask="url(#path-1-outside-1_5_6226)"/>
</svg>
