<svg width="483" height="403" viewBox="0 0 483 403" fill="none" xmlns="http://www.w3.org/2000/svg">
<mask id="path-1-outside-1_5_6225" maskUnits="userSpaceOnUse" x="-0.649445" y="0.0341797" width="483" height="402" fill="black">
<rect fill="white" x="-0.649445" y="0.0341797" width="483" height="402"/>
<path d="M158.794 232.719C167.586 236.392 180.685 251.232 191.734 257.286C194.311 253.912 196.488 250.266 199.218 247.006C216.344 226.553 240.969 221.457 264.844 232.79C270.874 235.653 276.384 239.355 281.877 243.112L287.828 247.79L301.912 260.273C317.074 252.744 326.54 235.637 343.272 230.954C342.161 231.9 340.928 232.805 340.079 234L340.339 234.393C340.989 235.428 341.294 236.826 341.66 237.992C342.173 239.48 342.959 242.126 342.03 243.625L341.382 244.452C339.616 246.622 336.68 248.408 334.562 250.289C327.46 256.595 311.2 272.56 301.686 273.251C295.379 273.709 290.952 268.838 286.744 264.827L278.871 257.467C266.635 246.698 252.642 238.597 235.816 239.774C223.438 240.639 211.678 248.472 205.069 258.83L201.674 264.652C200.282 267.255 198.657 271.4 195.214 271.507C188.58 271.714 181.597 265.647 176.721 261.636L161.554 248.039C159.356 245.962 154.912 242.139 154.927 238.905C154.937 236.519 156.466 233.585 158.794 232.719Z"/>
<path d="M234.807 274.643C251.016 272.989 273.422 281.458 283.765 293.604C301.67 314.632 298.724 352.047 277.49 369.792C268.087 377.649 257.755 381.634 245.476 382.031C205.328 382.159 167.428 333.828 194.554 298.5C203.834 286.415 219.808 276.586 234.807 274.643ZM199.597 333.803C202.29 329.251 214.014 331.571 218.704 326.446C224.219 320.421 216.293 305.518 237.867 298.415C250.924 294.115 261.543 294.802 273.504 300.872C267.285 295.172 258.953 291.166 250.785 289.184L242.232 287.51C239.522 286.895 235.035 286.936 232.31 287.368C217.562 289.709 203.035 303.946 199.44 318.749C198.256 323.625 199.442 328.906 199.597 333.803Z"/>
<path d="M199.597 333.803C202.29 329.251 214.014 331.571 218.704 326.446C224.219 320.421 216.293 305.518 237.867 298.415C250.924 294.115 261.543 294.802 273.504 300.872C283.063 308.704 285.266 331.737 281.751 342.75C277.124 357.247 262.526 368.939 247.445 370.16C226.67 371.843 203.492 354.43 199.597 333.803Z"/>
<path d="M158.794 232.719C158.711 231.807 158.232 230.88 157.9 230.025C167.903 204.977 208.581 180.745 233.853 176.108C259.057 171.484 289.508 179.533 311.708 190.83C313.89 191.94 315.988 193.402 318.3 194.229L318.498 194.297C319.002 194.218 319.352 194.038 319.82 193.833L323.267 196.451L328.11 200.511C336.456 207.313 344.504 215.28 351.267 223.671C350.041 226.595 346.377 229.552 343.52 230.857L343.272 230.954C326.54 235.637 317.074 252.744 301.912 260.273L287.828 247.79L281.877 243.112C276.384 239.355 270.874 235.653 264.844 232.79C240.969 221.457 216.344 226.553 199.218 247.006C196.488 250.266 194.311 253.912 191.734 257.286C180.685 251.232 167.586 236.392 158.794 232.719Z"/>
<path d="M306.63 97.4692C306.134 106.307 297.637 103.502 291.789 101.996C279.133 98.7352 265.919 96.1262 252.844 95.5512C212.917 93.7952 153.638 105.41 119.484 128.911C110.719 134.942 84.3094 156.665 85.1174 165.067C85.3204 167.182 85.0334 168.365 83.8394 170.106L82.1304 170.592C81.2018 170.868 80.4276 170.534 79.5394 170.252L79.107 170.118C71.1279 167.556 61.4258 158.965 55.0555 153.657L34.9058 135.518C16.656 117.372 13.8491 105.517 36.4144 87.1952C77.5911 53.7612 129.971 33.2481 182.007 24.372L215.296 20.4439L237.253 20.0342L267.655 21.0574C282.088 22.2278 296.572 24.2241 310.801 26.9101L371.008 42.0474L405.606 54.9912L430.344 66.8662C441.341 72.6362 453.962 79.1412 459.648 90.8422C470.534 113.242 441.959 140.784 428.54 155.561L385.673 199.221L364.232 219.495C362.215 221.559 357.513 227.376 354.025 226.114L353.668 225.971L351.267 223.671C344.504 215.28 336.456 207.313 328.11 200.511L323.267 196.451L319.82 193.833C296.098 176.194 269.088 165.25 239.091 165.677C203.208 166.188 164.859 187.84 141.745 214.623C137.173 219.922 135.402 224.93 127.701 218.905C121.341 213.929 115.593 207.856 109.606 202.419L103.223 196.634C100.044 193.906 90.7334 187.278 95.3184 182.37C96.7824 180.803 98.1234 180.261 100.244 180.143C101.48 175.295 107.48 169.4 110.668 165.691C127.296 146.346 140.015 139.05 162.535 129.486C172.492 125.257 182.807 121.416 193.344 118.927L216.313 114.651C224.472 113.375 232.617 112.19 240.875 111.772L252.907 111.662C290.756 111.605 325.725 121.785 357.795 141.466L373.914 152.101C377.55 154.295 393.441 162.069 397.821 160.947C382.65 145.594 365.396 132.992 346.575 122.472L327.224 112.491C322.95 110.181 321.787 109.533 323.285 104.785C323.149 103.815 323.032 102.882 323.051 101.9L323.057 101.672C317.804 99.0812 311.849 101.333 306.63 97.4692ZM42.5389 124.826C44.0179 122.676 47.1026 120.778 49.1288 119.049L55.9359 112.878C63.1392 106.175 70.5943 98.8502 78.7296 93.3102C100.9 78.2122 133.171 67.7982 158.601 60.5222L190.515 52.1602L218.98 46.864C229.055 45.2824 238.614 44.3395 248.787 44.3187L262.861 44.4214L302.175 48.3192C313.467 50.0352 324.561 52.5062 335.662 55.1602L390.789 71.4952C400.152 74.7422 418.284 79.6822 420.675 91.1252C420.508 91.6542 420.39 91.9952 420.42 92.5602L420.459 92.9252C422.877 89.9232 429.939 82.7802 433.039 81.6772C406.739 63.0832 360.51 51.0012 329.869 43.6039L313.75 40.1134C310.341 39.2194 306.301 38.5862 302.795 38.1809L290.789 36.2892C241.157 30.0007 200.342 31.6311 151.164 45.1733L127.348 52.0902C107.977 58.6972 89.8034 67.8312 72.4362 78.6032L55.6443 89.5422C49.3645 94.0782 35.8584 103.814 32.5496 111.121C34.9459 116.699 38.1815 120.655 42.5389 124.826Z"/>
<path d="M100.244 180.143C101.48 175.295 107.48 169.4 110.668 165.691C127.296 146.346 140.015 139.05 162.535 129.486C172.492 125.257 182.807 121.416 193.344 118.927L216.313 114.651C224.472 113.375 232.617 112.19 240.875 111.772L252.907 111.662C290.756 111.605 325.725 121.785 357.795 141.466L373.914 152.101C377.55 154.295 393.441 162.069 397.821 160.947L404.795 166.785L357.406 211.471C355.573 209.958 353.93 208.027 352.163 206.406L341.717 196.913C340.094 195.434 337.922 193.782 336.648 191.999C336.199 191.335 335.614 190.912 334.992 190.426C330.062 187.149 325.578 183.112 320.652 179.762C279.84 152.014 241.656 140.81 193.77 162.453C165.486 175.237 154.26 185.188 132.863 205.61C126.567 200.928 106.028 181.306 100.446 180.178L100.244 180.143Z"/>
<path d="M334.992 190.426C336.468 187.434 338.587 184.973 340.655 182.386L345.702 175.665C349.907 169.93 356.252 158.022 362.542 154.805C364.047 155.242 365.427 155.754 366.866 156.372C362.461 162.553 343.436 186.987 337.539 191.328L336.648 191.999C336.199 191.335 335.614 190.912 334.992 190.426Z"/>
<path d="M42.5389 124.826C44.0179 122.676 47.1026 120.778 49.1288 119.049L55.9359 112.878C63.1392 106.175 70.5943 98.8502 78.7296 93.3102C100.9 78.2122 133.171 67.7982 158.601 60.5222L190.515 52.1602L218.98 46.864C229.055 45.2824 238.614 44.3395 248.787 44.3187L262.861 44.4214L302.175 48.3192C313.467 50.0352 324.561 52.5062 335.662 55.1602L390.789 71.4952C400.152 74.7422 418.284 79.6822 420.675 91.1252C420.508 91.6542 420.39 91.9952 420.42 92.5602L420.459 92.9252C422.877 89.9232 429.939 82.7802 433.039 81.6772C433.295 81.8642 434.771 82.8229 434.841 83.0239C461.763 100.101 445.442 117.469 429.949 136.353L417.164 151.817C415.754 153.455 414.091 156.017 412.363 157.252L393.912 141.524L389.188 137.568L371.026 123.836C362.805 118.083 336.194 100.81 325.797 101.277L323.285 104.785C323.149 103.815 323.032 102.882 323.051 101.9L323.057 101.672C317.804 99.0812 311.849 101.333 306.63 97.4692C305.418 92.6252 302.282 91.6669 298.002 90.3849L286.27 87.2779C274.337 84.3269 262.106 82.3749 249.823 81.7009L238.789 81.5939C218.054 81.6019 198.148 85.1049 178.085 90.3749C137.174 101.12 100.022 118.985 75.5018 154.319L42.5389 124.826Z"/>
</mask>
<path d="M158.794 232.719C167.586 236.392 180.685 251.232 191.734 257.286C194.311 253.912 196.488 250.266 199.218 247.006C216.344 226.553 240.969 221.457 264.844 232.79C270.874 235.653 276.384 239.355 281.877 243.112L287.828 247.79L301.912 260.273C317.074 252.744 326.54 235.637 343.272 230.954C342.161 231.9 340.928 232.805 340.079 234L340.339 234.393C340.989 235.428 341.294 236.826 341.66 237.992C342.173 239.48 342.959 242.126 342.03 243.625L341.382 244.452C339.616 246.622 336.68 248.408 334.562 250.289C327.46 256.595 311.2 272.56 301.686 273.251C295.379 273.709 290.952 268.838 286.744 264.827L278.871 257.467C266.635 246.698 252.642 238.597 235.816 239.774C223.438 240.639 211.678 248.472 205.069 258.83L201.674 264.652C200.282 267.255 198.657 271.4 195.214 271.507C188.58 271.714 181.597 265.647 176.721 261.636L161.554 248.039C159.356 245.962 154.912 242.139 154.927 238.905C154.937 236.519 156.466 233.585 158.794 232.719Z" fill="#00112B"/>
<path d="M234.807 274.643C251.016 272.989 273.422 281.458 283.765 293.604C301.67 314.632 298.724 352.047 277.49 369.792C268.087 377.649 257.755 381.634 245.476 382.031C205.328 382.159 167.428 333.828 194.554 298.5C203.834 286.415 219.808 276.586 234.807 274.643ZM199.597 333.803C202.29 329.251 214.014 331.571 218.704 326.446C224.219 320.421 216.293 305.518 237.867 298.415C250.924 294.115 261.543 294.802 273.504 300.872C267.285 295.172 258.953 291.166 250.785 289.184L242.232 287.51C239.522 286.895 235.035 286.936 232.31 287.368C217.562 289.709 203.035 303.946 199.44 318.749C198.256 323.625 199.442 328.906 199.597 333.803Z" fill="#00112B"/>
<path d="M199.597 333.803C202.29 329.251 214.014 331.571 218.704 326.446C224.219 320.421 216.293 305.518 237.867 298.415C250.924 294.115 261.543 294.802 273.504 300.872C283.063 308.704 285.266 331.737 281.751 342.75C277.124 357.247 262.526 368.939 247.445 370.16C226.67 371.843 203.492 354.43 199.597 333.803Z" fill="#6B16FD"/>
<path d="M158.794 232.719C158.711 231.807 158.232 230.88 157.9 230.025C167.903 204.977 208.581 180.745 233.853 176.108C259.057 171.484 289.508 179.533 311.708 190.83C313.89 191.94 315.988 193.402 318.3 194.229L318.498 194.297C319.002 194.218 319.352 194.038 319.82 193.833L323.267 196.451L328.11 200.511C336.456 207.313 344.504 215.28 351.267 223.671C350.041 226.595 346.377 229.552 343.52 230.857L343.272 230.954C326.54 235.637 317.074 252.744 301.912 260.273L287.828 247.79L281.877 243.112C276.384 239.355 270.874 235.653 264.844 232.79C240.969 221.457 216.344 226.553 199.218 247.006C196.488 250.266 194.311 253.912 191.734 257.286C180.685 251.232 167.586 236.392 158.794 232.719Z" fill="#FCD004"/>
<path d="M306.63 97.4692C306.134 106.307 297.637 103.502 291.789 101.996C279.133 98.7352 265.919 96.1262 252.844 95.5512C212.917 93.7952 153.638 105.41 119.484 128.911C110.719 134.942 84.3094 156.665 85.1174 165.067C85.3204 167.182 85.0334 168.365 83.8394 170.106L82.1304 170.592C81.2018 170.868 80.4276 170.534 79.5394 170.252L79.107 170.118C71.1279 167.556 61.4258 158.965 55.0555 153.657L34.9058 135.518C16.656 117.372 13.8491 105.517 36.4144 87.1952C77.5911 53.7612 129.971 33.2481 182.007 24.372L215.296 20.4439L237.253 20.0342L267.655 21.0574C282.088 22.2278 296.572 24.2241 310.801 26.9101L371.008 42.0474L405.606 54.9912L430.344 66.8662C441.341 72.6362 453.962 79.1412 459.648 90.8422C470.534 113.242 441.959 140.784 428.54 155.561L385.673 199.221L364.232 219.495C362.215 221.559 357.513 227.376 354.025 226.114L353.668 225.971L351.267 223.671C344.504 215.28 336.456 207.313 328.11 200.511L323.267 196.451L319.82 193.833C296.098 176.194 269.088 165.25 239.091 165.677C203.208 166.188 164.859 187.84 141.745 214.623C137.173 219.922 135.402 224.93 127.701 218.905C121.341 213.929 115.593 207.856 109.606 202.419L103.223 196.634C100.044 193.906 90.7334 187.278 95.3184 182.37C96.7824 180.803 98.1234 180.261 100.244 180.143C101.48 175.295 107.48 169.4 110.668 165.691C127.296 146.346 140.015 139.05 162.535 129.486C172.492 125.257 182.807 121.416 193.344 118.927L216.313 114.651C224.472 113.375 232.617 112.19 240.875 111.772L252.907 111.662C290.756 111.605 325.725 121.785 357.795 141.466L373.914 152.101C377.55 154.295 393.441 162.069 397.821 160.947C382.65 145.594 365.396 132.992 346.575 122.472L327.224 112.491C322.95 110.181 321.787 109.533 323.285 104.785C323.149 103.815 323.032 102.882 323.051 101.9L323.057 101.672C317.804 99.0812 311.849 101.333 306.63 97.4692ZM42.5389 124.826C44.0179 122.676 47.1026 120.778 49.1288 119.049L55.9359 112.878C63.1392 106.175 70.5943 98.8502 78.7296 93.3102C100.9 78.2122 133.171 67.7982 158.601 60.5222L190.515 52.1602L218.98 46.864C229.055 45.2824 238.614 44.3395 248.787 44.3187L262.861 44.4214L302.175 48.3192C313.467 50.0352 324.561 52.5062 335.662 55.1602L390.789 71.4952C400.152 74.7422 418.284 79.6822 420.675 91.1252C420.508 91.6542 420.39 91.9952 420.42 92.5602L420.459 92.9252C422.877 89.9232 429.939 82.7802 433.039 81.6772C406.739 63.0832 360.51 51.0012 329.869 43.6039L313.75 40.1134C310.341 39.2194 306.301 38.5862 302.795 38.1809L290.789 36.2892C241.157 30.0007 200.342 31.6311 151.164 45.1733L127.348 52.0902C107.977 58.6972 89.8034 67.8312 72.4362 78.6032L55.6443 89.5422C49.3645 94.0782 35.8584 103.814 32.5496 111.121C34.9459 116.699 38.1815 120.655 42.5389 124.826Z" fill="#00112B"/>
<path d="M100.244 180.143C101.48 175.295 107.48 169.4 110.668 165.691C127.296 146.346 140.015 139.05 162.535 129.486C172.492 125.257 182.807 121.416 193.344 118.927L216.313 114.651C224.472 113.375 232.617 112.19 240.875 111.772L252.907 111.662C290.756 111.605 325.725 121.785 357.795 141.466L373.914 152.101C377.55 154.295 393.441 162.069 397.821 160.947L404.795 166.785L357.406 211.471C355.573 209.958 353.93 208.027 352.163 206.406L341.717 196.913C340.094 195.434 337.922 193.782 336.648 191.999C336.199 191.335 335.614 190.912 334.992 190.426C330.062 187.149 325.578 183.112 320.652 179.762C279.84 152.014 241.656 140.81 193.77 162.453C165.486 175.237 154.26 185.188 132.863 205.61C126.567 200.928 106.028 181.306 100.446 180.178L100.244 180.143Z" fill="#FCD004"/>
<path d="M334.992 190.426C336.468 187.434 338.587 184.973 340.655 182.386L345.702 175.665C349.907 169.93 356.252 158.022 362.542 154.805C364.047 155.242 365.427 155.754 366.866 156.372C362.461 162.553 343.436 186.987 337.539 191.328L336.648 191.999C336.199 191.335 335.614 190.912 334.992 190.426Z" fill="#DAA707"/>
<path d="M42.5389 124.826C44.0179 122.676 47.1026 120.778 49.1288 119.049L55.9359 112.878C63.1392 106.175 70.5943 98.8502 78.7296 93.3102C100.9 78.2122 133.171 67.7982 158.601 60.5222L190.515 52.1602L218.98 46.864C229.055 45.2824 238.614 44.3395 248.787 44.3187L262.861 44.4214L302.175 48.3192C313.467 50.0352 324.561 52.5062 335.662 55.1602L390.789 71.4952C400.152 74.7422 418.284 79.6822 420.675 91.1252C420.508 91.6542 420.39 91.9952 420.42 92.5602L420.459 92.9252C422.877 89.9232 429.939 82.7802 433.039 81.6772C433.295 81.8642 434.771 82.8229 434.841 83.0239C461.763 100.101 445.442 117.469 429.949 136.353L417.164 151.817C415.754 153.455 414.091 156.017 412.363 157.252L393.912 141.524L389.188 137.568L371.026 123.836C362.805 118.083 336.194 100.81 325.797 101.277L323.285 104.785C323.149 103.815 323.032 102.882 323.051 101.9L323.057 101.672C317.804 99.0812 311.849 101.333 306.63 97.4692C305.418 92.6252 302.282 91.6669 298.002 90.3849L286.27 87.2779C274.337 84.3269 262.106 82.3749 249.823 81.7009L238.789 81.5939C218.054 81.6019 198.148 85.1049 178.085 90.3749C137.174 101.12 100.022 118.985 75.5018 154.319L42.5389 124.826Z" fill="#FCD004"/>
<path d="M191.734 257.286L186.929 266.056C191.263 268.43 196.682 267.283 199.682 263.356L191.734 257.286ZM199.218 247.006L206.885 253.426L206.885 253.426L199.218 247.006ZM264.844 232.79L269.133 223.756L269.133 223.756L264.844 232.79ZM281.877 243.112L288.057 235.25C287.884 235.113 287.705 234.983 287.523 234.858L281.877 243.112ZM287.828 247.79L294.461 240.306C294.314 240.176 294.163 240.05 294.008 239.928L287.828 247.79ZM301.912 260.273L295.279 267.756C298.328 270.459 302.711 271.041 306.36 269.229L301.912 260.273ZM218.704 326.446L211.328 319.694L211.327 319.695L218.704 326.446ZM237.867 298.415L240.995 307.913L240.995 307.913L237.867 298.415ZM323.267 196.451L329.692 188.787C329.569 188.684 329.443 188.584 329.316 188.487L323.267 196.451ZM328.11 200.511L321.686 208.174C321.721 208.204 321.757 208.233 321.793 208.262L328.11 200.511ZM110.668 165.691L103.085 159.173L103.085 159.173L110.668 165.691ZM162.535 129.486L166.444 138.691L166.445 138.69L162.535 129.486ZM193.344 118.927L191.514 109.096C191.357 109.125 191.201 109.158 191.045 109.195L193.344 118.927ZM216.313 114.651L214.768 104.771C214.673 104.786 214.578 104.802 214.483 104.82L216.313 114.651ZM240.875 111.772L240.784 101.773C240.646 101.774 240.508 101.778 240.37 101.785L240.875 111.772ZM252.907 111.662L252.892 101.662C252.867 101.662 252.841 101.662 252.816 101.663L252.907 111.662ZM357.795 141.466L363.303 133.119C363.211 133.059 363.119 133 363.026 132.943L357.795 141.466ZM373.914 152.101L368.407 160.448C368.519 160.522 368.633 160.594 368.748 160.663L373.914 152.101ZM323.051 101.9L313.055 101.637C313.054 101.66 313.054 101.683 313.053 101.707L323.051 101.9ZM323.057 101.672L333.054 101.936C333.157 98.0347 330.981 94.4301 327.481 92.7038L323.057 101.672ZM49.1288 119.049L55.6199 126.656C55.696 126.591 55.7711 126.525 55.8452 126.458L49.1288 119.049ZM55.9359 112.878L62.6523 120.287C62.6844 120.258 62.7164 120.228 62.7481 120.199L55.9359 112.878ZM78.7296 93.3102L84.3582 101.576L84.3583 101.576L78.7296 93.3102ZM158.601 60.5222L156.067 50.8487C155.994 50.8677 155.922 50.8874 155.851 50.908L158.601 60.5222ZM190.515 52.1602L188.686 42.3289C188.449 42.373 188.214 42.4256 187.981 42.4867L190.515 52.1602ZM218.98 46.864L217.43 36.985C217.337 36.9996 217.244 37.0155 217.151 37.0327L218.98 46.864ZM248.787 44.3187L248.86 34.3189C248.829 34.3187 248.798 34.3186 248.767 34.3187L248.787 44.3187ZM262.861 44.4214L263.848 34.4702C263.544 34.4401 263.239 34.4239 262.934 34.4217L262.861 44.4214ZM302.175 48.3192L303.678 38.4327C303.506 38.4067 303.334 38.3851 303.162 38.368L302.175 48.3192ZM335.662 55.1602L338.503 45.5723C338.333 45.5217 338.161 45.4757 337.988 45.4343L335.662 55.1602ZM390.789 71.4952L394.066 62.0472C393.922 61.9972 393.777 61.9506 393.63 61.9073L390.789 71.4952ZM420.675 91.1252L430.211 94.1356C430.728 92.4999 430.815 90.7589 430.464 89.0799L420.675 91.1252ZM420.42 92.5602L410.434 93.0904C410.444 93.2682 410.458 93.4456 410.477 93.6227L420.42 92.5602ZM420.459 92.9252L410.516 93.9877C410.946 98.011 413.758 101.379 417.64 102.52C421.522 103.66 425.709 102.349 428.247 99.198L420.459 92.9252ZM154.94 241.946C155.943 242.365 157.599 243.359 160.049 245.22C162.416 247.017 165.004 249.215 167.915 251.707C173.363 256.369 180.286 262.416 186.929 266.056L196.54 248.516C192.134 246.102 186.983 241.702 180.921 236.512C178.077 234.078 175.052 231.499 172.144 229.291C169.32 227.147 166.042 224.909 162.649 223.492L154.94 241.946ZM199.682 263.356C201.149 261.434 202.519 259.413 203.635 257.803C204.824 256.09 205.832 254.683 206.885 253.426L191.552 240.586C189.874 242.588 188.429 244.635 187.203 246.403C185.904 248.275 184.897 249.764 183.787 251.216L199.682 263.356ZM206.885 253.426C221.039 236.523 240.728 232.412 260.556 241.824L269.133 223.756C241.21 210.502 211.65 216.583 191.551 240.586L206.885 253.426ZM260.555 241.823C265.786 244.307 270.699 247.581 276.232 251.366L287.523 234.858C282.07 231.128 275.963 226.999 269.133 223.756L260.555 241.823ZM275.697 250.974L281.648 255.652L294.008 239.928L288.057 235.25L275.697 250.974ZM281.195 255.273L295.279 267.756L308.545 252.789L294.461 240.306L281.195 255.273ZM306.36 269.229C315.531 264.675 322.959 257.217 328.748 251.93C335.079 246.147 340.1 242.226 345.968 240.584L340.577 221.324C329.713 224.365 321.635 231.339 315.259 237.163C308.341 243.482 303.456 248.341 297.465 251.316L306.36 269.229ZM208.204 338.895C207.017 340.901 205.408 341.205 206.142 340.967C206.814 340.749 207.831 340.565 210.014 340.208C211.828 339.912 214.542 339.479 217.158 338.645C219.799 337.802 223.259 336.282 226.082 333.197L211.327 319.695C211.805 319.173 212.041 319.284 211.08 319.59C210.094 319.905 208.83 320.137 206.79 320.47C205.119 320.743 202.407 321.153 199.976 321.941C197.609 322.708 193.524 324.429 190.991 328.711L208.204 338.895ZM226.081 333.198C229.62 329.331 230.471 324.617 230.871 322.073C231.406 318.658 231.398 317.428 231.938 315.367C232.328 313.877 232.858 312.816 233.781 311.849C234.761 310.822 236.756 309.309 240.995 307.913L234.74 288.916C228.191 291.073 223.088 294.085 219.314 298.039C215.483 302.052 213.604 306.426 212.59 310.303C211.725 313.608 211.316 317.677 211.112 318.973C210.772 321.14 210.546 320.548 211.328 319.694L226.081 333.198ZM240.995 307.913C251.635 304.409 259.491 304.974 268.979 309.789L278.03 291.954C263.596 284.63 250.214 283.82 234.739 288.917L240.995 307.913ZM313.772 201.796L317.219 204.414L329.316 188.487L325.869 185.869L313.772 201.796ZM316.843 204.114L321.686 208.174L334.535 192.847L329.692 188.787L316.843 204.114ZM321.793 208.262C329.641 214.659 337.188 222.138 343.481 229.946L359.053 217.395C351.821 208.422 343.271 199.966 334.428 192.759L321.793 208.262ZM109.934 182.614C109.909 182.715 109.987 182.384 110.49 181.558C110.964 180.779 111.636 179.849 112.506 178.771C114.543 176.247 116.05 174.771 118.252 172.21L103.085 159.173C102.099 160.32 99.0118 163.646 96.9431 166.209C94.8229 168.836 91.7518 172.976 90.5544 177.673L109.934 182.614ZM118.252 172.21C133.563 154.397 144.815 147.876 166.444 138.691L158.626 120.282C135.216 130.224 121.03 138.296 103.085 159.173L118.252 172.21ZM166.445 138.69C176.156 134.566 185.887 130.964 195.643 128.659L191.045 109.195C179.728 111.868 168.828 115.949 158.626 120.282L166.445 138.69ZM195.175 128.758L218.144 124.482L214.483 104.82L191.514 109.096L195.175 128.758ZM217.859 124.531C226.001 123.258 233.693 122.149 241.381 121.759L240.37 101.785C231.542 102.232 222.943 103.493 214.768 104.771L217.859 124.531ZM240.967 121.772L252.999 121.662L252.816 101.663L240.784 101.773L240.967 121.772ZM252.922 121.662C288.865 121.608 322.025 131.247 352.565 149.989L363.026 132.943C329.425 112.323 292.648 101.602 252.892 101.662L252.922 121.662ZM352.288 149.813L368.407 160.448L379.422 143.754L363.303 133.119L352.288 149.813ZM368.748 160.663C371.107 162.087 376.459 164.792 381.735 166.995C384.404 168.11 387.335 169.216 390.054 169.977C391.41 170.356 392.912 170.707 394.424 170.899C395.766 171.07 397.957 171.235 400.303 170.634L395.34 151.26C396.59 150.94 397.327 151.107 396.947 151.059C396.738 151.032 396.252 150.943 395.445 150.717C393.839 150.267 391.749 149.503 389.442 148.54C384.769 146.589 380.358 144.31 379.081 143.539L368.748 160.663ZM333.189 103.397C333.124 102.938 333.089 102.659 333.068 102.432C333.049 102.223 333.049 102.126 333.05 102.094L313.053 101.707C313.017 103.557 313.243 105.183 313.382 106.174L333.189 103.397ZM333.048 102.164L333.054 101.936L313.061 101.409L313.055 101.637L333.048 102.164ZM327.481 92.7038C322.756 90.3731 317.623 90.2535 315.7 90.0858C313.169 89.8653 312.811 89.603 312.581 89.4322L300.68 105.506C305.668 109.199 310.897 109.743 313.963 110.01C317.634 110.33 318.106 110.38 318.634 110.641L327.481 92.7038ZM50.7777 130.494C50.6405 130.693 50.6069 130.69 50.8302 130.476C51.0428 130.272 51.3617 129.996 51.8436 129.614C52.3452 129.216 52.8368 128.848 53.5097 128.336C54.1131 127.876 54.8817 127.286 55.6199 126.656L42.6376 111.442C41.693 112.248 41.3431 112.415 39.4137 113.946C38.1105 114.979 35.9449 116.768 34.3 119.159L50.7777 130.494ZM55.8452 126.458L62.6523 120.287L49.2195 105.469L42.4124 111.64L55.8452 126.458ZM62.7481 120.199C70.2825 113.188 77.0222 106.571 84.3582 101.576L73.1009 85.0447C64.1663 91.129 55.9958 99.1626 49.1236 105.557L62.7481 120.199ZM84.3583 101.576C105.033 87.4961 135.831 77.4384 161.352 70.1364L155.851 50.908C130.511 58.158 96.7673 68.9283 73.1009 85.0447L84.3583 101.576ZM161.136 70.1956L193.05 61.8336L187.981 42.4867L156.067 50.8487L161.136 70.1956ZM192.345 61.9915L220.81 56.6953L217.151 37.0327L188.686 42.3289L192.345 61.9915ZM220.531 56.743C230.233 55.22 239.266 54.3382 248.808 54.3187L248.767 34.3187C237.962 34.3408 227.878 35.3448 217.43 36.985L220.531 56.743ZM248.714 54.3184L262.788 54.4211L262.934 34.4217L248.86 34.3189L248.714 54.3184ZM261.875 54.3726L301.189 58.2704L303.162 38.368L263.848 34.4702L261.875 54.3726ZM300.673 58.2057C311.542 59.8574 322.31 62.2498 333.337 64.8861L337.988 45.4343C326.813 42.7626 315.393 40.213 303.678 38.4327L300.673 58.2057ZM332.821 64.7481L387.948 81.0831L393.63 61.9073L338.503 45.5723L332.821 64.7481ZM387.513 80.9432C392.795 82.7748 398.605 84.4851 403.792 87.139C409.331 89.9734 410.685 92.2034 410.887 93.1705L430.464 89.0799C428.275 78.604 419.367 72.6425 412.902 69.3344C406.084 65.8457 398.147 63.4625 394.066 62.0472L387.513 80.9432ZM411.139 88.1147C411.013 88.5154 410.296 90.4804 410.434 93.0904L430.406 92.03C430.421 92.2964 430.421 92.6104 430.393 92.9592C430.365 93.3106 430.315 93.6236 430.261 93.8843C430.209 94.1289 430.16 94.2974 430.15 94.3299C430.145 94.3464 430.145 94.3453 430.157 94.3083C430.173 94.2556 430.18 94.2351 430.211 94.1356L411.139 88.1147ZM410.477 93.6227L410.516 93.9877L430.403 91.8627L430.364 91.4977L410.477 93.6227ZM428.247 99.198C429.084 98.1591 431.108 95.9674 433.328 93.8888C434.415 92.8712 435.405 92.0163 436.194 91.4109C437.222 90.6224 437.194 90.813 436.392 91.0986L429.687 72.2558C427.335 73.0929 425.262 74.59 424.018 75.5449C422.535 76.6827 421.027 78.008 419.659 79.2894C416.968 81.8085 414.253 84.6893 412.672 86.6523L428.247 99.198ZM344.932 186.398C343.405 184.14 341.331 182.688 341.149 182.546L328.835 198.306C328.927 198.378 329.029 198.457 329.087 198.502C329.158 198.557 329.203 198.592 329.238 198.62C329.312 198.678 329.293 198.666 329.234 198.614C329.093 198.488 328.733 198.146 328.365 197.601L344.932 186.398ZM158.794 232.719L165.767 251.464C174.227 248.317 179.53 239.895 178.712 230.906L158.794 232.719ZM343.272 230.954L335.976 212.332C333.911 213.141 331.995 214.288 330.306 215.726L343.272 230.954ZM340.079 234L323.775 222.416C318.989 229.154 318.839 238.141 323.399 245.034L340.079 234ZM340.339 234.393L357.276 223.756C357.192 223.623 357.107 223.49 357.02 223.358L340.339 234.393ZM341.66 237.992L322.578 243.982C322.634 244.159 322.692 244.335 322.753 244.51L341.66 237.992ZM342.03 243.625L357.773 255.96C358.225 255.384 358.645 254.783 359.03 254.161L342.03 243.625ZM341.382 244.452L356.895 257.076C356.972 256.981 357.049 256.884 357.125 256.787L341.382 244.452ZM334.562 250.289L347.842 265.244L347.843 265.243L334.562 250.289ZM301.686 273.251L303.135 293.198L303.135 293.198L301.686 273.251ZM286.744 264.827L300.544 250.35C300.497 250.305 300.45 250.261 300.403 250.217L286.744 264.827ZM278.871 257.467L292.53 242.857C292.383 242.72 292.235 242.586 292.085 242.453L278.871 257.467ZM235.816 239.774L237.211 259.725L237.212 259.725L235.816 239.774ZM205.069 258.83L188.209 248.072C188.066 248.297 187.927 248.525 187.792 248.755L205.069 258.83ZM201.674 264.652L184.397 254.577C184.274 254.789 184.154 255.004 184.038 255.22L201.674 264.652ZM195.214 271.507L194.593 251.516L194.591 251.517L195.214 271.507ZM176.721 261.636L163.371 276.528C163.582 276.717 163.797 276.901 164.016 277.081L176.721 261.636ZM161.554 248.039L147.818 262.575C147.945 262.696 148.074 262.814 148.204 262.931L161.554 248.039ZM154.927 238.905L174.927 238.998L174.927 238.989L154.927 238.905ZM234.807 274.643L232.777 254.746C232.597 254.765 232.417 254.785 232.238 254.809L234.807 274.643ZM283.765 293.604L298.993 280.638L298.992 280.637L283.765 293.604ZM277.49 369.792L290.314 385.139L290.315 385.139L277.49 369.792ZM245.476 382.031L245.54 402.031C245.734 402.03 245.929 402.027 246.123 402.02L245.476 382.031ZM194.554 298.5L178.692 286.319L178.691 286.32L194.554 298.5ZM199.597 333.803L179.607 334.436C179.64 335.469 179.753 336.498 179.945 337.514L199.597 333.803ZM273.504 300.872L259.991 315.616C260.263 315.866 260.543 316.108 260.829 316.342L273.504 300.872ZM250.785 289.184L255.502 269.748C255.211 269.677 254.92 269.614 254.627 269.556L250.785 289.184ZM242.232 287.51L237.806 307.014C238 307.058 238.195 307.099 238.391 307.138L242.232 287.51ZM232.31 287.368L229.179 267.615L229.175 267.615L232.31 287.368ZM199.44 318.749L180.005 314.029L180.005 314.03L199.44 318.749ZM281.751 342.75L300.804 348.831L281.751 342.75ZM247.445 370.16L245.831 350.225L245.83 350.225L247.445 370.16ZM157.9 230.025L139.327 222.607C137.449 227.308 137.424 232.546 139.257 237.264L157.9 230.025ZM233.853 176.108L230.244 156.436L230.244 156.436L233.853 176.108ZM311.708 190.83L302.638 208.655L302.64 208.656L311.708 190.83ZM318.3 194.229L311.564 213.06C311.645 213.089 311.725 213.117 311.806 213.145L318.3 194.229ZM318.498 194.297L312.004 213.213C315.085 214.271 318.377 214.56 321.596 214.055L318.498 194.297ZM319.82 193.833L327.845 212.152C334.373 209.293 338.887 203.175 339.692 196.093C340.498 189.011 337.474 182.036 331.754 177.783L319.82 193.833ZM351.267 223.671L365.104 209.23C360.347 204.671 353.649 202.749 347.199 204.089C340.748 205.429 335.371 209.861 332.823 215.937L351.267 223.671ZM343.52 230.857L350.817 249.478C351.158 249.344 351.496 249.201 351.83 249.049L343.52 230.857ZM306.63 97.4692L326.599 98.5898C326.712 96.581 326.521 94.5666 326.032 92.6147L306.63 97.4692ZM291.789 101.996L286.799 121.364L286.802 121.364L291.789 101.996ZM252.844 95.5512L251.966 115.532L251.966 115.532L252.844 95.5512ZM119.484 128.911L130.821 145.388L130.822 145.387L119.484 128.911ZM85.1174 165.067L105.026 163.156L105.026 163.153L85.1174 165.067ZM83.8394 170.106L89.3099 189.343C93.7961 188.068 97.6953 185.264 100.333 181.418L83.8394 170.106ZM82.1304 170.592L76.6598 151.355C76.5839 151.377 76.508 151.399 76.4323 151.421L82.1304 170.592ZM79.5394 170.252L85.5916 151.19C85.5477 151.176 85.5037 151.162 85.4596 151.149L79.5394 170.252ZM79.107 170.118L72.9927 189.161C73.0572 189.181 73.1219 189.202 73.1867 189.222L79.107 170.118ZM55.0555 153.657L41.6744 168.521C41.864 168.692 42.0567 168.859 42.2526 169.022L55.0555 153.657ZM34.9058 135.518L20.804 149.701C21.0386 149.934 21.2789 150.161 21.5247 150.382L34.9058 135.518ZM36.4144 87.1952L49.0211 102.722L49.0212 102.722L36.4144 87.1952ZM182.007 24.372L179.664 4.50979C179.323 4.55002 178.983 4.59902 178.644 4.65675L182.007 24.372ZM215.296 20.4439L214.923 0.447367C214.265 0.459658 213.607 0.504486 212.953 0.581688L215.296 20.4439ZM237.253 20.0342L237.926 0.0454979C237.578 0.0337677 237.229 0.0311546 236.88 0.0376606L237.253 20.0342ZM267.655 21.0574L269.272 1.12282C268.958 1.09734 268.643 1.0793 268.328 1.0687L267.655 21.0574ZM310.801 26.9101L315.678 7.51373C315.292 7.41661 314.903 7.33105 314.511 7.25717L310.801 26.9101ZM371.008 42.0474L378.016 23.3154C377.319 23.0544 376.607 22.8326 375.885 22.651L371.008 42.0474ZM405.606 54.9912L414.261 36.9609C413.723 36.7025 413.174 36.4684 412.614 36.2592L405.606 54.9912ZM430.344 66.8662L439.637 49.156C439.426 49.0455 439.214 48.9388 438.999 48.8359L430.344 66.8662ZM459.648 90.8422L441.66 99.5836L441.66 99.5842L459.648 90.8422ZM428.54 155.561L442.812 169.573C442.994 169.388 443.172 169.199 443.346 169.007L428.54 155.561ZM385.673 199.221L399.415 213.753C399.594 213.583 399.771 213.41 399.945 213.233L385.673 199.221ZM364.232 219.495L350.491 204.963C350.3 205.144 350.112 205.329 349.928 205.517L364.232 219.495ZM354.025 226.114L346.588 244.68C346.798 244.764 347.009 244.844 347.221 244.921L354.025 226.114ZM353.668 225.971L339.832 240.412C341.681 242.184 343.854 243.585 346.231 244.537L353.668 225.971ZM239.091 165.677L238.807 145.679H238.807L239.091 165.677ZM141.745 214.623L126.604 201.556L126.603 201.558L141.745 214.623ZM127.701 218.905L115.377 234.657L115.378 234.657L127.701 218.905ZM109.606 202.419L123.052 187.613C123.047 187.609 123.042 187.604 123.037 187.6L109.606 202.419ZM103.223 196.634L116.654 181.815C116.52 181.694 116.385 181.574 116.248 181.456L103.223 196.634ZM95.3184 182.37L80.7041 168.717L80.7035 168.717L95.3184 182.37ZM100.244 180.143L103.673 160.439C102.175 160.179 100.652 160.09 99.1334 160.174L100.244 180.143ZM397.821 160.947L383.595 175.005C384.038 175.452 384.501 175.879 384.983 176.283L397.821 160.947ZM346.575 122.472L356.334 105.014C356.139 104.905 355.942 104.8 355.743 104.697L346.575 122.472ZM327.224 112.491L317.715 130.086C317.828 130.147 317.942 130.207 318.056 130.266L327.224 112.491ZM323.285 104.785L307.024 93.1419C305.796 94.8571 304.847 96.7558 304.212 98.7676L323.285 104.785ZM42.5389 124.826L28.7091 139.274C28.8712 139.429 29.0359 139.582 29.2031 139.731L42.5389 124.826ZM433.039 81.6772L444.837 65.5271C444.753 65.4662 444.669 65.406 444.585 65.3464L433.039 81.6772ZM329.869 43.6039L334.563 24.1624C334.41 24.1254 334.256 24.0903 334.102 24.0569L329.869 43.6039ZM313.75 40.1134L308.677 59.4592C308.956 59.5323 309.236 59.5993 309.518 59.6603L313.75 40.1134ZM302.795 38.1809L299.683 57.9372C299.954 57.9799 300.226 58.017 300.499 58.0486L302.795 38.1809ZM290.789 36.2892L293.902 16.5329C293.703 16.5015 293.503 16.4732 293.303 16.4478L290.789 36.2892ZM151.164 45.1733L145.855 25.891C145.765 25.9157 145.676 25.941 145.586 25.9669L151.164 45.1733ZM127.348 52.0902L121.77 32.8838C121.475 32.9694 121.183 33.0618 120.892 33.1609L127.348 52.0902ZM72.4362 78.6032L61.8943 61.607C61.7685 61.6851 61.6435 61.7645 61.5194 61.8454L72.4362 78.6032ZM55.6443 89.5422L44.7275 72.7844C44.4585 72.9596 44.1937 73.1413 43.9335 73.3293L55.6443 89.5422ZM32.5496 111.121L14.3305 102.871C12.0119 107.991 11.9549 113.851 14.1735 119.016L32.5496 111.121ZM404.795 166.785L418.517 181.336C422.673 177.416 424.955 171.906 424.787 166.195C424.618 160.483 422.015 155.117 417.633 151.45L404.795 166.785ZM357.406 211.471L344.675 226.896C352.452 233.315 363.791 232.94 371.127 226.022L357.406 211.471ZM352.163 206.406L365.684 191.668C365.66 191.647 365.637 191.626 365.614 191.605L352.163 206.406ZM341.717 196.913L328.246 211.696C328.253 211.702 328.26 211.708 328.267 211.714L341.717 196.913ZM336.648 191.999L324.61 176.029C315.948 182.558 314.07 194.801 320.376 203.627L336.648 191.999ZM334.992 190.426L323.921 207.082C328.71 210.266 334.638 211.234 340.191 209.739C345.744 208.244 350.385 204.432 352.929 199.275L334.992 190.426ZM320.652 179.762L331.899 163.224L331.897 163.223L320.652 179.762ZM193.77 162.453L185.533 144.228L185.533 144.228L193.77 162.453ZM132.863 205.61L120.929 221.659C128.749 227.475 139.622 226.807 146.672 220.078L132.863 205.61ZM100.446 180.178L104.408 160.575C104.231 160.539 104.053 160.505 103.875 160.474L100.446 180.178ZM340.655 182.386L356.277 194.874C356.403 194.716 356.527 194.557 356.648 194.395L340.655 182.386ZM345.702 175.665L361.695 187.674C361.741 187.613 361.786 187.552 361.831 187.491L345.702 175.665ZM362.542 154.805L368.119 135.598C363.225 134.177 357.973 134.678 353.435 136.998L362.542 154.805ZM366.866 156.372L383.154 167.979C386.664 163.053 387.757 156.804 386.126 150.98C384.495 145.155 380.316 140.382 374.759 137.995L366.866 156.372ZM337.539 191.328L325.683 175.221C325.622 175.266 325.561 175.311 325.501 175.357L337.539 191.328ZM434.841 83.0239L415.954 89.6016C417.438 93.8623 420.319 97.4961 424.129 99.9128L434.841 83.0239ZM429.949 136.353L445.364 149.097C445.38 149.077 445.396 149.058 445.411 149.038L429.949 136.353ZM417.164 151.817L432.322 164.865C432.409 164.764 432.494 164.663 432.579 164.561L417.164 151.817ZM412.363 157.252L399.389 172.472C406.377 178.429 416.523 178.862 423.993 173.523L412.363 157.252ZM393.912 141.524L406.887 126.303C406.842 126.265 406.798 126.228 406.753 126.19L393.912 141.524ZM389.188 137.568L402.029 122.234C401.775 122.021 401.515 121.815 401.25 121.615L389.188 137.568ZM371.026 123.836L383.088 107.883C382.893 107.735 382.694 107.59 382.493 107.45L371.026 123.836ZM325.797 101.277L324.9 81.297C318.771 81.5723 313.108 84.6453 309.536 89.6336L325.797 101.277ZM298.002 90.3849L303.741 71.2259C303.536 71.1644 303.33 71.1062 303.122 71.0513L298.002 90.3849ZM286.27 87.2779L291.39 67.9444C291.284 67.9163 291.178 67.8891 291.072 67.8627L286.27 87.2779ZM249.823 81.7009L250.919 61.7309C250.619 61.7144 250.318 61.7047 250.017 61.7018L249.823 81.7009ZM238.789 81.5939L238.983 61.5948C238.916 61.5941 238.849 61.5938 238.782 61.5939L238.789 81.5939ZM178.085 90.3749L183.166 109.719L183.167 109.719L178.085 90.3749ZM75.5018 154.319L62.166 169.224C66.4383 173.046 72.1454 174.852 77.8388 174.182C83.5323 173.512 88.6645 170.431 91.9329 165.721L75.5018 154.319ZM330.306 215.726C330.158 215.853 330.062 215.93 329.653 216.269C329.329 216.538 328.816 216.966 328.259 217.463C327.171 218.435 325.425 220.094 323.775 222.416L356.384 245.583C355.965 246.172 355.587 246.602 355.333 246.872C355.083 247.137 354.911 247.291 354.896 247.304C354.886 247.313 354.9 247.3 354.952 247.256C355.006 247.21 355.079 247.149 355.195 247.053C355.253 247.004 355.313 246.955 355.387 246.894C355.456 246.836 355.54 246.767 355.625 246.697C355.795 246.556 356.008 246.378 356.238 246.181L330.306 215.726ZM323.399 245.034L323.659 245.427L357.02 223.358L356.76 222.965L323.399 245.034ZM323.402 245.03C322.875 244.189 322.549 243.489 322.371 243.073C322.193 242.654 322.101 242.371 322.088 242.332C322.079 242.305 322.093 242.345 322.182 242.652C322.215 242.768 322.279 242.986 322.337 243.186C322.4 243.4 322.483 243.676 322.578 243.982L360.742 232.002C360.747 232.016 360.74 231.994 360.713 231.904C360.683 231.8 360.657 231.71 360.6 231.514C360.509 231.199 360.337 230.606 360.125 229.955C359.741 228.775 358.901 226.342 357.276 223.756L323.402 245.03ZM322.753 244.51C322.906 244.955 322.709 244.508 322.578 243.57C322.507 243.058 322.378 241.889 322.539 240.302C322.698 238.73 323.219 236.012 325.03 233.089L359.03 254.161C363.313 247.251 362.504 240.26 362.194 238.038C361.774 235.031 360.928 232.516 360.568 231.473L322.753 244.51ZM326.288 231.289L325.64 232.116L357.125 256.787L357.773 255.96L326.288 231.289ZM325.87 231.828C326.266 231.341 326.531 231.112 326.476 231.162C326.423 231.209 326.242 231.366 325.79 231.719C325.571 231.891 325.333 232.073 325.028 232.307C324.746 232.523 324.379 232.803 324.016 233.084C323.303 233.637 322.31 234.421 321.282 235.335L347.843 265.243C347.843 265.243 347.893 265.199 348.015 265.1C348.138 264.999 348.301 264.87 348.53 264.693C348.601 264.638 349.998 263.567 350.418 263.238C351.773 262.18 354.491 260.03 356.895 257.076L325.87 231.828ZM321.283 235.333C316.982 239.152 312.173 243.792 306.609 248.199C303.934 250.319 301.678 251.89 299.944 252.877C297.801 254.097 298.132 253.456 300.238 253.303L303.135 293.198C309.998 292.7 315.93 289.804 319.732 287.64C323.945 285.242 327.982 282.298 331.448 279.552C338.169 274.228 345.041 267.731 347.842 265.244L321.283 235.333ZM300.238 253.303C301.487 253.213 302.663 253.404 303.595 253.714C304.441 253.996 304.845 254.293 304.747 254.225C304.624 254.141 304.253 253.864 303.484 253.159C303.112 252.817 302.707 252.433 302.208 251.952C301.773 251.534 301.112 250.892 300.544 250.35L272.945 279.304C274.204 280.504 277.979 284.368 282.11 287.204C286.848 290.456 293.992 293.862 303.135 293.198L300.238 253.303ZM300.403 250.217L292.53 242.857L265.213 272.077L273.086 279.437L300.403 250.217ZM292.085 242.453C278.225 230.256 259.086 218.097 234.421 219.823L237.212 259.725C246.199 259.096 255.045 263.14 265.658 272.48L292.085 242.453ZM234.422 219.822C214.921 221.185 197.769 233.089 188.209 248.072L221.93 269.588C225.588 263.854 231.956 260.092 237.211 259.725L234.422 219.822ZM187.792 248.755L184.397 254.577L218.951 274.727L222.346 268.905L187.792 248.755ZM184.038 255.22C183.748 255.763 183.473 256.305 183.31 256.626C183.114 257.011 183.003 257.228 182.901 257.421C182.676 257.844 182.761 257.629 183.098 257.171C183.42 256.732 184.425 255.439 186.291 254.179C188.366 252.779 191.228 251.621 194.593 251.516L195.836 291.497C206.578 291.163 212.819 284.274 215.329 280.86C216.676 279.027 217.644 277.28 218.223 276.191C218.523 275.628 218.794 275.093 218.967 274.753C219.172 274.349 219.253 274.192 219.311 274.083L184.038 255.22ZM194.591 251.517C196.076 251.47 196.959 251.788 197.02 251.81C197.074 251.83 196.722 251.702 195.916 251.198C195.132 250.707 194.197 250.038 193.058 249.147C191.868 248.216 190.82 247.336 189.427 246.19L164.016 277.081C166.035 278.743 170.158 282.266 174.701 285.108C179.006 287.802 186.556 291.787 195.838 291.497L194.591 251.517ZM190.072 246.744L174.905 233.147L148.204 262.931L163.371 276.528L190.072 246.744ZM175.291 233.502C174.955 233.185 174.533 232.793 174.282 232.56C173.98 232.277 173.725 232.037 173.487 231.808C172.988 231.325 172.728 231.044 172.616 230.914C172.457 230.726 172.829 231.116 173.313 232.028C173.742 232.836 174.944 235.324 174.927 238.998L134.928 238.812C134.903 244.103 136.655 248.281 137.982 250.781C139.363 253.384 140.982 255.465 142.206 256.898C144.494 259.576 147.344 262.127 147.818 262.575L175.291 233.502ZM174.927 238.989C174.916 241.707 174.15 243.829 173.204 245.426C172.293 246.967 170.093 249.855 165.767 251.464L151.821 213.974C145.168 216.449 141.04 221.236 138.779 225.058C136.485 228.935 134.949 233.717 134.928 238.821L174.927 238.989ZM236.838 294.54C241.023 294.113 247.467 294.986 254.311 297.617C261.211 300.269 266.185 303.807 268.538 306.571L298.992 280.637C291.003 271.255 279.602 264.485 268.662 260.28C257.664 256.053 244.801 253.519 232.777 254.746L236.838 294.54ZM268.538 306.57C273.401 312.281 276.182 321.319 275.371 331.311C274.56 341.3 270.371 349.677 264.665 354.445L290.315 385.139C305.844 372.162 313.745 352.959 315.239 334.547C316.734 316.138 312.035 295.955 298.993 280.638L268.538 306.57ZM264.666 354.444C258.654 359.468 252.598 361.79 244.83 362.041L246.123 402.02C262.913 401.478 277.521 395.829 290.314 385.139L264.666 354.444ZM245.413 362.031C233.068 362.07 219.378 354.269 211.375 342.388C203.74 331.052 203.414 319.802 210.418 310.68L178.691 286.32C158.569 312.526 163.63 343.105 178.2 364.735C192.402 385.819 217.737 402.119 245.54 402.031L245.413 362.031ZM210.417 310.681C216.771 302.406 228.137 295.674 237.377 294.477L232.238 254.809C211.48 257.498 190.897 270.424 178.692 286.319L210.417 310.681ZM287.018 286.128C277.882 277.755 266.338 272.377 255.502 269.748L246.069 308.62C251.569 309.954 256.688 312.589 259.991 315.616L287.018 286.128ZM254.627 269.556L246.074 267.882L238.391 307.138L246.944 308.811L254.627 269.556ZM246.659 268.006C240.827 266.682 233.673 266.902 229.179 267.615L235.442 307.121C235.383 307.131 235.544 307.104 235.926 307.079C236.285 307.056 236.706 307.043 237.137 307.046C237.574 307.049 237.916 307.068 238.132 307.087C238.393 307.111 238.251 307.115 237.806 307.014L246.659 268.006ZM229.175 267.615C216.839 269.573 205.943 276.161 197.824 283.975C189.673 291.82 182.854 302.299 180.005 314.029L218.875 323.469C219.622 320.396 221.863 316.355 225.562 312.795C229.292 309.205 233.034 307.503 235.446 307.121L229.175 267.615ZM180.005 314.03C178.694 319.431 178.848 324.374 179.06 327.586C179.376 332.369 179.529 331.971 179.607 334.436L219.587 333.17C219.529 331.315 219.378 329.567 219.259 328.261C219.125 326.783 219.036 325.898 218.973 324.95C218.85 323.078 219.003 322.943 218.876 323.468L180.005 314.03ZM260.829 316.342C259.937 315.611 260.244 315.46 260.985 317.16C261.662 318.713 262.332 320.982 262.785 323.797C263.231 326.568 263.394 329.418 263.303 331.939C263.207 334.593 262.857 336.173 262.698 336.669L300.804 348.831C303.811 339.41 303.9 327.524 302.276 317.439C300.77 308.08 296.825 294.123 286.18 285.401L260.829 316.342ZM262.698 336.669C260.507 343.536 252.727 349.667 245.831 350.225L249.059 390.095C272.326 388.211 293.742 370.958 300.804 348.831L262.698 336.669ZM245.83 350.225C241.37 350.586 235.134 348.846 229.263 344.402C223.396 339.96 220.078 334.475 219.25 330.092L179.945 337.514C183.012 353.758 193.23 367.292 205.12 376.293C217.005 385.291 232.746 391.416 249.06 390.095L245.83 350.225ZM178.712 230.906C178.427 227.779 177.551 225.339 177.142 224.26C176.918 223.669 176.699 223.15 176.611 222.94C176.479 222.625 176.508 222.691 176.544 222.785L139.257 237.264C139.459 237.786 139.673 238.289 139.726 238.416C139.824 238.649 139.792 238.579 139.74 238.441C139.681 238.284 139.523 237.857 139.359 237.252C139.195 236.643 138.984 235.709 138.877 234.532L178.712 230.906ZM176.474 237.442C179.234 230.531 187.867 221.017 201.284 212.027C214.296 203.308 228.243 197.471 237.463 195.779L230.244 156.436C214.192 159.381 195.164 167.978 179.018 178.797C163.277 189.344 146.57 204.471 139.327 222.607L176.474 237.442ZM237.462 195.779C256.78 192.235 282.633 198.475 302.638 208.655L320.779 173.005C296.384 160.591 261.335 150.732 230.244 156.436L237.462 195.779ZM302.64 208.656C303.284 208.983 303.351 209.06 305.192 210.09C306.533 210.841 308.803 212.072 311.564 213.06L325.036 175.397C325.486 175.558 325.55 175.645 324.72 175.181C324.201 174.891 324.009 174.774 323.201 174.316C322.572 173.96 321.725 173.486 320.777 173.004L302.64 208.656ZM311.806 213.145L312.004 213.213L324.993 175.381L324.795 175.313L311.806 213.145ZM321.596 214.055C323.555 213.748 325.158 213.239 326.362 212.775C326.901 212.568 327.337 212.377 327.554 212.282C327.66 212.235 327.766 212.187 327.8 212.172C327.852 212.149 327.854 212.148 327.845 212.152L311.796 175.513C311.669 175.568 311.559 175.618 311.5 175.644C311.463 175.66 311.45 175.667 311.432 175.675C311.417 175.681 311.416 175.682 311.421 175.679C311.425 175.678 311.654 175.576 311.984 175.449C312.769 175.146 313.946 174.766 315.401 174.538L321.596 214.055ZM332.823 215.937C333.392 214.581 334.003 213.756 334.254 213.437C334.535 213.082 334.712 212.928 334.718 212.923C334.734 212.909 334.736 212.908 334.727 212.915C334.718 212.921 334.713 212.925 334.718 212.921C334.722 212.919 334.754 212.898 334.82 212.861C334.883 212.825 335.012 212.755 335.211 212.665L351.83 249.049C355.25 247.486 358.534 245.271 361.293 242.819C363.859 240.538 367.483 236.72 369.712 231.404L332.823 215.937ZM336.224 212.235L335.976 212.332L350.569 249.575L350.817 249.478L336.224 212.235ZM286.662 96.3485C286.714 95.4167 287.188 91.5639 290.793 87.9645C294.359 84.4032 298.313 83.7716 299.745 83.6659C301.029 83.5712 301.528 83.7826 300.559 83.582C299.558 83.375 298.82 83.1541 296.777 82.6281L286.802 121.364C287.683 121.591 290.2 122.286 292.452 122.752C294.737 123.225 298.487 123.867 302.689 123.557C307.038 123.237 313.575 121.743 319.057 116.269C324.577 110.757 326.299 103.941 326.599 98.5898L286.662 96.3485ZM296.78 82.6288C283.467 79.1985 268.751 76.2314 253.723 75.5705L251.966 115.532C263.088 116.021 274.8 118.272 286.799 121.364L296.78 82.6288ZM253.723 75.5705C231.672 74.6007 205.031 77.3117 179.452 83.2836C154.036 89.2174 128.038 98.7479 108.147 112.435L130.822 145.387C145.084 135.573 165.803 127.546 188.547 122.236C211.127 116.964 234.09 114.746 251.966 115.532L253.723 75.5705ZM108.147 112.435C102.839 116.088 93.2289 123.703 84.9184 131.617C80.7774 135.56 76.3935 140.11 72.9486 144.675C71.2363 146.944 69.363 149.73 67.8987 152.849C66.5932 155.629 64.6096 160.747 65.2092 166.982L105.026 163.153C105.239 165.375 104.944 167.096 104.708 168.066C104.469 169.052 104.192 169.667 104.107 169.849C103.966 170.148 104.092 169.811 104.879 168.768C106.433 166.709 109.048 163.875 112.504 160.583C119.387 154.028 127.365 147.766 130.821 145.388L108.147 112.435ZM65.2089 166.978C65.1957 166.841 65.0299 165.14 65.6064 162.848C66.1935 160.514 67.1754 159.043 67.3456 158.795L100.333 181.418C101.697 179.429 103.42 176.495 104.398 172.606C105.366 168.758 105.242 165.409 105.026 163.156L65.2089 166.978ZM78.3688 150.869L76.6598 151.355L87.6009 189.829L89.3099 189.343L78.3688 150.869ZM76.4323 151.421C79.8666 150.4 82.8698 150.645 84.7474 151.021C85.5483 151.181 86.1109 151.36 86.1873 151.384C86.2301 151.397 86.2472 151.403 86.1267 151.364C86.0451 151.337 85.8264 151.264 85.5916 151.19L73.4872 189.314C73.4744 189.31 73.4742 189.31 73.6086 189.354C73.704 189.386 73.9346 189.462 74.1894 189.542C74.6898 189.7 75.6705 189.997 76.8921 190.242C79.6109 190.787 83.4656 191.06 87.8285 189.763L76.4323 151.421ZM85.4596 151.149L85.0272 151.015L73.1867 189.222L73.6191 189.356L85.4596 151.149ZM85.2213 151.076C84.5032 150.845 82.2608 149.725 78.3976 146.858C74.7706 144.166 71.4228 141.262 67.8583 138.292L42.2526 169.022C45.0584 171.36 49.7468 175.406 54.5582 178.977C59.1334 182.373 65.7317 186.829 72.9927 189.161L85.2213 151.076ZM68.4365 138.793L48.2868 120.654L21.5247 150.382L41.6744 168.521L68.4365 138.793ZM49.0075 121.336C44.8908 117.242 42.5142 114.338 41.2126 112.263C39.9822 110.301 40.3296 110.056 40.3498 110.991C40.3743 112.128 39.8899 112.294 40.7774 110.951C41.8402 109.343 44.1914 106.643 49.0211 102.722L23.8076 71.6688C11.7158 81.4868 -0.0176201 94.3938 0.359076 111.854C0.710379 128.137 11.7702 140.718 20.804 149.701L49.0075 121.336ZM49.0212 102.722C86.9792 71.901 135.952 52.5168 185.37 44.0872L178.644 4.65675C123.991 13.9793 68.2029 35.6214 23.8075 71.6688L49.0212 102.722ZM184.351 44.2342L217.64 40.3061L212.953 0.581688L179.664 4.50979L184.351 44.2342ZM215.67 40.4404L237.627 40.0307L236.88 0.0376606L214.923 0.447367L215.67 40.4404ZM236.581 40.0229L266.983 41.0461L268.328 1.0687L237.926 0.0454979L236.581 40.0229ZM266.039 40.9919C279.727 42.102 293.512 43.9995 307.092 46.563L314.511 7.25717C299.633 4.44862 284.45 2.35361 269.272 1.12282L266.039 40.9919ZM305.925 46.3064L366.132 61.4437L375.885 22.651L315.678 7.51373L305.925 46.3064ZM364 60.7794L398.598 73.7232L412.614 36.2592L378.016 23.3154L364 60.7794ZM396.951 73.0214L421.689 84.8964L438.999 48.8359L414.261 36.9609L396.951 73.0214ZM421.052 84.5764C433.644 91.1833 439.391 94.9143 441.66 99.5836L477.637 82.1008C468.534 63.3681 449.039 54.089 439.637 49.156L421.052 84.5764ZM441.66 99.5842C442.188 100.67 443.164 104.766 436.416 115.197C430.113 124.94 421.328 133.753 413.734 142.116L443.346 169.007C449.172 162.592 461.383 150.246 470.001 136.923C478.174 124.289 487.995 103.414 477.637 82.1002L441.66 99.5842ZM414.269 141.549L371.402 185.209L399.945 213.233L442.812 169.573L414.269 141.549ZM371.932 184.689L350.491 204.963L377.974 234.027L399.415 213.753L371.932 184.689ZM349.928 205.517C349.457 205.999 348.974 206.521 348.693 206.824C348.347 207.198 348.084 207.482 347.811 207.767C347.242 208.363 346.955 208.623 346.87 208.694C346.656 208.871 347.452 208.133 349.133 207.434C350.859 206.716 355.354 205.326 360.83 207.307L347.221 244.921C354.441 247.533 360.831 245.889 364.483 244.371C368.09 242.872 370.841 240.787 372.491 239.41C375.37 237.009 378.935 233.066 378.536 233.474L349.928 205.517ZM361.462 207.548L361.105 207.405L346.231 244.537L346.588 244.68L361.462 207.548ZM367.505 211.53L365.104 209.23L337.431 238.112L339.832 240.412L367.505 211.53ZM331.754 177.783C305.349 158.149 274.148 145.176 238.807 145.679L239.376 185.675C264.029 185.324 286.847 194.238 307.887 209.882L331.754 177.783ZM238.807 145.679C196.007 146.289 152.588 171.448 126.604 201.556L156.887 227.69C177.131 204.232 210.41 186.088 239.376 185.675L238.807 145.679ZM126.603 201.558C125.747 202.549 125.008 203.476 124.47 204.155C123.846 204.941 123.588 205.273 123.31 205.608C122.582 206.486 123.55 205.068 125.767 203.766C127.094 202.986 128.885 202.222 131.069 201.862C133.264 201.5 135.255 201.645 136.862 202.004C139.704 202.639 140.901 203.838 140.025 203.153L115.378 234.657C118.352 236.985 122.659 239.817 128.141 241.042C134.622 242.49 140.865 241.287 146.027 238.256C150.221 235.792 152.97 232.505 154.1 231.142C156.388 228.383 155.471 229.331 156.888 227.688L126.603 201.558ZM140.025 203.153C134.317 198.687 130.683 194.543 123.052 187.613L96.1607 217.225C100.504 221.169 108.366 229.171 115.377 234.657L140.025 203.153ZM123.037 187.6L116.654 181.815L89.7925 211.453L96.1755 217.238L123.037 187.6ZM116.248 181.456C115.64 180.935 114.904 180.335 114.481 179.988C113.958 179.558 113.518 179.192 113.1 178.83C112.684 178.47 112.362 178.174 112.115 177.932C111.861 177.684 111.772 177.574 111.794 177.601C111.802 177.61 112.074 177.935 112.427 178.568C112.771 179.183 113.39 180.441 113.764 182.267C114.159 184.191 114.27 186.727 113.514 189.516C112.75 192.334 111.341 194.516 109.933 196.023L80.7035 168.717C74.9363 174.891 73.0588 182.889 74.5802 190.305C75.8196 196.347 79.0272 200.736 80.9247 203.039C84.5396 207.425 90.1658 211.783 90.1989 211.812L116.248 181.456ZM109.933 196.024C109.313 196.687 107.883 198.006 105.618 199.007C103.453 199.964 101.727 200.092 101.355 200.112L99.1334 160.174C96.6409 160.313 93.1836 160.771 89.4521 162.419C85.6198 164.113 82.7881 166.486 80.7041 168.717L109.933 196.024ZM412.048 146.89C395.375 130.017 376.558 116.319 356.334 105.014L336.817 139.93C354.235 149.666 369.926 161.171 383.595 175.005L412.048 146.89ZM355.743 104.697L336.392 94.7163L318.056 130.266L337.407 140.247L355.743 104.697ZM336.734 94.8966C335.392 94.1711 335.454 94.1821 335.723 94.3618C336.054 94.5832 338.291 96.069 340.159 99.1282C342.322 102.671 342.755 106.21 342.647 108.578C342.563 110.414 342.158 111.439 342.359 110.803L304.212 98.7676C303.457 101.161 300.301 110.61 306.022 119.977C308.528 124.08 311.763 126.458 313.468 127.599C315.109 128.698 316.92 129.656 317.715 130.086L336.734 94.8966ZM444.585 65.3464C429.029 54.3483 408.69 45.9416 389.447 39.4817C369.913 32.9237 350.001 27.8893 334.563 24.1624L325.176 63.0454C340.379 66.7157 358.902 71.421 376.717 77.4019C394.825 83.4808 410.75 90.412 421.494 98.008L444.585 65.3464ZM334.102 24.0569L317.983 20.5664L309.518 59.6603L325.637 63.1508L334.102 24.0569ZM318.824 20.7676C314.129 19.5365 309.052 18.7709 305.092 18.3132L300.499 58.0486C303.551 58.4015 306.553 58.9023 308.677 59.4592L318.824 20.7676ZM305.908 18.4246L293.902 16.5329L287.677 56.0455L299.683 57.9372L305.908 18.4246ZM293.303 16.4478C241.418 9.87382 197.911 11.5562 145.855 25.891L156.474 64.4556C202.774 51.706 240.897 50.1276 288.275 56.1306L293.303 16.4478ZM145.586 25.9669L121.77 32.8838L132.927 71.2965L156.743 64.3797L145.586 25.9669ZM120.892 33.1609C99.8052 40.3532 80.2616 50.2147 61.8943 61.607L82.978 95.5993C99.3452 85.4476 116.15 77.0412 133.805 71.0194L120.892 33.1609ZM61.5194 61.8454L44.7275 72.7844L66.5611 106.3L83.353 95.361L61.5194 61.8454ZM43.9335 73.3293C40.8574 75.5512 35.269 79.5711 29.9807 84.0957C25.5396 87.8954 18.0282 94.7053 14.3305 102.871L50.7687 119.371C50.3438 120.31 50.2216 120.13 51.465 118.763C52.5393 117.582 54.0637 116.133 55.985 114.489C59.8468 111.185 64.1514 108.069 67.3551 105.755L43.9335 73.3293ZM14.1735 119.016C17.9844 127.886 23.1874 133.988 28.7091 139.274L56.3686 110.378C53.1756 107.322 51.9074 105.512 50.9256 103.227L14.1735 119.016ZM384.983 176.283L391.957 182.121L417.633 151.45L410.659 145.611L384.983 176.283ZM391.074 152.234L343.685 196.92L371.127 226.022L418.517 181.336L391.074 152.234ZM370.138 196.047C370.149 196.056 370.069 195.991 369.867 195.797C369.658 195.598 369.4 195.342 369.014 194.95C368.411 194.338 367.053 192.925 365.684 191.668L338.643 221.144C339.041 221.509 339.387 221.872 340.506 223.009C341.401 223.918 342.894 225.426 344.675 226.896L370.138 196.047ZM365.614 191.605L355.168 182.112L328.267 211.714L338.713 221.207L365.614 191.605ZM355.189 182.131C354.556 181.554 353.911 180.998 353.503 180.645C353.023 180.23 352.737 179.981 352.487 179.755C352.248 179.538 352.191 179.474 352.235 179.521C352.272 179.56 352.549 179.851 352.921 180.372L320.376 203.627C322.283 206.296 324.424 208.304 325.617 209.386C326.272 209.98 326.913 210.533 327.337 210.9C327.832 211.328 328.068 211.533 328.246 211.696L355.189 182.131ZM346.064 173.77C344.328 172.617 342.549 171.247 340.131 169.359C337.906 167.622 335.011 165.341 331.899 163.224L309.405 196.3C311.22 197.534 313.03 198.947 315.511 200.884C317.799 202.671 320.727 204.959 323.921 207.082L346.064 173.77ZM331.897 163.223C310.273 148.521 287.81 137.117 263.268 132.878C238.298 128.565 212.738 131.933 185.533 144.228L202.008 180.678C222.689 171.331 240.163 169.479 256.46 172.294C273.185 175.183 290.22 183.256 309.407 196.302L331.897 163.223ZM185.533 144.228C154.298 158.346 141.177 170.029 119.055 191.142L146.672 220.078C167.344 200.348 176.675 192.128 202.008 180.678L185.533 144.228ZM144.798 189.562C142.319 187.718 137.065 182.895 129.347 176.329C125.952 173.441 122.237 170.37 118.851 167.873C117.169 166.632 115.275 165.315 113.345 164.176C111.885 163.315 108.553 161.412 104.408 160.575L96.4849 199.782C93.7348 199.226 92.2665 198.183 93.0226 198.629C93.3091 198.798 93.9843 199.235 95.111 200.066C97.3428 201.712 100.202 204.051 103.427 206.794C106.637 209.525 109.796 212.302 112.817 214.924C115.541 217.288 118.623 219.944 120.929 221.659L144.798 189.562ZM103.875 160.474L103.673 160.439L96.8156 199.847L97.0176 199.882L103.875 160.474ZM352.929 199.275C352.956 199.219 353.117 198.909 353.671 198.161C353.949 197.786 354.283 197.357 354.729 196.799C354.952 196.52 355.182 196.235 355.445 195.909C355.699 195.594 355.987 195.238 356.277 194.874L325.033 169.898C323.653 171.625 319.738 176.142 317.056 181.578L352.929 199.275ZM356.648 194.395L361.695 187.674L329.71 163.655L324.663 170.376L356.648 194.395ZM361.831 187.491C363.282 185.512 364.799 183.171 365.984 181.35C367.304 179.323 368.479 177.522 369.667 175.842C370.869 174.144 371.8 172.981 372.482 172.248C373.301 171.369 373.032 171.904 371.649 172.611L353.435 136.998C345.374 141.122 339.719 148.916 337.014 152.739C335.304 155.155 333.711 157.608 332.462 159.527C331.079 161.651 330.225 162.95 329.573 163.839L361.831 187.491ZM356.965 174.011C357.55 174.181 358.151 174.395 358.974 174.749L374.759 137.995C372.704 137.112 370.545 136.302 368.119 135.598L356.965 174.011ZM350.579 144.764C348.72 147.374 343.154 154.663 337.253 161.912C334.33 165.503 331.477 168.894 329.084 171.569C326.245 174.743 325.243 175.545 325.683 175.221L349.396 207.434C352.784 204.94 356.372 201.06 358.896 198.238C361.866 194.918 365.151 191.001 368.272 187.167C374.458 179.568 380.608 171.551 383.154 167.979L350.579 144.764ZM325.501 175.357L324.61 176.029L348.687 207.97L349.578 207.299L325.501 175.357ZM421.242 97.8273C421.555 98.0561 421.847 98.2548 421.888 98.2829C421.988 98.3514 422.11 98.4343 422.173 98.477C422.346 98.5942 422.441 98.6599 422.505 98.7047C422.624 98.7887 422.437 98.6621 422.117 98.4079C421.989 98.3061 421.493 97.9111 420.879 97.3196C420.58 97.0317 419.976 96.4329 419.292 95.5922C418.941 95.1602 418.437 94.5035 417.902 93.6532C417.403 92.8593 416.605 91.4717 415.954 89.6016L453.729 76.4462C453.073 74.5635 452.268 73.1618 451.759 72.3525C451.215 71.4868 450.698 70.8133 450.333 70.3632C449.62 69.4862 448.977 68.8461 448.63 68.5123C447.921 67.8291 447.296 67.3248 447.016 67.1019C446.392 66.6056 445.806 66.1901 445.515 65.9859C445.169 65.7425 444.844 65.5209 444.665 65.3995C444.253 65.1194 444.544 65.3134 444.837 65.5271L421.242 97.8273ZM424.129 99.9128C429.01 103.009 429.657 104.721 429.483 104.348C429.049 103.416 429.342 102.605 429.145 103.263C428.774 104.498 427.65 106.832 424.825 110.742C422.007 114.642 418.685 118.55 414.487 123.667L445.411 149.038C448.96 144.713 453.489 139.37 457.247 134.168C460.998 128.977 465.176 122.361 467.457 114.759C469.911 106.579 470.206 97.0443 465.744 87.4631C461.543 78.4396 454.134 71.5773 445.554 66.135L424.129 99.9128ZM414.535 123.609L401.75 139.073L432.579 164.561L445.364 149.097L414.535 123.609ZM402.007 138.769C401.298 139.592 400.661 140.41 400.279 140.9C399.801 141.515 399.581 141.801 399.329 142.113C399.101 142.395 399.079 142.405 399.201 142.277C399.296 142.178 399.817 141.636 400.734 140.98L423.993 173.523C425.774 172.25 427.151 170.924 428.087 169.947C429.051 168.94 429.857 167.976 430.437 167.258C430.993 166.57 431.562 165.832 431.846 165.466C432.227 164.978 432.325 164.861 432.322 164.865L402.007 138.769ZM425.338 142.031L406.887 126.303L380.938 156.744L399.389 172.472L425.338 142.031ZM406.753 126.19L402.029 122.234L376.348 152.901L381.072 156.857L406.753 126.19ZM401.25 121.615L383.088 107.883L358.964 139.789L377.126 153.521L401.25 121.615ZM382.493 107.45C377.983 104.293 368.672 98.1364 358.926 92.7325C354.07 90.0403 348.713 87.3143 343.559 85.241C339.163 83.4721 332.106 80.9733 324.9 81.297L326.695 121.257C324.687 121.347 324.856 120.832 328.63 122.35C331.647 123.564 335.405 125.428 339.53 127.715C347.743 132.269 355.849 137.626 359.559 140.222L382.493 107.45ZM309.536 89.6336L307.024 93.1419L339.547 116.428L342.059 112.92L309.536 89.6336ZM326.032 92.6147C324.357 85.9179 320.649 80.111 314.754 76.0809C310.218 72.9797 305.103 71.6339 303.741 71.2259L292.264 109.544C292.821 109.711 293.178 109.819 293.489 109.917C293.631 109.963 293.734 109.997 293.808 110.022C293.844 110.034 293.87 110.044 293.888 110.05C293.906 110.057 293.914 110.06 293.914 110.059C293.913 110.059 293.903 110.055 293.884 110.048C293.864 110.04 293.835 110.028 293.797 110.012C293.722 109.98 293.606 109.928 293.458 109.855C293.162 109.709 292.713 109.467 292.179 109.102C291.02 108.309 289.784 107.16 288.77 105.65C287.795 104.199 287.385 102.949 287.228 102.324L326.032 92.6147ZM303.122 71.0513L291.39 67.9444L281.15 106.611L292.882 109.718L303.122 71.0513ZM291.072 67.8627C278.052 64.6431 264.578 62.4804 250.919 61.7309L248.728 101.671C259.635 102.269 270.622 104.011 281.469 106.693L291.072 67.8627ZM250.017 61.7018L238.983 61.5948L238.595 101.593L249.629 101.7L250.017 61.7018ZM238.782 61.5939C215.78 61.6027 194.084 65.4939 173.004 71.0311L183.167 109.719C202.213 104.716 220.329 101.601 238.797 101.594L238.782 61.5939ZM173.005 71.0309C129.948 82.3395 87.4732 101.988 59.0707 142.916L91.9329 165.721C112.572 135.981 144.401 119.9 183.166 109.719L173.005 71.0309ZM88.8376 139.414L55.8747 109.921L29.2031 139.731L62.166 169.224L88.8376 139.414Z" fill="white" mask="url(#path-1-outside-1_5_6225)"/>
</svg>
